<svg xmlns="http://www.w3.org/2000/svg" fill="none" viewBox="0 0 188 36"><g clip-path="url(#a)"><mask id="b" width="188" height="36" x="0" y="0" maskUnits="userSpaceOnUse" style="mask-type:luminance"><path fill="#fff" d="M188 0H0v36h188V0Z"/></mask><g fill="#CDAF6D" mask="url(#b)"><path d="M44.95 26.069c-2.023-4.516-3.771-10.376-4.64-13.223-.197-.636-.197-.873-.197-1.189 0-.237-.083-.392-.316-.392-.196 0-.517.356-.951.868l-.632.754c-.238.28-.357.677-.833 1.783-1.148 2.847-2.617 6.531-4.205 10.174-.595 1.344-1.226 2.253-1.702 2.61-.321.237-.875.516-1.547.676-.362.073-.32.512.119.512.828 0 1.743-.124 2.612-.124 1.066 0 1.904.124 3.332.124.434 0 .476-.44.119-.512-.828-.201-1.35-.397-1.583-.677-.404-.439-.285-1.183-.083-1.901.316-1.302.709-2.212.833-2.532.077-.196.196-.274.393-.31.16-.047.476-.083 2.375-.083 2.147 0 2.42 0 2.659.037.238.046.315.16.44.516.553 1.308 1.024 2.739 1.148 3.483.16.837 0 1.194-1.268 1.545-.315.083-.274.44.16.44 1.19 0 1.94-.125 2.934-.125.993 0 1.862.124 3.373.124.476 0 .476-.398.119-.511-1.506-.44-2.064-.677-2.654-2.062m-6.704-4.837c-1.625 0-1.821-.036-1.982-.077-.238-.041-.196-.28-.036-.713.833-2.3 1.428-3.72 1.981-4.91.238-.552.357-.552.435-.242.44 1.431.75 2.377 1.62 5.028.16.475.16.754.04.79-.196.083-.475.12-2.064.12M57.36 23.17c0 1.545-.118 2.537-.16 3.09-.16 1.147-.517 1.462-2.023 1.865-.393.114-.357.512.083.512 1.107 0 2.338-.124 3.528-.124s2.297.124 3.29.124c.554 0 .476-.398.042-.512-1.666-.48-1.981-.837-2.178-2.103-.083-.475-.12-.914-.12-2.18V21.79c0-.558.042-.594.316-.594a8.99 8.99 0 0 1 1.547.155c.28.041.59.238.952.755.75.945 4.082 5.776 6.301 8.112C73.015 34.455 76.507 36 80.071 36c2.778 0 5.152-1.194 6.265-3.09.279-.47 0-.635-.321-.315-.47.517-1.702 1.747-4.278 1.747-3.647 0-6.384-1.55-9.788-4.718-3.528-3.287-5.748-6.49-7.212-8.826-.243-.351-.124-.511.156-.671.398-.233.755-.47.993-.672.595-.476 1.63-1.545 1.63-3.447 0-1.147-.28-4.63-6.224-4.47-2.535 0-5.742.435-6.3.553-.477.083-.4.434.04.47.71.083 1.584.202 1.863.481.119.155.238.352.315.868.12.672.16 1.623.16 3.049v6.211h-.01Zm2.453-7.56c0-1.819.04-2.139.082-2.454.078-.476.197-.553.71-.553 2.85 0 4.396 2.093 4.396 4.511 0 1.307-.59 2.217-1.267 2.656-.828.475-1.66.672-3.606.672-.28-.083-.315-.037-.315-.713V15.61Z"/><path d="M81.54 21.904c0 2.372 0 3.803-.197 4.986-.16.713-1.07 1.116-1.862 1.23-.393.072-.357.512.078.512 1.23 0 2.224-.124 3.17-.124 1.113 0 2.06.124 3.369.124.48 0 .48-.44.119-.512-.952-.201-1.785-.517-1.982-1.426-.238-.987-.238-2.418-.238-4.79V18.38c0-2.377 0-3.875.197-4.826.155-.951 1.07-1.271 1.743-1.432.393-.072.393-.511-.077-.511-1.107 0-1.821.119-2.696.119-1.19 0-1.898-.12-3.486-.12-.471 0-.513.44-.197.512.797.197 1.671.517 1.899 1.545.16.832.16 2.336.16 4.713v3.524ZM105.922 11.26c-2.302 0-4.677.831-6.58 2.495-2.023 1.741-2.892 4.118-2.892 6.609 0 5.265 3.492 8.63 8.163 8.63 2.892 0 5.432-1.226 7.093-3.086 1.35-1.503 2.224-3.529 2.224-6.216 0-4.671-3.057-8.433-8.013-8.433m-.078 16.468c-4.439 0-6.466-3.839-6.466-7.916 0-3.328 1.076-7.286 5.199-7.286 4.562 0 6.466 3.798 6.466 8.232 0 3.766-1.309 6.965-5.194 6.965M124.478 22.58c0 2.259.393 3.489 1.148 4.43 1.112 1.353 2.933 1.983 5.117 1.983 4.599 0 7.449-3.167 7.651-7.88l.201-4.666c.078-1.627.197-2.46.394-2.976.32-.827.91-1.183 1.588-1.343.398-.078.357-.512-.083-.512-.791 0-1.666.119-2.618.119-1.148 0-2.255-.119-3.409-.119-.357 0-.434.398-.077.512 1.184.397 1.862.713 2.178 1.467.201.512.398 1.343.398 3.162v2.93c0 3.643-.6 5.545-1.624 6.49-.994 1.07-2.375 1.106-3.285 1.106-1.749 0-3.011-.75-3.73-1.468-.828-.713-1.387-2.294-1.387-4.474v-2.925c0-2.733.119-4.79.631-5.462.238-.398.637-.671 1.47-.832.393-.077.356-.511-.125-.511-1.422 0-2.1.119-3.29.119-.988 0-1.588-.12-3.171-.12-.398 0-.398.476-.041.512.714.197 1.546.434 1.821 1.034.16.356.243.713.243 2.888v6.537ZM156.071 11.26c-1.702 0-3.213.795-4.159 1.736-1.19 1.152-1.506 2.376-1.506 3.41 0 2.056 1.262 3.322 3.968 4.273 2.095.755 3.637 1.747 3.637 3.845 0 2.097-1.066 3.043-2.928 3.043-1.547 0-3.249-.95-3.766-2.02-.28-.59-.28-.946-.28-1.184-.041-.356-.398-.398-.517-.113-.155.351-.466 1.224-.662 1.545-.202.279-.404.708-.321.987.155.558.595 1.033 1.309 1.503.75.44 1.78.713 3.047.713 1.267 0 2.7-.428 3.921-1.348 1.071-.79 2.458-2.295 2.458-4.511 0-2.853-2.023-3.72-4.361-4.553-1.661-.594-3.285-1.42-3.285-3.601 0-1.586.988-2.496 2.338-2.496 1.112 0 2.017.393 2.695 1.183.517.595.667 1.07.709 1.385.036.48.553.48.553.041 0-.707.078-1.224.114-1.54.083-.32.124-.516.124-.712a.97.97 0 0 0-.434-.832c-.357-.238-1.112-.755-2.654-.755ZM177.477 18.979c-2.809 0-3.135-.036-3.404-.083-.279-.036-.279-.155-.279-.671 0-.755.036-4.201.238-4.754.202-.595.476-1.028 1.785-1.344.352-.072.352-.511-.119-.511-1.464 0-2.183.119-3.487.119-1.071 0-1.94-.12-3.249-.12-.398 0-.357.435-.082.512 1.51.434 2.064.832 2.219 1.468.202.795.233 2.495.233 3.839v5.183c0 2.93-.114 3.601-.192 4.035-.119.558-.517.956-1.867 1.473-.316.155-.352.512.077.512 1.113 0 1.826-.12 3.058-.12 1.07 0 2.488.12 3.44.12.512 0 .512-.404.16-.512-1.034-.279-1.779-.718-2.017-1.628-.119-.558-.202-1.782-.202-3.88v-1.421c0-.713.036-.75.512-.832.279-.041.595-.078 3.451-.078h.512c3.254 0 3.73.037 4.087.078.31.046.429.16.429.677v1.937c0 2.33-.119 3.364-.274 3.876-.321.832-.797.95-1.826 1.271-.316.114-.316.512.155.512 1.071 0 1.909-.12 3.016-.12 1.19 0 2.379.12 3.766.12.471 0 .471-.44.16-.512-1.386-.398-2.095-.677-2.255-1.581-.161-.801-.28-1.39-.28-4.434v-4.67c0-2.895.119-3.566.316-4.238.129-.511.719-.832 1.749-1.07.356-.072.356-.511-.078-.511-1.428 0-2.385.119-3.528.119-1.035 0-1.821-.12-3.135-.12-.44 0-.476.435-.155.512 1.029.238 1.743.481 2.1 1.266.197.44.274 1.747.274 3.25v1.427c0 .672-.119.749-.476.79-.233.037-.709.114-3.885.114h-.952.005ZM97.98 5.028a22.924 22.924 0 0 1 4.74-.982c3.46-.357 6.611.046 8.913.982.502-1.246 1.133-2.455 1.79-3.607-1.511.186-2.809.878-3.927 1.834-.517-1.193-1.107-2.382-2.172-3.255-1.082.667-2.127 1.53-2.871 2.671-.657-1.012-1.563-2.144-2.758-2.609-1.024.992-1.469 2.196-1.878 3.4-.977-.842-2.172-1.793-3.435-2.103l1.599 3.669ZM102.833 5.203c-1.572.16-3.062.48-4.397.915l.331.754c3.947-1.348 8.588-1.4 12.245.021.067-.253.145-.506.217-.76-2.121-.868-5.157-1.266-8.401-.925M15.318 7.647c-2.949 0-6.404 2.124-8.05 2.124-1.81 0-4.278-.47-4.754-.47-.569.031-.73.284-.73.537.032.192.347.383.984.383.698.03 3.264.03 3.678.568.667.858.698 3.426.698 6.557 0 .383 0 .719-.01 1.075H4.656v.026H.109v1.338h7c-.104 4.098-.472 6.454-.953 7.441-.92 1.87-3.616 2.883-4.723 2.883-.92 0-.507-.155-1.076-.155-.414 0-.352.062-.352.253 0 .223.383.476 1.268.476 2.41 0 4.697-1.866 6.689-2.723 1.49.32 3.585 1.519 6.663 1.519 5.1 0 11.122-4.113 11.122-11.239 0-7.125-5.07-10.593-10.429-10.593Zm.13 20.742c-2.22-.026-4.341-1.581-4.915-2.532-.518-.817-.538-3.57-.538-6.082h.424V18.41h-.424c.015-3.147.119-7.26.63-7.942.787-1.044 2.551-1.674 3.98-1.68 4.422.01 7.112 3.87 7.112 11.017 0 6.557-3.771 8.578-6.275 8.578"/></g></g><defs><clipPath id="a"><path fill="#fff" d="M0 0h188v36H0z"/></clipPath></defs></svg>