<?xml version="1.0" encoding="UTF-8"?>
<!-- Generated by Pixelmator Pro 3.4.3 -->
<svg width="500" height="278" viewBox="0 0 500 278" xmlns="http://www.w3.org/2000/svg">
    <path id="MATERRA-CUNAT-FAMILY-VINEYARDS" fill="#000000" fill-rule="evenodd" stroke="none" d="M 204.261719 273.326172 C 204.162369 273.320587 204.044922 273.275391 204.044922 273.275391 C 203.875351 272.673065 201.041367 272.368195 197.742188 272.21875 C 196.013229 272.258362 193.725433 272.263672 190.951172 272.263672 C 185.77063 272.263672 174.298141 272.040863 174.183594 272.039063 L 160.712891 272.263672 C 160.325058 272.263672 160.150391 272.051575 160.150391 271.853516 C 160.150391 271.655457 160.324921 271.441406 160.710938 271.441406 C 164.919235 271.441406 165.389603 271.004059 165.613281 257.953125 C 165.736832 256.291138 165.707794 245.82605 165.693359 240.796875 C 165.690659 239.69577 165.689453 238.841522 165.689453 238.376953 C 165.689453 221.713043 165.300659 221.15625 161.759766 221.15625 L 160.861328 221.15625 C 160.493347 221.15625 160.300781 220.930313 160.300781 220.707031 C 160.300781 220.483749 160.493347 220.255859 160.861328 220.255859 L 193.125 220.255859 C 196.864288 220.125305 200.325165 219.826248 200.513672 219.158203 C 200.513672 219.158203 200.812637 219.043854 200.861328 219.158203 C 202.524445 223.064667 204.605804 231.068863 204.822266 232.5625 C 204.822266 232.5625 204.820389 232.609375 204.679688 232.609375 C 204.527267 232.609375 204.505859 232.552734 204.505859 232.552734 C 202.357529 229.212585 199.759872 221.837753 183.636719 221.605469 L 175.5625 221.605469 C 175.270294 222.509399 175.269531 224.802277 175.269531 229.847656 L 175.269531 241.916016 L 178.675781 241.916016 C 189.056488 241.916016 190.388672 236.904694 190.388672 232.539063 L 190.388672 231.492188 C 190.388672 230.753922 191.4375 230.756622 191.4375 231.492188 C 191.347305 233.87709 191.138672 239.73555 191.138672 242.701172 C 191.138672 245.075272 191.28598 250.809341 191.4375 254.277344 C 191.4375 254.94899 190.388672 254.944794 190.388672 254.28125 L 190.388672 253.384766 C 190.388672 246.274109 186.666458 242.962891 178.675781 242.962891 L 175.269531 242.962891 L 175.269531 256.822266 C 175.269531 260.365906 175.225555 268.417084 174.835938 270.828125 L 186.265625 270.828125 C 202.389664 270.595856 205.890717 263.221008 208.039063 259.880859 C 208.039063 259.880859 208.060471 259.824219 208.212891 259.824219 C 208.354507 259.824219 208.354416 259.869141 208.353516 259.869141 C 208.137054 261.362762 206.055695 269.368927 204.392578 273.275391 C 204.374313 273.318268 204.321335 273.329529 204.261719 273.326172 Z M 475.087891 272.984375 C 474.435852 272.984375 473.773163 272.969177 473.109375 272.939453 C 470.387451 272.939453 466.43512 272.412292 463.763672 271.964844 L 463.753906 271.964844 C 463.365204 271.964844 458.576508 271.253754 458.203125 272.681641 C 458.203125 272.681641 457.922485 272.794189 457.894531 272.681641 C 456.95929 268.966949 456.47995 261.044434 456.285156 259.585938 C 456.285156 259.585938 456.284332 259.541016 456.416016 259.541016 C 456.547668 259.541016 456.568359 259.599609 456.568359 259.599609 C 458.488495 262.853333 463.957581 269.426117 472.765625 271.367188 C 473.977753 271.609375 475.230438 271.738281 476.515625 271.738281 C 483.661438 271.738281 488.033752 268.311554 488.382813 262.523438 C 488.705688 257.175598 485.669556 251.383453 479.671875 249.257813 L 475.667969 247.84375 C 470.048218 245.796463 459.507813 242.328094 459.507813 234.763672 C 459.507813 226.783295 466.468506 219.949219 479.525391 219.949219 C 482.247314 219.949219 484.881866 220.237 487.253906 220.660156 L 487.263672 220.660156 C 487.65152 220.660156 492.443634 221.373535 492.8125 219.949219 C 492.8125 219.949219 493.081696 219.83757 493.125 219.949219 C 494.615845 223.76384 496.477966 231.578583 496.671875 233.037109 C 496.671875 233.037109 496.673157 233.082031 496.546875 233.082031 C 496.410675 233.082031 496.390625 233.025391 496.390625 233.025391 C 494.465057 229.764465 485.522919 221.195313 478.095703 221.195313 C 471.611023 221.195313 468.082031 224.390213 468.082031 228.375 C 468.082031 233.694962 474.090363 235.742813 479.806641 237.779297 L 483.714844 239.103516 C 489.149719 241.151703 499.053772 244.61348 499.054688 254.451172 C 499.054688 266.832275 489.183807 272.984375 475.087891 272.984375 Z M 27.115234 272.488281 C 26.354029 272.488281 25.894049 272.204163 25.664063 271.59375 L 11.742188 236.103516 C 5.872672 221.231262 5.09651 221.230469 1.367188 221.230469 L 0.841797 221.230469 C 0.646087 221.230469 0.490741 221.18573 0.378906 221.095703 C 0.272483 221.011078 0.214844 220.893173 0.214844 220.761719 C 0.214844 220.520432 0.425761 220.257813 0.767578 220.257813 C 2.032935 220.257813 3.96347 220.336319 5.515625 220.398438 C 6.652914 220.444351 7.635433 220.482422 8.103516 220.482422 C 8.572507 220.482422 10.551133 220.444351 12.84375 220.398438 C 15.971515 220.336319 19.863411 220.257813 21.126953 220.257813 C 21.286589 220.257813 21.420925 220.305252 21.515625 220.392578 C 21.604012 220.474518 21.654297 220.585632 21.654297 220.708984 C 21.654297 220.961975 21.44326 221.230469 21.052734 221.230469 L 19.630859 221.230469 C 18.520643 221.230469 17.814764 221.321182 17.5 221.78125 C 16.713537 222.93187 18.168583 226.637756 22.056641 236.542969 L 31.5625 260.603516 C 31.82766 261.263458 31.97934 261.578125 32.130859 261.578125 C 32.189484 261.578125 32.309971 261.460236 32.550781 260.898438 L 39.886719 241.849609 C 41.749153 236.987 43.470703 231.90593 43.470703 227.693359 C 43.470703 223.614944 41.44738 221.080078 38.193359 221.080078 C 37.56744 221.080078 37.169914 221.07692 36.886719 221.074219 C 36.626068 221.071518 36.492016 221.070023 36.242188 221.078125 C 35.693829 221.09523 35.293648 221.099442 35.148438 220.958984 C 35.108757 220.920273 35.087891 220.871475 35.087891 220.818359 C 35.087891 220.257446 35.849781 220.257813 36.099609 220.257813 L 54.287109 220.257813 C 54.584736 220.257813 54.775242 220.545166 54.773438 220.744141 C 54.773438 220.956619 54.500446 221.230469 54.210938 221.230469 L 54.060547 221.230469 C 52.208035 221.230469 50.503403 222.629532 48.845703 225.507813 C 47.197926 228.522049 44.128056 234.136505 40.992188 242.228516 L 29.541016 271.669922 C 29.373262 272.34787 28.897575 272.488281 28.238281 272.488281 L 27.115234 272.488281 Z M 142.146484 272.388672 C 140.689896 272.388672 140.545349 272.179749 139.429688 270.554688 C 139.170837 270.178345 138.857925 269.723907 138.462891 269.173828 L 104.744141 226.746094 L 104.744141 250.035156 C 104.744141 267.798309 107.87973 271.367188 112.9375 271.367188 L 113.984375 271.367188 C 114.317177 271.367188 114.490234 271.59314 114.490234 271.816406 C 114.490234 272.039673 114.316277 272.265625 113.984375 272.265625 L 97.367188 272.265625 C 97.072266 272.265625 96.917969 272.039673 96.917969 271.816406 C 96.917969 271.59314 97.072266 271.367188 97.367188 271.367188 L 97.742188 271.367188 C 101.534698 271.367188 103.487343 264.18988 103.546875 250.035156 L 103.546875 226.945313 C 103.546875 225.90094 102.935692 224.741364 101.78125 223.589844 C 100.04689 221.930542 98.335724 221.15625 96.398438 221.15625 L 95.724609 221.15625 C 95.425171 221.15625 95.246094 220.917984 95.246094 220.6875 C 95.246094 220.572266 95.288719 220.466095 95.367188 220.388672 C 95.428528 220.329254 95.539726 220.257813 95.724609 220.257813 C 101.907059 220.257813 108.091637 220.298401 110.732422 220.316406 C 111.399834 220.320908 111.820404 220.324219 111.927734 220.324219 C 112.372368 220.324219 112.685699 220.616394 112.994141 220.941406 C 113.574074 221.611252 113.914513 222.011398 114.214844 222.365234 C 114.709084 222.947754 115.098114 223.405487 116.271484 224.734375 L 142.082031 257.628906 L 142.095703 240.621094 C 142.095703 222.660782 137.015961 221.15625 132.253906 221.15625 L 132.107422 221.15625 C 131.738541 221.15625 131.546875 220.930313 131.546875 220.707031 C 131.546875 220.483749 131.738541 220.257813 132.107422 220.257813 C 133.371002 220.257813 136.40184 220.280823 138.837891 220.298828 C 140.629074 220.312332 142.170731 220.324219 142.640625 220.324219 C 143.069031 220.324219 144.005585 220.312332 145.111328 220.298828 C 146.68605 220.280823 148.64418 220.257813 149.925781 220.257813 C 150.25769 220.257813 150.431641 220.483749 150.431641 220.707031 C 150.431641 220.930313 150.25769 221.15625 149.925781 221.15625 L 149.701172 221.15625 C 146.996353 221.15625 143.292969 221.157242 143.292969 240.621094 L 143.322266 272.388672 L 142.146484 272.388672 Z M 268.359375 272.376953 L 268.359375 272.263672 C 267.990509 272.263672 267.796875 271.982208 267.796875 271.703125 C 267.796875 271.467255 268.094238 271.291016 268.359375 271.291016 L 268.583984 271.291016 C 270.360748 271.291016 272.085175 269.890747 273.574219 267.240234 C 275.589081 263.78125 277.573425 259.27005 280.005859 252.611328 L 292.056641 220.705078 C 292.229797 220.272018 292.587067 220.033203 293.060547 220.033203 L 296.427734 220.033203 C 297.111389 220.033203 297.402405 220.18309 297.580078 220.626953 L 310.605469 252.755859 C 317.85318 270.540619 319.252777 271.291016 321.728516 271.291016 L 322.103516 271.291016 C 322.567963 271.291016 322.739197 271.59024 322.738281 271.779297 C 322.738281 272.079102 322.524963 272.265625 322.177734 272.265625 L 301.966797 272.265625 C 301.554626 272.265625 301.277344 271.98764 301.277344 271.726563 C 301.277344 271.622131 301.32132 271.526825 301.404297 271.462891 C 301.486359 271.398956 301.600586 271.367188 301.742188 271.367188 L 303.314453 271.367188 C 304.560883 271.367188 305.415497 271.244873 305.822266 270.642578 C 306.746735 269.274994 305.600677 265.321411 300.917969 253.734375 L 291.742188 253.736328 C 288.516968 253.736328 283.144165 253.736832 280.933594 253.662109 L 280.664063 254.335938 C 279.10556 258.453064 278.213318 262.739563 278.277344 265.798828 C 278.277344 269.338867 280.173065 271.367188 283.478516 271.367188 C 284.154968 271.367188 284.882813 271.274567 285.414063 271.207031 C 285.704468 271.170105 285.913574 271.142578 286.025391 271.142578 C 286.578278 271.142578 286.660156 271.447052 286.660156 271.628906 C 286.660156 271.866577 286.529755 272.263672 285.650391 272.263672 L 285.650391 272.376953 L 268.359375 272.376953 Z M 230.609375 272.265625 C 230.240494 272.265625 230.046875 272.039673 230.046875 271.816406 C 230.046875 271.59314 230.240494 271.367188 230.609375 271.367188 L 231.806641 271.367188 C 235.876007 271.367188 236.183594 270.937592 236.183594 252.800781 L 236.183594 250.517578 L 228.113281 234.169922 C 222.610764 223.529144 220.619705 221.230469 216.910156 221.230469 L 216.3125 221.230469 C 215.848022 221.230469 215.675781 220.932312 215.675781 220.744141 C 215.675781 220.444336 215.889084 220.257813 216.236328 220.257813 L 238.466797 220.257813 C 238.857315 220.257813 239.068359 220.527206 239.068359 220.779297 C 239.068359 220.902649 239.02092 221.015732 238.931641 221.097656 C 238.836029 221.184982 238.702606 221.230469 238.542969 221.230469 L 235.923828 221.230469 C 234.772995 221.230469 234.098557 221.447845 233.802734 221.916016 C 233.055954 223.099945 234.533493 226.178421 237.214844 231.767578 C 237.613495 232.599487 238.040482 233.489914 238.494141 234.443359 L 245.279297 248.515625 L 251.689453 235.712891 C 253.707016 231.245529 255.74144 225.337585 253.962891 222.589844 C 253.315308 221.587784 252.180939 221.080078 250.591797 221.080078 C 250.242737 221.080078 249.51712 221.106094 248.933594 221.125 C 248.511505 221.139404 248.15181 221.150391 248.027344 221.150391 C 247.830734 221.150391 247.702545 221.136017 247.625 221.058594 C 247.551025 220.984772 247.550781 220.884766 247.550781 220.769531 C 247.550781 220.411194 247.67691 220.257813 248.421875 220.257813 L 266.386719 220.257813 C 266.592346 220.257813 266.714813 220.335571 266.785156 220.400391 C 266.87265 220.485016 266.921875 220.60051 266.921875 220.726563 C 266.921875 220.971451 266.735901 221.232422 266.388672 221.232422 L 266.238281 221.232422 C 262.457489 221.232422 256.772369 228.88385 252.712891 236.044922 L 245.841797 249.769531 L 245.841797 252.800781 C 245.841797 270.936676 246.150421 271.367188 250.220703 271.367188 L 251.492188 271.367188 C 251.861069 271.367188 252.054688 271.59314 252.054688 271.816406 C 252.054688 272.039673 251.861069 272.265625 251.492188 272.265625 L 230.609375 272.265625 Z M 64.269531 272.263672 C 63.900658 272.263672 63.707031 272.03772 63.707031 271.814453 C 63.707031 271.591187 63.900658 271.365234 64.269531 271.365234 L 65.990234 271.365234 C 69.472496 271.365234 69.919922 271.365967 69.919922 252.798828 L 69.919922 239.722656 C 69.919922 221.155518 69.472496 221.15625 65.990234 221.15625 L 64.269531 221.15625 C 63.900658 221.15625 63.707031 220.92836 63.707031 220.705078 C 63.707031 220.481796 63.900658 220.255859 64.269531 220.255859 C 65.497932 220.255859 67.944153 220.279922 69.912109 220.298828 C 71.327202 220.311432 72.534935 220.322266 72.96875 220.322266 C 73.444054 220.322266 75.319801 220.310379 77.484375 220.296875 C 80.511169 220.277969 83.941986 220.255859 85.152344 220.255859 C 85.521225 220.255859 85.714844 220.481796 85.714844 220.705078 C 85.714844 220.92836 85.521225 221.15625 85.152344 221.15625 L 83.431641 221.15625 C 79.950287 221.15625 79.502861 221.155518 79.501953 239.722656 L 79.501953 252.798828 C 79.501953 271.365967 79.950287 271.365234 83.431641 271.365234 L 85.152344 271.365234 C 85.521225 271.365234 85.712891 271.591187 85.712891 271.814453 C 85.712891 272.03772 85.521225 272.263672 85.152344 272.263672 C 83.942886 272.263672 80.500648 272.236298 77.464844 272.212891 C 75.292152 272.19577 73.411903 272.181641 72.9375 272.181641 C 72.503685 272.181641 71.301353 272.196686 69.892578 272.212891 C 67.93364 272.236298 65.497032 272.263672 64.269531 272.263672 Z M 393.851563 272.263672 C 393.465546 272.263672 393.289063 272.051575 393.289063 271.853516 C 393.289063 271.655457 393.465546 271.441406 393.851563 271.441406 C 398.061615 271.441406 398.605103 270.94104 398.753906 257.953125 C 398.813446 256.370392 398.779755 249.477325 398.761719 245.773438 C 398.757233 244.782181 398.753906 244.048615 398.753906 243.757813 C 398.753906 243.111374 398.737671 241.155579 398.71875 239.083984 C 398.698914 236.860229 398.679688 234.561783 398.679688 233.746094 C 398.679688 221.744919 398.463928 221.15625 394.076172 221.15625 C 393.707275 221.15625 393.513672 220.930313 393.513672 220.707031 C 393.513672 220.483749 393.707275 220.257813 394.076172 220.257813 C 394.32962 220.257813 396.353363 220.283844 398.699219 220.314453 C 401.981262 220.357666 405.703979 220.40625 406.351563 220.40625 C 406.820557 220.40625 408.210419 220.380219 409.820313 220.349609 C 412.013763 220.308197 414.743164 220.257813 416.005859 220.257813 C 424.010284 220.257813 431.352264 223.221268 436.681641 228.601563 C 441.909088 233.881012 444.789063 241.018799 444.789063 248.701172 C 444.789063 256.243988 442.192535 262.151489 437.074219 266.257813 C 432.175964 270.186768 424.99472 272.263672 416.306641 272.263672 C 414.863617 272.263672 412.26474 272.18396 410.177734 272.119141 C 408.829407 272.077728 407.665802 272.039063 407.25 272.039063 C 406.349884 272.039063 402.711823 272.108551 399.501953 272.167969 C 396.857574 272.217499 394.360199 272.263672 393.851563 272.263672 Z M 333.142578 272.150391 C 332.543701 272.150391 332.543701 271.478516 333.142578 271.478516 C 334.638824 271.478516 335.537842 271.479034 336.136719 271.404297 C 337.259583 270.582306 337.558624 268.714233 337.783203 263.333984 C 337.858063 260.344971 337.931641 255.78772 337.931641 249.810547 L 337.931641 238.376953 C 337.931641 221.789566 337.632904 221.042969 333.964844 221.042969 L 333.068359 221.042969 C 332.469482 221.042969 332.469482 220.371094 333.068359 220.371094 C 335.163483 220.371094 341.076355 220.519531 342.199219 220.519531 C 343.247253 220.519531 353.202026 220.371094 354.474609 220.371094 C 368.171844 220.371094 374.458984 224.703064 374.458984 232.324219 C 374.458984 238.673203 368.513184 242.78653 358.054688 244.498047 C 358.401031 244.534058 358.831268 244.574265 359.423828 244.609375 C 370.181763 245.246796 371.988281 252.685547 371.988281 252.685547 L 375.902344 263.128906 C 378.68924 270.870697 378.83374 271.349609 382.558594 271.349609 C 383.117767 271.349609 383.117767 272.024323 382.558594 272.023438 L 362.589844 272.023438 C 361.958527 272.023438 361.958527 271.347656 362.589844 271.347656 C 364.88974 271.347656 366.232422 270.728058 366.232422 268.324219 C 366.232422 267.162811 365.917267 265.596191 365.259766 263.480469 L 362.03125 253.269531 C 362.03125 253.269531 360.343719 245.21402 351.330078 245.400391 L 347.289063 245.400391 L 347.289063 252.798828 C 347.289063 271.179596 347.662933 271.478516 351.330078 271.478516 L 352.828125 271.478516 C 353.426117 271.478516 353.426117 272.150391 352.828125 272.150391 C 350.732117 272.150391 343.769775 272.001953 342.722656 272.001953 C 341.599792 272.001953 333.741455 272.150391 333.142578 272.150391 Z M 416.455078 271.291016 C 428.388184 271.291016 433.708984 264.323242 433.708984 248.699219 C 433.708984 240.74765 432.18988 233.990051 429.316406 229.15625 C 426.20575 223.921814 421.550079 221.15625 415.855469 221.15625 L 412.787109 221.15625 C 408.656342 221.15625 408.410156 221.155518 408.410156 239.722656 L 408.410156 260.269531 C 408.410156 265.814545 408.127411 269.59671 407.837891 270.992188 C 408.589172 270.998474 409.612823 271.049805 410.787109 271.107422 C 412.532349 271.194763 414.511444 271.291016 416.455078 271.291016 Z M 281.246094 252.835938 L 291.658203 252.835938 L 300.484375 252.761719 L 290.371094 228.078125 L 281.246094 252.835938 Z M 347.289063 244.578125 C 348.636505 244.503403 350.507507 244.503906 352.828125 244.503906 C 358.515533 244.503906 363.980469 240.918152 363.980469 232.548828 C 363.980469 224.778229 360.164001 221.042969 352.978516 221.042969 C 352.080231 221.042969 350.283752 221.042465 349.535156 221.117188 C 347.589752 221.117188 347.289063 221.640579 347.289063 229.261719 L 347.289063 244.578125 Z M 366.017578 201.410156 C 365.918243 201.404572 365.800781 201.359375 365.800781 201.359375 C 365.653809 200.838989 363.517456 200.541412 360.814453 200.373047 C 358.997101 200.453186 356.242523 200.460938 352.707031 200.460938 C 347.523804 200.460938 339.620392 200.238129 339.541016 200.236328 L 326.078125 200.460938 C 325.632599 200.460938 325.400391 200.197693 325.400391 199.9375 C 325.400391 199.677307 325.632294 199.412109 326.074219 199.412109 C 330.24823 199.412109 330.639618 199.041046 330.863281 186.035156 C 330.911987 185.384216 330.9375 183.37941 330.949219 180.882813 L 330.947266 180.882813 L 330.947266 169.841797 C 330.946381 169.504166 330.944244 169.182465 330.943359 168.880859 C 330.940643 167.779755 330.939453 166.92746 330.939453 166.462891 C 330.939453 165.021484 330.934967 163.709137 330.927734 162.5 C 330.876343 156.320282 330.700958 153.039764 330.214844 151.306641 C 329.67099 149.474487 328.731903 149.353516 327.121094 149.353516 L 325.408203 149.353516 C 324.965363 149.353516 324.734375 149.071014 324.734375 148.791016 C 324.734375 148.511017 324.965363 148.228516 325.408203 148.228516 C 325.635468 148.228516 325.9133 148.230621 326.210938 148.232422 C 326.21637 148.231522 326.219177 148.228516 326.224609 148.228516 C 326.420319 148.228516 326.639008 148.232727 326.867188 148.236328 C 328.114532 148.24353 329.679291 148.258865 331.054688 148.271484 C 332.469788 148.284088 333.675568 148.294922 334.109375 148.294922 C 334.583771 148.294922 336.458466 148.283035 338.623047 148.269531 C 341.581299 148.25061 345.082642 148.228516 346.292969 148.228516 C 346.735809 148.228516 346.966797 148.511017 346.966797 148.791016 C 346.966797 149.071014 346.735809 149.353516 346.292969 149.353516 L 344.572266 149.353516 C 341.190125 149.353516 340.755859 149.352005 340.755859 167.806641 L 340.755859 180.882813 L 340.748047 180.882813 L 340.748047 184.90625 C 340.748047 189.279907 340.687836 196.57576 340.314453 198.912109 L 348.023438 198.912109 C 364.146362 198.67981 367.646606 187.703491 369.794922 184.363281 C 369.794922 184.363281 369.81723 184.306641 369.96875 184.306641 C 370.110321 184.306641 370.085815 184.517578 370.083984 184.517578 C 369.867554 186.011215 367.812469 197.452972 366.148438 201.359375 C 366.130188 201.402252 366.077179 201.413513 366.017578 201.410156 Z M 126.849609 200.191406 L 126.849609 200.080078 C 126.480736 200.080078 126.287109 199.79863 126.287109 199.519531 C 126.287109 199.283646 126.58445 199.107422 126.849609 199.107422 L 127.074219 199.107422 C 128.850967 199.107422 130.575394 197.707184 132.064453 195.056641 C 134.0793 191.597595 136.06366 187.084503 138.496094 180.425781 L 150.546875 148.519531 C 150.720047 148.086472 151.077271 147.849609 151.550781 147.849609 L 154.917969 147.849609 C 155.601608 147.849609 155.892639 147.999496 156.070313 148.443359 L 169.095703 180.572266 C 176.343414 198.357117 177.743011 199.107422 180.21875 199.107422 L 180.591797 199.107422 C 181.056274 199.107422 181.229416 199.404678 181.228516 199.59375 C 181.228516 199.893555 181.013245 200.080078 180.666016 200.080078 L 160.457031 200.080078 C 160.044846 200.080078 159.767578 199.802109 159.767578 199.541016 C 159.767578 199.436584 159.811554 199.343231 159.894531 199.279297 C 159.976608 199.215378 160.09082 199.183594 160.232422 199.183594 L 161.804688 199.183594 C 163.051132 199.183594 163.903778 199.06131 164.310547 198.458984 C 165.235001 197.0914 164.088943 193.137787 159.40625 181.550781 L 150.230469 181.552734 C 147.005264 181.552734 141.634399 181.5513 139.423828 181.476563 L 139.154297 182.152344 C 137.59581 186.26944 136.701584 190.55397 136.765625 193.613281 C 136.765625 197.153351 138.663254 199.181641 141.96875 199.181641 C 142.645172 199.181641 143.373077 199.08902 143.904297 199.021484 C 144.194702 198.984573 144.401825 198.957031 144.513672 198.957031 C 145.066528 198.957031 145.150391 199.26149 145.150391 199.443359 C 145.150391 199.681046 145.019974 200.080078 144.140625 200.080078 L 144.140625 200.191406 L 126.849609 200.191406 Z M 231.113281 200.097656 L 230.943359 200.080078 L 230.917969 200.019531 L 216.261719 164.410156 C 216.256332 164.396652 216.251511 164.382629 216.246094 164.369141 L 214.322266 159.697266 C 214.056213 159.031021 213.903305 158.714844 213.75 158.714844 C 213.702194 158.714844 213.584412 158.801971 213.330078 159.392578 L 206 178.449219 C 204.139374 183.297394 202.417969 188.36879 202.417969 192.607422 C 202.417969 196.680389 204.43808 199.210938 207.689453 199.210938 C 208.317184 199.210938 208.717865 199.217255 209.001953 199.222656 C 209.265305 199.228058 209.398163 199.232559 209.654297 199.222656 C 210.194534 199.20285 210.590073 199.199249 210.734375 199.337891 C 210.774948 199.375702 210.794922 199.423447 210.794922 199.476563 C 210.794922 200.039276 210.031982 200.039063 209.78125 200.039063 L 191.599609 200.039063 C 191.299255 200.039063 191.107422 199.748703 191.107422 199.548828 C 191.107422 199.343552 191.386871 199.066406 191.671875 199.066406 L 191.824219 199.066406 C 193.674927 199.066406 195.381363 197.669525 197.039063 194.792969 C 198.694977 191.752563 201.779648 186.088669 204.886719 178.072266 L 213.210938 156.679688 C 210.164322 149.366348 208.967621 148.548828 205.921875 148.548828 L 205.767578 148.548828 C 205.543884 148.548828 205.370697 148.514786 205.248047 148.447266 C 205.122681 148.377045 205.052734 148.27179 205.052734 148.148438 C 205.052734 147.887344 205.357986 147.648438 205.695313 147.648438 C 206.961578 147.648438 209.472519 147.672501 211.488281 147.691406 C 212.965607 147.705811 214.23204 147.716797 214.699219 147.716797 C 215.167297 147.716797 216.799637 147.705811 218.697266 147.691406 C 221.280319 147.672501 224.495895 147.648438 225.755859 147.648438 C 226.091354 147.648438 226.292969 147.887604 226.292969 148.117188 C 226.292969 148.236023 226.241486 148.34549 226.150391 148.423828 C 226.053894 148.506653 225.918198 148.548828 225.755859 148.548828 L 224.636719 148.548828 C 222.872604 148.548828 221.902069 149.23584 221.828125 150.533203 C 221.828125 151.582977 222.284042 153.350937 223.580078 156.964844 L 236.275391 188.203125 L 250.392578 156.417969 C 247.078079 148.742889 245.841385 148.736328 242.839844 148.736328 L 242.685547 148.736328 C 242.461853 148.736328 242.286743 148.702286 242.164063 148.634766 C 242.038712 148.564545 241.970703 148.459274 241.970703 148.335938 C 241.970703 148.074829 242.27597 147.835938 242.613281 147.835938 C 243.879578 147.835938 246.388535 147.860001 248.404297 147.878906 C 249.881622 147.893311 251.149994 147.904297 251.617188 147.904297 C 252.085281 147.904297 253.717621 147.893311 255.615234 147.878906 C 258.198242 147.860001 261.413849 147.835938 262.673828 147.835938 C 263.009338 147.835938 263.208984 148.075104 263.208984 148.304688 C 263.208984 148.423538 263.159485 148.53299 263.068359 148.611328 C 262.971863 148.694153 262.836182 148.736328 262.673828 148.736328 L 261.554688 148.736328 C 259.790527 148.736328 258.820038 149.421387 258.746094 150.71875 C 258.746094 151.228333 258.881592 151.908051 259.173828 152.875 L 271.554688 184.433594 C 277.28183 198.950256 278.08136 199.050781 281.71875 199.050781 C 281.743988 199.050781 282.380981 199.050781 282.40625 199.050781 C 282.601959 199.050781 282.758209 199.094452 282.869141 199.183594 C 282.97467 199.268219 283.033203 199.386139 283.033203 199.517578 C 283.033203 199.759766 282.821228 200.021484 282.478516 200.021484 L 262.113281 200.021484 C 261.954559 200.021484 261.821259 199.976013 261.726563 199.888672 C 261.639099 199.806747 261.591797 199.694702 261.591797 199.572266 C 261.591797 199.319275 261.802094 199.050781 262.195313 199.050781 L 263.611328 199.050781 C 264.807251 199.050781 265.469482 198.969254 265.773438 198.525391 C 266.513885 197.442291 265.129181 193.912491 261.427734 184.484375 L 261.234375 183.994141 L 251.728516 159.9375 C 251.463364 159.272171 251.30957 158.955078 251.15625 158.955078 C 251.118378 158.955078 251.002518 159.021637 250.738281 159.634766 L 232.287109 200.076172 L 232.212891 200.072266 L 232.203125 200.09375 L 231.113281 200.097656 Z M 386.560547 200.082031 C 386.19165 200.082031 385.998047 199.856094 385.998047 199.632813 C 385.998047 199.409531 386.19165 199.183594 386.560547 199.183594 L 387.757813 199.183594 C 391.827209 199.183594 392.136719 198.752075 392.136719 180.615234 L 392.136719 178.333984 L 384.064453 161.984375 C 378.56192 151.343536 376.572845 149.046875 372.863281 149.046875 L 372.263672 149.046875 C 371.799225 149.046875 371.626953 148.748718 371.626953 148.560547 C 371.626953 148.260742 371.842224 148.074219 372.189453 148.074219 L 394.419922 148.074219 C 394.810455 148.074219 395.019531 148.343628 395.019531 148.595703 C 395.019531 148.719055 394.972137 148.832138 394.882813 148.914063 C 394.787231 149.001404 394.653809 149.046875 394.494141 149.046875 L 391.875 149.046875 C 390.724152 149.046875 390.051666 149.264252 389.755859 149.732422 C 389.009064 150.916351 390.48465 153.994873 393.166016 159.583984 C 393.564667 160.415894 393.991669 161.30632 394.445313 162.259766 L 401.232422 176.330078 L 407.642578 163.529297 C 409.660156 159.062012 411.69458 153.154053 409.916016 150.40625 C 409.268433 149.404205 408.134064 148.896484 406.544922 148.896484 C 406.195892 148.896484 405.468292 148.920547 404.884766 148.939453 C 404.462708 148.953857 404.102966 148.966797 403.978516 148.966797 C 403.781921 148.966797 403.653748 148.95047 403.576172 148.873047 C 403.502258 148.79921 403.501953 148.699234 403.501953 148.583984 C 403.501953 148.225662 403.628082 148.074219 404.373047 148.074219 L 422.337891 148.074219 C 422.543549 148.074219 422.667908 148.150024 422.738281 148.214844 C 422.825775 148.299469 422.875 148.416931 422.875 148.542969 C 422.875 148.787857 422.687073 149.046875 422.339844 149.046875 L 422.191406 149.046875 C 418.410614 149.046875 412.723541 156.698303 408.664063 163.859375 L 401.794922 177.585938 L 401.794922 180.615234 C 401.794922 198.751175 402.101563 199.183594 406.171875 199.183594 L 407.445313 199.183594 C 407.814209 199.183594 408.005859 199.409531 408.005859 199.632813 C 408.005859 199.856094 407.814209 200.082031 407.445313 200.082031 L 386.560547 200.082031 Z M 293.257813 200.080078 C 292.888916 200.080078 292.697266 199.854126 292.697266 199.630859 C 292.697266 199.407562 292.888916 199.181641 293.257813 199.181641 L 294.978516 199.181641 C 298.460785 199.181641 298.908203 199.180481 298.908203 180.613281 L 298.908203 167.539063 C 298.908203 148.971863 298.460785 148.970703 294.978516 148.970703 L 293.257813 148.970703 C 292.888916 148.970703 292.697266 148.744766 292.697266 148.521484 C 292.697266 148.298203 292.888916 148.072266 293.257813 148.072266 C 294.486206 148.072266 296.934387 148.094376 298.902344 148.113281 C 300.317413 148.1259 301.525177 148.138672 301.958984 148.138672 C 302.434296 148.138672 304.310028 148.126801 306.474609 148.113281 C 309.501404 148.094376 312.932251 148.072266 314.142578 148.072266 C 314.511475 148.072266 314.703125 148.298203 314.703125 148.521484 C 314.703125 148.744766 314.511475 148.970703 314.142578 148.970703 L 312.421875 148.970703 C 308.940491 148.970703 308.493073 148.971863 308.492188 167.539063 L 308.492188 180.613281 C 308.492188 199.180481 308.938538 199.181641 312.419922 199.181641 L 314.140625 199.181641 C 314.509521 199.181641 314.703125 199.407562 314.703125 199.630859 C 314.703125 199.854126 314.509521 200.080078 314.140625 200.080078 C 312.931183 200.080078 309.490875 200.052704 306.455078 200.029297 C 304.282379 200.012192 302.400177 199.998047 301.925781 199.998047 C 301.491943 199.998047 300.291565 200.013092 298.882813 200.029297 C 296.923859 200.052704 294.485321 200.080078 293.257813 200.080078 Z M 80.515625 200.064453 C 80.147644 200.064453 79.955078 199.837616 79.955078 199.615234 C 79.955078 199.391953 80.147644 199.166016 80.515625 199.166016 L 81.189453 199.166016 C 84.492226 199.166016 85.107384 198.70076 85.189453 186.150391 C 85.229141 184.675659 85.184822 176.150055 85.140625 170.599609 C 85.125298 168.673828 85.113281 167.139191 85.113281 166.453125 C 85.113281 149.789154 84.726425 149.230469 81.185547 149.230469 L 80.287109 149.230469 C 79.919121 149.230469 79.724609 149.003632 79.724609 148.78125 C 79.724609 148.557968 79.919121 148.332031 80.287109 148.332031 L 112.544922 148.332031 C 116.285126 148.200577 119.750954 147.900452 119.939453 147.232422 C 119.939453 147.232422 120.237366 147.118973 120.285156 147.232422 C 121.948273 151.13974 124.028732 159.145035 124.246094 160.638672 C 124.246094 160.638672 124.246162 160.683594 124.105469 160.683594 C 123.953049 160.683594 123.929688 160.626953 123.929688 160.626953 C 121.782249 157.286743 119.183746 149.911972 103.060547 149.679688 L 94.988281 149.679688 C 94.69606 150.583618 94.695313 152.878494 94.695313 157.923828 L 94.695313 169.990234 L 98.101563 169.990234 C 108.482414 169.990234 109.814453 164.978882 109.814453 160.613281 L 109.814453 159.566406 C 109.814453 158.830841 110.863281 158.829041 110.863281 159.566406 C 110.773094 161.95137 110.564453 167.809708 110.564453 170.775391 C 110.564453 173.149536 110.711754 178.881561 110.863281 182.349609 C 110.863281 183.023956 109.814453 183.017212 109.814453 182.355469 L 109.814453 181.458984 C 109.814453 174.349182 106.092369 171.037109 98.101563 171.037109 L 94.695313 171.037109 L 94.695313 174.919922 L 94.701172 174.919922 L 94.701172 182.765625 C 94.701172 198.633698 95.186966 199.166016 99.603516 199.166016 L 102.222656 199.166016 C 102.591545 199.166016 102.785156 199.391953 102.785156 199.615234 C 102.785156 199.837616 102.591545 200.064453 102.222656 200.064453 C 101.730217 200.064453 97.681961 200.037231 94.429688 200.015625 C 92.234459 200.002121 90.396713 199.988281 90.246094 199.988281 C 90.054893 199.988281 88.420441 200.001373 86.539063 200.017578 C 83.937965 200.039185 80.989128 200.064453 80.515625 200.064453 Z M 139.734375 180.652344 L 150.148438 180.652344 L 158.974609 180.578125 L 148.861328 155.894531 L 139.734375 180.652344 Z M 196.03125 128.642578 C 184.155991 128.642578 177.878906 121.858673 177.878906 109.027344 L 177.878906 95.353516 C 177.878906 90.143341 177.995163 86.406631 178.078125 83.677734 C 178.207108 79.489426 178.259003 77.754501 177.671875 77.150391 C 177.335449 76.804672 176.751831 76.787109 175.830078 76.787109 L 174.931641 76.787109 C 174.598846 76.787109 174.425781 76.561157 174.425781 76.337891 C 174.425781 76.114594 174.599747 75.888672 174.931641 75.888672 C 176.142914 75.888672 178.774063 75.960571 181.09375 76.025391 C 182.755066 76.072205 184.189529 76.113281 184.662109 76.113281 C 185.095047 76.113281 186.603668 76.07431 188.351563 76.029297 C 190.795715 75.966278 193.837128 75.888672 195.066406 75.888672 C 195.434387 75.888672 195.626953 76.114609 195.626953 76.337891 C 195.626953 76.561172 195.434387 76.787109 195.066406 76.787109 L 193.644531 76.787109 C 189.632843 76.787109 187.53595 77.61377 187.462891 95.355469 L 187.462891 106.935547 C 187.462891 118.066162 192.335632 123.710938 201.945313 123.710938 C 209.605988 123.710938 214.556641 117.771393 214.556641 108.580078 L 214.556641 95.355469 C 214.556641 87.601974 213.485657 82.451859 211.283203 79.611328 C 209.359436 77.130035 206.876984 76.787109 204.482422 76.787109 L 203.285156 76.787109 C 202.91629 76.787109 202.724609 76.561172 202.724609 76.337891 C 202.724609 76.114624 202.91629 75.888672 203.285156 75.888672 C 204.550537 75.888672 207.33252 75.967163 209.568359 76.029297 C 211.207123 76.075226 212.622818 76.113281 213.091797 76.113281 C 213.563492 76.113281 214.288315 76.073273 215.128906 76.027344 C 216.306793 75.96344 217.641495 75.888672 218.855469 75.888672 C 219.187347 75.888672 219.359375 76.112656 219.359375 76.335938 C 219.359375 76.559219 219.185425 76.785156 218.853516 76.785156 L 218.554688 76.785156 C 217.674438 76.785156 217.046768 76.870255 216.632813 77.287109 C 215.704742 78.221649 215.726837 80.829559 215.789063 87.800781 C 215.807999 89.954361 215.830078 92.39505 215.830078 95.353516 L 215.830078 108.804688 C 215.830078 114.053589 213.987885 118.946518 210.644531 122.582031 C 206.997223 126.547073 201.945053 128.642578 196.03125 128.642578 Z M 137.060547 128.462891 C 122.281128 128.462891 110.683594 118.533829 110.683594 102.650391 C 110.683594 86.757034 122.442368 76.412354 137.164063 75.412109 C 138.442062 75.284256 139.741211 75.212891 141.0625 75.212891 C 147.332535 75.212891 152.560806 75.937836 157.046875 77.429688 C 157.523987 77.615143 157.972565 77.46373 158.431641 77.277344 C 158.85643 77.104492 159.079865 77.067703 159.207031 77.140625 C 159.259338 77.17215 159.293732 77.223938 159.302734 77.285156 C 159.376694 77.828049 159.479599 78.942169 159.705078 81.384766 C 159.909805 83.60408 160.218491 86.93158 160.699219 91.958984 C 160.737091 92.10936 160.65004 92.2603 160.46875 92.335938 C 160.301895 92.405258 160.084457 92.403687 160.007813 92.28125 C 157.700729 87.388885 153.678009 80.910767 147.582031 77.769531 C 143.94104 75.892349 141.246872 76.107559 141.220703 76.109375 C 140.578552 76.109375 139.95285 76.143555 139.335938 76.201172 C 131.282028 77.275253 123.181641 86.31424 123.181641 99.388672 C 123.181641 115.366638 133.672516 122.720764 143.730469 122.882813 C 152.370621 123.022354 158.962814 118.082199 163.787109 112.029297 L 164.458984 112.390625 C 158.607422 120.617691 150.316635 128.462891 137.060547 128.462891 Z M 276.1875 128.021484 C 274.730957 128.021484 274.586365 127.812592 273.470703 126.1875 C 273.211853 125.811172 272.898956 125.354797 272.503906 124.804688 L 238.785156 82.376953 L 238.785156 105.667969 C 238.785156 123.431274 241.918686 126.998047 246.976563 126.998047 L 248.025391 126.998047 C 248.358185 126.998047 248.53125 127.223984 248.53125 127.447266 C 248.53125 127.670547 248.357269 127.896484 248.025391 127.896484 L 231.408203 127.896484 C 231.113297 127.896484 230.958984 127.670547 230.958984 127.447266 C 230.958984 127.223984 231.113297 126.998047 231.408203 126.998047 L 231.78125 126.998047 C 235.573776 126.998047 237.526413 119.820786 237.585938 105.666016 L 237.585938 82.578125 C 237.585938 81.533737 236.976715 80.372223 235.822266 79.220703 C 234.087906 77.561417 232.374786 76.787109 230.4375 76.787109 L 229.765625 76.787109 C 229.466202 76.787109 229.287109 76.550812 229.287109 76.320313 C 229.287109 76.205078 229.329727 76.096954 229.408203 76.019531 C 229.469543 75.960114 229.580734 75.890625 229.765625 75.890625 C 235.948181 75.890625 242.132645 75.931213 244.773438 75.949219 C 245.440826 75.95372 245.861435 75.955078 245.96875 75.955078 C 246.413391 75.955078 246.7267 76.247253 247.035156 76.572266 C 247.615082 77.242111 247.953583 77.642273 248.253906 77.996094 C 248.748138 78.578629 249.139145 79.038315 250.3125 80.367188 L 276.123047 113.259766 L 276.136719 96.251953 C 276.136719 78.291489 271.056976 76.787109 266.294922 76.787109 L 266.148438 76.787109 C 265.779572 76.787109 265.585938 76.561188 265.585938 76.337891 C 265.585938 76.114624 265.779572 75.888672 266.148438 75.888672 C 267.412018 75.888672 270.442871 75.911667 272.878906 75.929688 C 274.670105 75.943176 276.211731 75.955078 276.681641 75.955078 C 277.110046 75.955078 278.044647 75.943207 279.150391 75.929688 C 280.725098 75.911697 282.685181 75.888672 283.966797 75.888672 C 284.298676 75.888672 284.470703 76.114624 284.470703 76.337891 C 284.470703 76.561188 284.296753 76.787109 283.964844 76.787109 L 283.740234 76.787109 C 281.035431 76.787109 277.333984 76.787949 277.333984 96.251953 L 277.363281 128.021484 L 276.1875 128.021484 Z M 291.597656 128.007813 L 291.597656 127.894531 C 291.22879 127.894531 291.037109 127.613083 291.037109 127.333984 C 291.037109 127.098099 291.33252 126.923828 291.597656 126.923828 L 291.822266 126.923828 C 293.59903 126.923828 295.325409 125.521652 296.814453 122.871094 C 298.829346 119.412033 300.811707 114.900986 303.244141 108.242188 L 315.296875 76.335938 C 315.470032 75.902893 315.827271 75.664063 316.300781 75.664063 L 319.667969 75.664063 C 320.351624 75.664063 320.642639 75.815903 320.820313 76.259766 L 333.84375 108.388672 C 341.091461 126.173569 342.493011 126.923828 344.96875 126.923828 L 345.341797 126.923828 C 345.806274 126.923828 345.979431 127.221085 345.978516 127.410156 C 345.978516 127.709961 345.763245 127.896484 345.416016 127.896484 L 325.207031 127.896484 C 324.794861 127.896484 324.515625 127.6185 324.515625 127.357422 C 324.515625 127.252975 324.561584 127.159607 324.644531 127.095703 C 324.726593 127.031784 324.84079 126.998047 324.982422 126.998047 L 326.552734 126.998047 C 327.799194 126.998047 328.653809 126.877701 329.060547 126.275391 C 329.985016 124.907806 328.838928 120.952286 324.15625 109.365234 L 314.980469 109.367188 C 311.755249 109.367188 306.38443 109.367706 304.173828 109.292969 L 303.902344 109.966797 C 302.343872 114.083984 301.451599 118.370377 301.515625 121.429688 C 301.515625 124.969772 303.413269 126.998047 306.71875 126.998047 C 307.395203 126.998047 308.123077 126.905426 308.654297 126.837891 C 308.944733 126.80098 309.151825 126.773438 309.263672 126.773438 C 309.816528 126.773438 309.900391 127.077911 309.900391 127.259766 C 309.900391 127.497467 309.769989 127.894531 308.890625 127.894531 L 308.890625 128.007813 L 291.597656 128.007813 Z M 360.169922 127.896484 C 359.801056 127.896484 359.607422 127.670547 359.607422 127.447266 C 359.607422 127.223984 359.801056 126.998047 360.169922 126.998047 L 361.517578 126.998047 C 364.998932 126.998047 365.445313 126.996948 365.445313 108.429688 L 365.445313 77.417969 C 353.808929 78.84227 351.251099 85.143799 349.365234 88.076172 C 349.365234 88.076172 349.344879 88.132813 349.193359 88.132813 C 349.052643 88.132813 349.050781 88.087891 349.050781 88.087891 C 349.267242 86.595154 351.347687 78.588135 353.011719 74.681641 C 353.060425 74.567291 353.359375 74.681641 353.359375 74.681641 C 353.541565 75.325378 356.879547 75.627899 360.591797 75.765625 C 361.230377 75.774643 361.940887 75.787125 362.689453 75.798828 C 363.84845 75.817734 365.069427 75.837296 366.238281 75.853516 L 370.728516 75.853516 C 370.786224 75.853516 370.83139 75.851563 370.847656 75.851563 C 370.863861 75.851563 370.906036 75.8526 370.962891 75.853516 L 373.09375 75.853516 C 373.30661 75.848114 373.517273 75.843307 373.738281 75.837891 C 375.400452 75.798279 377.443451 75.74939 381.349609 75.742188 C 384.678528 75.592728 387.553284 75.288452 387.724609 74.681641 C 387.724609 74.681641 388.022522 74.567322 388.070313 74.681641 C 389.734344 78.588165 391.814819 86.5923 392.03125 88.085938 C 392.03125 88.085938 392.031311 88.132813 391.890625 88.132813 C 391.739136 88.132813 391.716797 88.076172 391.716797 88.076172 C 389.769562 85.049286 387.453094 78.704498 375.029297 77.371094 L 375.029297 108.429688 C 375.029297 126.996948 375.560699 126.998047 379.03125 126.998047 L 380.378906 126.998047 C 380.747772 126.998047 380.941406 127.223984 380.941406 127.447266 C 380.941406 127.670547 380.747772 127.896484 380.378906 127.896484 L 360.169922 127.896484 Z M 304.484375 108.466797 L 314.898438 108.466797 L 323.722656 108.392578 L 313.611328 83.708984 L 304.484375 108.466797 Z M 282.570313 56.773438 C 282.470978 56.767853 282.353516 56.722656 282.353516 56.722656 C 282.18396 56.120346 279.347992 55.81546 276.048828 55.666016 C 274.319885 55.705612 272.034027 55.710938 269.259766 55.710938 C 264.079224 55.710938 252.60672 55.488113 252.492188 55.486328 L 239.021484 55.710938 C 238.633682 55.710938 238.457031 55.496902 238.457031 55.298828 C 238.457031 55.100754 238.63353 54.888672 239.019531 54.888672 C 243.227814 54.888672 243.698212 54.451462 243.921875 41.400391 C 244.045441 39.738388 244.016373 29.271423 244.001953 24.242188 C 243.999237 23.141098 243.996094 22.288788 243.996094 21.824219 C 243.996094 5.160217 243.609238 4.601563 240.068359 4.601563 L 239.169922 4.601563 C 238.801956 4.601563 238.609375 4.37561 238.609375 4.152344 C 238.609375 3.929047 238.801956 3.703125 239.169922 3.703125 L 271.433594 3.703125 C 275.172913 3.572571 278.633759 3.273499 278.822266 2.605469 C 278.822266 2.605469 279.121216 2.491119 279.169922 2.605469 C 280.833038 6.511993 282.912445 14.516113 283.128906 16.009766 C 283.128906 16.009766 283.128967 16.056641 282.988281 16.056641 C 282.835846 16.056641 282.814453 16 282.814453 16 C 280.666107 12.65979 278.068542 5.283051 261.945313 5.050781 L 253.871094 5.050781 C 253.578873 5.954712 253.578125 8.249512 253.578125 13.294922 L 253.578125 25.363281 L 256.984375 25.363281 C 267.365326 25.363281 268.697266 20.35202 268.697266 15.986328 L 268.697266 14.939453 C 268.697266 14.201172 269.746094 14.203857 269.746094 14.939453 C 269.655884 17.324402 269.447266 23.18277 269.447266 26.148438 C 269.447266 28.522614 269.594543 34.256577 269.746094 37.724609 C 269.746094 38.396271 268.697266 38.392044 268.697266 37.728516 L 268.697266 36.832031 C 268.697266 29.721237 264.975281 26.410156 256.984375 26.410156 L 253.578125 26.410156 L 253.578125 40.269531 C 253.578125 43.813202 253.534164 51.864334 253.144531 54.275391 L 264.574219 54.275391 C 280.698364 54.043106 284.197388 46.668335 286.345703 43.328125 C 286.345703 43.328125 286.367096 43.269531 286.519531 43.269531 C 286.661102 43.269531 286.661041 43.316406 286.660156 43.316406 C 286.443695 44.810043 284.364288 52.816162 282.701172 56.722656 C 282.682922 56.765533 282.629913 56.776794 282.570313 56.773438 Z M 128.300781 55.824219 L 128.300781 55.710938 C 127.9319 55.710938 127.740234 55.429489 127.740234 55.150391 C 127.740234 54.91452 128.035614 54.738281 128.300781 54.738281 L 128.525391 54.738281 C 130.302139 54.738281 132.028534 53.338074 133.517578 50.6875 C 135.53244 47.228455 137.514832 42.717392 139.947266 36.058594 L 151.998047 4.150391 C 152.171204 3.717346 152.528458 3.480469 153.001953 3.480469 L 156.371094 3.480469 C 157.054749 3.480469 157.345764 3.630341 157.523438 4.074219 L 170.546875 36.203125 C 177.794601 53.988129 179.194199 54.738281 181.669922 54.738281 L 182.044922 54.738281 C 182.509384 54.738281 182.682526 55.037506 182.681641 55.226563 C 182.681641 55.526382 182.46637 55.712891 182.119141 55.712891 L 161.908203 55.712891 C 161.496033 55.712891 161.21875 55.432968 161.21875 55.171875 C 161.21875 55.067444 161.264679 54.97406 161.347656 54.910156 C 161.429733 54.846222 161.541992 54.814453 161.683594 54.814453 L 163.255859 54.814453 C 164.502289 54.814453 165.356918 54.692154 165.763672 54.089844 C 166.688126 52.72226 165.542068 48.768799 160.859375 37.181641 L 151.683594 37.183594 C 148.458389 37.183594 143.085571 37.184113 140.875 37.109375 L 140.605469 37.783203 C 139.046967 41.900391 138.154709 46.184814 138.21875 49.244141 C 138.21875 52.78421 140.116379 54.814453 143.421875 54.814453 C 144.098297 54.814453 144.824234 54.719864 145.355469 54.652344 C 145.645889 54.615417 145.854965 54.589844 145.966797 54.589844 C 146.519669 54.589844 146.603516 54.894302 146.603516 55.076172 C 146.603516 55.313858 146.471161 55.710938 145.591797 55.710938 L 145.591797 55.824219 L 128.300781 55.824219 Z M 418.957031 55.824219 L 418.957031 55.710938 C 418.588135 55.710938 418.396484 55.429489 418.396484 55.150391 C 418.396484 54.91452 418.691864 54.738281 418.957031 54.738281 L 419.181641 54.738281 C 420.958374 54.738281 422.684784 53.338074 424.173828 50.6875 C 426.18866 47.228455 428.171082 42.717392 430.603516 36.058594 L 442.65625 4.150391 C 442.829407 3.717346 443.186676 3.480469 443.660156 3.480469 L 447.027344 3.480469 C 447.710968 3.480469 448.002014 3.630341 448.179688 4.074219 L 461.203125 36.203125 C 468.450867 53.988068 469.852386 54.738281 472.328125 54.738281 L 472.701172 54.738281 C 473.165649 54.738281 473.338806 55.037506 473.337891 55.226563 C 473.337891 55.526382 473.12262 55.712891 472.775391 55.712891 L 452.566406 55.712891 C 452.154205 55.712891 451.875 55.432968 451.875 55.171875 C 451.875 55.067444 451.920929 54.97406 452.003906 54.910156 C 452.085999 54.846222 452.200195 54.814453 452.341797 54.814453 L 453.912109 54.814453 C 455.158539 54.814453 456.013123 54.692154 456.419922 54.089844 C 457.344391 52.72226 456.198303 48.768738 451.515625 37.181641 L 442.339844 37.183594 C 439.114624 37.183594 433.743774 37.184113 431.533203 37.109375 L 431.261719 37.783203 C 429.703247 41.900391 428.811005 46.184814 428.875 49.244141 C 428.875 52.78421 430.772675 54.814453 434.078125 54.814453 C 434.754578 54.814453 435.482422 54.719864 436.013672 54.652344 C 436.304077 54.615417 436.5112 54.589844 436.623047 54.589844 C 437.175934 54.589844 437.259766 54.894302 437.259766 55.076172 C 437.259766 55.313858 437.129364 55.710938 436.25 55.710938 L 436.25 55.824219 L 418.957031 55.824219 Z M 67.982422 55.728516 L 67.8125 55.712891 L 67.787109 55.650391 L 53.130859 20.041016 C 53.12545 20.027496 53.120647 20.013519 53.115234 20 L 51.191406 15.328125 C 50.925343 14.661865 50.772465 14.345703 50.619141 14.345703 C 50.571342 14.345703 50.45356 14.434784 50.199219 15.025391 L 42.867188 34.080078 C 41.006557 38.928314 39.287109 43.999573 39.287109 48.238281 C 39.287109 52.311371 41.307232 54.841797 44.558594 54.841797 C 45.186321 54.841797 45.586994 54.850067 45.871094 54.855469 C 46.134453 54.860886 46.2673 54.863419 46.523438 54.853516 C 47.063683 54.833694 47.459213 54.830093 47.603516 54.96875 C 47.6441 55.006561 47.664063 55.054306 47.664063 55.107422 C 47.664063 55.67012 46.901127 55.669922 46.650391 55.669922 L 28.46875 55.669922 C 28.168415 55.669922 27.976563 55.379547 27.976563 55.179688 C 27.976563 54.974396 28.256014 54.699219 28.541016 54.699219 L 28.693359 54.699219 C 30.544069 54.699219 32.2505 53.300369 33.908203 50.423828 C 35.564102 47.383438 38.648796 41.71962 41.755859 33.703125 L 50.078125 12.3125 C 47.03149 4.999176 45.836742 4.181641 42.791016 4.181641 L 42.636719 4.181641 C 42.413044 4.181641 42.237892 4.147614 42.115234 4.080078 C 41.989864 4.009857 41.921875 3.904602 41.921875 3.78125 C 41.921875 3.520172 42.227142 3.28125 42.564453 3.28125 C 43.83073 3.28125 46.339714 3.303375 48.355469 3.322266 C 49.83279 3.33667 51.10117 3.349609 51.568359 3.349609 C 52.036446 3.349609 53.6688 3.33667 55.566406 3.322266 C 58.149464 3.303375 61.365036 3.28125 62.625 3.28125 C 62.96051 3.28125 63.160156 3.518463 63.160156 3.748047 C 63.160156 3.866882 63.110622 3.976379 63.019531 4.054688 C 62.923027 4.137543 62.787342 4.181641 62.625 4.181641 L 61.505859 4.181641 C 59.741734 4.181641 58.771217 4.866669 58.697266 6.164063 C 58.697266 7.213837 59.153179 8.981781 60.449219 12.595703 L 73.144531 43.833984 L 87.261719 12.050781 C 83.947212 4.375519 82.710526 4.369141 79.708984 4.369141 L 79.554688 4.369141 C 79.331009 4.369141 79.155861 4.33313 79.033203 4.265625 C 78.907837 4.195404 78.837891 4.090149 78.837891 3.966797 C 78.837891 3.705688 79.145111 3.46875 79.482422 3.46875 C 80.748695 3.46875 83.257675 3.490845 85.273438 3.509766 C 86.750763 3.52417 88.019142 3.537109 88.486328 3.537109 C 88.954422 3.537109 90.586769 3.52417 92.484375 3.509766 C 95.067429 3.490845 98.283005 3.46875 99.542969 3.46875 C 99.878471 3.46875 100.078125 3.705933 100.078125 3.935547 C 100.078125 4.054352 100.028595 4.163849 99.9375 4.242188 C 99.840996 4.325012 99.705307 4.369141 99.542969 4.369141 L 98.423828 4.369141 C 96.659698 4.369141 95.687241 5.054169 95.613281 6.351563 C 95.613281 6.861115 95.748802 7.540833 96.041016 8.507813 L 108.423828 40.064453 C 114.150925 54.581299 114.9505 54.681641 118.587891 54.681641 C 118.613136 54.681641 119.250137 54.681641 119.275391 54.681641 C 119.4711 54.681641 119.62735 54.725311 119.738281 54.814453 C 119.843811 54.899078 119.902344 55.016983 119.902344 55.148438 C 119.902344 55.39061 119.690384 55.654297 119.347656 55.654297 L 98.982422 55.654297 C 98.823685 55.654297 98.690414 55.606873 98.595703 55.519531 C 98.508224 55.437607 98.458984 55.325592 98.458984 55.203125 C 98.458984 54.950134 98.671211 54.681641 99.064453 54.681641 L 100.480469 54.681641 C 101.676399 54.681641 102.338638 54.600128 102.642578 54.15625 C 103.383041 53.073151 101.998299 49.545395 98.296875 40.117188 L 98.103516 39.625 L 88.597656 15.568359 C 88.332497 14.903015 88.178711 14.587891 88.025391 14.587891 C 87.987511 14.587891 87.869728 14.652496 87.605469 15.265625 L 69.15625 55.707031 L 69.082031 55.703125 L 69.072266 55.724609 L 67.982422 55.728516 Z M 196.873047 55.712891 C 196.504166 55.712891 196.310547 55.486954 196.310547 55.263672 C 196.310547 55.04039 196.504166 54.814453 196.873047 54.814453 L 198.220703 54.814453 C 201.702042 54.814453 202.148438 54.813461 202.148438 36.246094 L 202.148438 5.234375 C 190.512085 6.658691 187.954254 12.960236 186.068359 15.892578 C 186.068359 15.892578 186.046051 15.949219 185.894531 15.949219 C 185.75383 15.949219 185.753906 15.902344 185.753906 15.902344 C 185.970367 14.409576 188.050812 6.404572 189.714844 2.498047 C 189.763535 2.383698 190.0625 2.498047 190.0625 2.498047 C 190.244675 3.141785 193.582672 3.444275 197.294922 3.582031 C 197.933456 3.591034 198.643997 3.603546 199.392578 3.615234 C 200.551529 3.634155 201.772552 3.651764 202.941406 3.667969 L 207.431641 3.667969 C 207.489365 3.667969 207.534561 3.667969 207.550781 3.667969 C 207.567017 3.667969 207.609192 3.667084 207.666016 3.667969 L 209.794922 3.667969 C 210.007767 3.662567 210.220428 3.659698 210.441406 3.654297 C 212.103622 3.614685 214.146591 3.563843 218.052734 3.556641 C 221.381683 3.407196 224.256363 3.104889 224.427734 2.498047 C 224.427734 2.498047 224.725616 2.381744 224.773438 2.496094 C 226.437439 6.402618 228.517899 14.408691 228.734375 15.902344 C 228.734375 15.902344 228.734451 15.949219 228.59375 15.949219 C 228.44223 15.949219 228.419922 15.890625 228.419922 15.890625 C 226.472702 12.863739 224.154175 6.520874 211.730469 5.1875 L 211.730469 36.246094 C 211.730469 54.813461 212.26384 54.814453 215.734375 54.814453 L 217.082031 54.814453 C 217.450928 54.814453 217.644531 55.04039 217.644531 55.263672 C 217.644531 55.486954 217.450928 55.712891 217.082031 55.712891 L 196.873047 55.712891 Z M 297.494141 55.597656 C 296.895294 55.597656 296.895294 54.925781 297.494141 54.925781 C 298.990417 54.925781 299.889435 54.924332 300.488281 54.849609 C 301.611176 54.027603 301.910217 52.161575 302.134766 46.78125 C 302.209625 43.792145 302.285156 39.235077 302.285156 33.257813 L 302.285156 21.824219 C 302.285156 5.236786 301.98642 4.490234 298.318359 4.490234 L 297.419922 4.490234 C 296.821075 4.490234 296.821075 3.816406 297.419922 3.816406 C 299.515045 3.816406 305.42984 3.966797 306.552734 3.966797 C 307.600739 3.966797 317.553558 3.816406 318.826172 3.816406 C 332.523407 3.816406 338.8125 8.150238 338.8125 15.771484 C 338.8125 22.12059 332.864777 26.231842 322.40625 27.943359 C 322.752594 27.97937 323.184814 28.021545 323.777344 28.056641 C 334.535278 28.694092 336.339844 36.132813 336.339844 36.132813 L 340.253906 46.576172 C 343.040802 54.318008 343.185272 54.796875 346.910156 54.796875 C 347.46933 54.796875 347.46933 55.471588 346.910156 55.470703 L 326.941406 55.470703 C 326.310089 55.470703 326.310089 54.794922 326.941406 54.794922 C 329.241272 54.794922 330.585938 54.173386 330.585938 51.769531 C 330.585938 50.608109 330.268829 49.04155 329.611328 46.925781 L 326.382813 36.716797 C 326.382813 36.716797 324.697266 28.661285 315.683594 28.847656 L 311.642578 28.847656 L 311.642578 36.246094 C 311.642578 54.62706 312.016449 54.925781 315.683594 54.925781 L 317.181641 54.925781 C 317.779602 54.925781 317.779602 55.597656 317.181641 55.597656 C 315.085602 55.597656 308.123291 55.449219 307.076172 55.449219 C 305.953308 55.449219 298.092987 55.597656 297.494141 55.597656 Z M 358.166016 55.597656 C 357.567139 55.597656 357.567139 54.925781 358.166016 54.925781 C 359.662262 54.925781 360.56131 54.924332 361.160156 54.849609 C 362.283051 54.027603 362.582062 52.161575 362.806641 46.78125 C 362.8815 43.792145 362.955078 39.235077 362.955078 33.257813 L 362.955078 21.824219 C 362.955078 5.236816 362.656342 4.490234 358.988281 4.490234 L 358.091797 4.490234 C 357.49295 4.490234 357.49295 3.816406 358.091797 3.816406 C 360.18692 3.816406 366.099792 3.966797 367.222656 3.966797 C 368.270691 3.966797 378.225464 3.816406 379.498047 3.816406 C 393.195313 3.816406 399.482422 8.150238 399.482422 15.771484 C 399.482422 22.12059 393.536621 26.231842 383.078125 27.943359 C 383.424469 27.97937 383.854736 28.021545 384.447266 28.056641 C 395.2052 28.694092 397.011719 36.132813 397.011719 36.132813 L 400.925781 46.576172 C 403.712677 54.317993 403.857147 54.796875 407.582031 54.796875 C 408.141235 54.796875 408.141235 55.471588 407.582031 55.470703 L 387.613281 55.470703 C 386.981964 55.470703 386.981964 54.794922 387.613281 54.794922 C 389.913177 54.794922 391.257813 54.173386 391.257813 51.769531 C 391.257813 50.608109 390.940704 49.04155 390.283203 46.925781 L 387.054688 36.716797 C 387.054688 36.716797 385.36908 28.661285 376.355469 28.847656 L 372.3125 28.847656 L 372.3125 36.246094 C 372.3125 54.627045 372.688293 54.925781 376.355469 54.925781 L 377.851563 54.925781 C 378.449524 54.925781 378.449524 55.597656 377.851563 55.597656 C 375.755554 55.597656 368.793182 55.449219 367.746094 55.449219 C 366.623169 55.449219 358.764862 55.597656 358.166016 55.597656 Z M 141.1875 36.283203 L 151.599609 36.283203 L 160.425781 36.208984 L 150.3125 11.525391 L 141.1875 36.283203 Z M 431.84375 36.283203 L 442.255859 36.283203 L 451.082031 36.208984 L 440.970703 11.525391 L 431.84375 36.283203 Z M 311.640625 28.025391 C 312.988068 27.950653 314.861023 27.951172 317.181641 27.951172 C 322.869049 27.951172 328.332031 24.365448 328.332031 15.996094 C 328.332031 8.225372 324.515564 4.490234 317.330078 4.490234 C 316.431793 4.490234 314.635284 4.489716 313.886719 4.564453 C 311.941284 4.564453 311.642578 5.087738 311.642578 12.708984 L 311.640625 12.708984 L 311.640625 28.025391 Z M 372.3125 28.025391 C 373.659943 27.950653 375.530975 27.951172 377.851563 27.951172 C 383.538971 27.951172 389.003906 24.365433 389.003906 15.996094 C 389.003906 8.225372 385.187439 4.490234 378.001953 4.490234 C 377.103638 4.490234 375.307159 4.489716 374.558594 4.564453 C 372.61319 4.564453 372.3125 5.087738 372.3125 12.708984 L 372.3125 28.025391 Z"/>
</svg>
