<svg xmlns="http://www.w3.org/2000/svg" viewBox="0 0 248.63 199.51"><defs><style>.cls-1{fill:#d33c96;stroke:#d33c96;stroke-miterlimit:10;stroke-width:0.44px;}.cls-2{fill:#d01b66;}.cls-3,.cls-4{fill:#f6851f;}.cls-4{font-size:17.7px;font-family:CenturyGothic, Century Gothic;letter-spacing:0.14em;}</style></defs><title>Artboard 5</title><g id="Art"><path class="cls-1" d="M51.56,71.19a18,18,0,0,1-14.72-6.88Q31.28,57.44,31.28,47a27.36,27.36,0,0,1,6.07-17.9q6.07-7.44,15.06-7.44a14.43,14.43,0,0,1,7.85,2.11,12.79,12.79,0,0,1,5,5.56V5.08H59.14V4.8h13V63.71A4.33,4.33,0,0,0,73.3,67a4,4,0,0,0,2.85,1.12A3.86,3.86,0,0,0,79,66.89a4.62,4.62,0,0,0,1.31-3.18h.28a8.82,8.82,0,0,1-2.25,5.05,7.17,7.17,0,0,1-5.79,2.43q-6.45,0-7.29-8.42A13.5,13.5,0,0,1,60,68.85,15.21,15.21,0,0,1,51.56,71.19Zm2-1.31A11.42,11.42,0,0,0,62,66.65a11.94,11.94,0,0,0,3.18-8.74V34.16a11.25,11.25,0,0,0-3.14-8.41A11,11,0,0,0,54,22.66q-7.11,0-11,6.59T39,46.5Q39,57,42.87,63.43T53.53,69.88Z"/><path class="cls-2" d="M95.51,22.85V70h5.79v.28H82.42V70h5.89V23.13H82.42v-.28ZM96.26,9.1a4.66,4.66,0,0,1-1.36,3.42,4.41,4.41,0,0,1-3.23,1.35,4.24,4.24,0,0,1-3.22-1.31A4.64,4.64,0,0,1,87.19,9.2,4.84,4.84,0,0,1,88.5,5.74a4.15,4.15,0,0,1,3.17-1.4A4.41,4.41,0,0,1,95,5.64,4.76,4.76,0,0,1,96.26,9.1Z"/><path class="cls-3" d="M112.52,29.86a4.68,4.68,0,0,1,3.28,1.31,4.53,4.53,0,0,1,1.4,3.46A4.67,4.67,0,0,1,115.84,38a4.75,4.75,0,0,1-3.6,1.41,4.39,4.39,0,0,1-3.41-1.5,5.49,5.49,0,0,1-1.36-3.83q0-4.68,4.3-8.51t11.32-3.83q8,0,12.62,4.95t4.58,13.18V63.71A4.47,4.47,0,0,0,141.41,67a3.81,3.81,0,0,0,2.81,1.12,4.06,4.06,0,0,0,3-1.21,5,5,0,0,0,1.4-3.18h.28a8.85,8.85,0,0,1-2.19,5.05A7,7,0,0,1,141,71.19q-7.2,0-7.85-9a15.34,15.34,0,0,1-5.57,6.27,15.84,15.84,0,0,1-9.11,2.71,13.48,13.48,0,0,1-8.89-3A10.22,10.22,0,0,1,106,59.87a10.78,10.78,0,0,1,2.9-7.85,17.35,17.35,0,0,1,7-4.39l8.23-2.81a17.1,17.1,0,0,0,7-4.44,11.12,11.12,0,0,0,2.9-8q0-10.19-12.34-10.19a13.41,13.41,0,0,0-8.93,2.95q-3.51,2.94-3.51,5a.42.42,0,0,0,.47.47,1.56,1.56,0,0,0,.47-.19,6,6,0,0,1,1-.37A4.61,4.61,0,0,1,112.52,29.86ZM133.09,59V38.56a13.75,13.75,0,0,1-4,4.16,41.79,41.79,0,0,1-5.14,3.08,49.48,49.48,0,0,0-5,2.85,12.1,12.1,0,0,0-3.92,4.21,12.63,12.63,0,0,0-1.5,6.36A9.18,9.18,0,0,0,116.08,66a9.06,9.06,0,0,0,6.73,2.53,10.15,10.15,0,0,0,7.43-2.81A9.1,9.1,0,0,0,133.09,59Z"/><path class="cls-2" d="M191.06,39.68v24A4.33,4.33,0,0,0,192.23,67a4,4,0,0,0,2.85,1.12,3.87,3.87,0,0,0,2.81-1.21,4.61,4.61,0,0,0,1.3-3.18h.28a8.74,8.74,0,0,1-2.24,5.05,7.17,7.17,0,0,1-5.8,2.43,6.64,6.64,0,0,1-5.65-2.71q-2-2.72-2-7.67V33q0-4.68-2.48-7.2a9.07,9.07,0,0,0-6.78-2.52,10.31,10.31,0,0,0-8.32,4,13.82,13.82,0,0,0-3.27,9V70h5.79v.28H149.83V70h5.89V23.13h-5.89v-.28h13.09v9a15.16,15.16,0,0,1,5.28-6.91,14.63,14.63,0,0,1,9.21-3q6.74,0,10.19,4.73T191.06,39.68Z"/><path class="cls-3" d="M225.37,70.72a14.34,14.34,0,0,0,9.17-3q3.74-2.94,3.74-5a.42.42,0,0,0-.47-.47,1.92,1.92,0,0,0-.47.19,6,6,0,0,1-1,.38,4.87,4.87,0,0,1-1.31.18,4.76,4.76,0,0,1-3.27-1.26,4.49,4.49,0,0,1-1.4-3.51,4.61,4.61,0,0,1,1.36-3.41,4.86,4.86,0,0,1,3.59-1.35A4.46,4.46,0,0,1,238.7,55a5.51,5.51,0,0,1,1.35,3.83q0,4.59-4.48,8.47T224,71.19a19.68,19.68,0,0,1-15.52-7.11,25.74,25.74,0,0,1-6.17-17.48,26.57,26.57,0,0,1,6.12-17.67,19.16,19.16,0,0,1,15.29-7.3q7.11,0,11.64,3.42a10.58,10.58,0,0,1,4.54,8.83,9.82,9.82,0,0,1-2.9,7.39,18,18,0,0,1-7.06,4.16c-2.78.9-5.56,1.77-8.37,2.62a18.27,18.27,0,0,0-7.11,3.88,8.76,8.76,0,0,0-2.89,6.82,11.09,11.09,0,0,0,3.78,8.51Q219.12,70.72,225.37,70.72Zm-1.68-48.81q-6.36,0-10,7.2t-3.65,18a40.68,40.68,0,0,0,.94,9.26,9.18,9.18,0,0,1,3.22-4.63,26.34,26.34,0,0,1,5.47-3.41c2-.94,4-2,5.89-3.09a14.74,14.74,0,0,0,4.82-4.48A11.72,11.72,0,0,0,232.29,34,15.11,15.11,0,0,0,230,25.28,7.25,7.25,0,0,0,223.69,21.91Z"/><path class="cls-3" d="M20.77,58.69v92.83a6.8,6.8,0,0,0,1.85,5.15,6.22,6.22,0,0,0,4.49,1.77,6.07,6.07,0,0,0,4.42-1.92,7.25,7.25,0,0,0,2.06-5H34a13.8,13.8,0,0,1-3.54,7.95q-3.24,3.84-9.14,3.83A10,10,0,0,1,12.6,159q-3-4.28-3-12.08V59.13H0v-.44Z"/><path class="cls-2" d="M98.28,95.35Q108,106.41,108,122.61T97.76,150.38Q87.52,161.95,73.23,162a30.94,30.94,0,0,1-24.31-11.13q-9.73-11.12-9.73-27.33t10.24-27.7Q59.68,84.3,74,84.3A31.05,31.05,0,0,1,98.28,95.35Zm-2.51,28q0-16.94-5.67-27.7T74,84.89q-11.06,0-16.8,10.46t-5.75,27.4q0,17,5.68,27.78t16.13,10.83q11.05,0,16.8-10.46T95.77,123.34Z"/><path class="cls-1" d="M161.78,86.36h-1v-.44H185.8v.44h-.59q-8.4,0-13.56,16.21l-21.36,58.05h-5.45L115.52,86.36h-8.25v-.44h29.91v.44h-9.73l25.49,65.42,18.12-49.36q2.81-6.48.52-11.27T161.78,86.36Z"/><path class="cls-1" d="M218.51,161.36A22.66,22.66,0,0,0,233,156.72q5.88-4.65,5.89-7.89a.65.65,0,0,0-.74-.73,2.66,2.66,0,0,0-.73.29,10.22,10.22,0,0,1-1.62.59,7.4,7.4,0,0,1-2.07.3,7.48,7.48,0,0,1-5.15-2,7,7,0,0,1-2.21-5.53,7.32,7.32,0,0,1,2.13-5.38,7.69,7.69,0,0,1,5.68-2.13,6.94,6.94,0,0,1,5.37,2.35,8.65,8.65,0,0,1,2.14,6q0,7.23-7.07,13.34t-18.27,6.11a31,31,0,0,1-24.46-11.19q-9.72-11.21-9.73-27.56t9.65-27.84Q201.42,84,215.85,84q11.21,0,18.35,5.38a16.68,16.68,0,0,1,7.14,13.93q0,7.22-4.56,11.63a28.34,28.34,0,0,1-11.13,6.56q-6.56,2.15-13.18,4.13a28.65,28.65,0,0,0-11.2,6.11,13.81,13.81,0,0,0-4.57,10.76,17.47,17.47,0,0,0,6,13.41Q208.64,161.35,218.51,161.36Zm-2.66-76.91q-10,0-15.76,11.34t-5.75,28.29a64.38,64.38,0,0,0,1.48,14.59,14.54,14.54,0,0,1,5.08-7.3,41.37,41.37,0,0,1,8.62-5.37q4.71-2.22,9.28-4.87a23.1,23.1,0,0,0,7.59-7.07,18.37,18.37,0,0,0,3-10.61q0-8.4-3.61-13.7A11.39,11.39,0,0,0,215.85,84.45Z"/><text class="cls-4" transform="translate(38.68 193.75)">SAN FRANCISCO</text></g></svg>