<?xml version="1.0" encoding="UTF-8"?> <svg xmlns="http://www.w3.org/2000/svg" width="121" height="43" viewBox="0 0 121 43" fill="none"><g clip-path="url(#clip0_106_257)"><mask id="mask0_106_257" style="mask-type:luminance" maskUnits="userSpaceOnUse" x="0" y="4" width="35" height="32"><path d="M5.92379 6.27173C5.21656 6.54236 5.06131 6.21732 4.72782 6.21732C4.23908 6.21732 4.12984 6.64689 4.12984 7.46307L4.45614 14.3935C4.45614 14.823 4.6732 14.8803 4.88738 14.8803C5.21368 14.8803 5.31862 14.7185 5.37612 14.4508C7.44175 7.73657 12.8222 6.81585 16.2462 6.81585C21.7905 6.81585 24.7273 9.63097 24.7273 13.583C24.7273 19.597 16.9003 24.6273 3.47435 31.8827C0.543362 33.4549 0 33.9976 0 34.5375C0 35.1331 1.08816 35.1331 3.80497 35.1331H28.4259C30.5993 35.1331 31.4158 34.7551 32.9381 30.4766L34.5193 26.1465C34.8456 25.2258 33.9213 25.0096 33.4857 25.9303C32.0181 29.3397 29.8446 31.3973 24.1911 31.3973H8.53423C17.1748 27.0672 32.6664 22.3563 32.6664 13.4771C32.6664 7.35998 25.2749 4.32721 16.9031 4.32721C13.1593 4.35272 9.44698 5.01021 5.92379 6.27173Z" fill="white"></path></mask><g mask="url(#mask0_106_257)"><path d="M0.0430194 3.11115L-1.08386 35.0959L34.7976 36.3503L35.9245 4.36555L0.0430194 3.11115Z" fill="url(#paint0_linear_106_257)"></path></g><mask id="mask1_106_257" style="mask-type:luminance" maskUnits="userSpaceOnUse" x="80" y="5" width="42" height="31"><path d="M88.3307 19.8948C88.3307 10.9211 94.4357 7.58907 100.765 7.58907C109.073 7.58907 113.368 13.3568 113.368 20.9201C113.368 29.8938 107.321 33.2903 100.99 33.2903C92.6834 33.2903 88.3307 27.4581 88.3307 19.8948ZM80.7007 20.7912C80.7007 30.3405 89.4606 35.4682 100.825 35.4682C115.125 35.4682 121.003 27.5841 121.003 19.8934C121.003 10.6004 112.413 5.34528 100.825 5.34528C86.6963 5.34528 80.7007 12.9071 80.7007 20.7912Z" fill="white"></path></mask><g mask="url(#mask1_106_257)"><path d="M80.7508 3.93997L79.6412 35.4324L120.95 36.8766L122.06 5.38411L80.7508 3.93997Z" fill="url(#paint1_linear_106_257)"></path></g><mask id="mask2_106_257" style="mask-type:luminance" maskUnits="userSpaceOnUse" x="24" y="0" width="71" height="43"><path d="M90.9498 0C87.6235 0 84.8377 0.230536 81.6667 0.230536C78.3404 0.230536 75.8651 0 72.6926 0C71.6102 0 70.9921 0.153213 70.9921 0.69304C70.9921 1.07965 71.8431 1.31019 72.9255 1.31019C78.2642 1.31019 75.9441 4.39307 72.4612 7.47453L61.7866 17.1069L52.19 7.70649C48.3233 3.85325 47.2409 1.31019 51.6496 1.31019C52.7334 1.31019 53.7382 1.15698 53.7382 0.69304C53.7382 0.229104 52.8887 0 51.9601 0C48.7876 0 45.6165 0.230536 40.433 0.230536C35.9467 0.230536 33.0071 0 28.5193 0C27.4355 0 26.9712 0.230536 26.9712 0.615718C26.9712 1.07965 27.7445 1.31019 28.7508 1.31019C33.47 1.31019 39.6582 7.32418 43.9131 11.5597L54.5116 22.2718L41.9783 33.4406C37.2591 37.5244 31.3813 41.6096 26.5831 41.6869C25.8873 41.6869 24.7273 41.6869 24.7273 42.3027C24.7273 42.9184 25.3454 42.9957 26.5054 42.9957C29.6779 42.9957 32.849 42.8425 36.1753 42.8425C39.3477 42.8425 42.3635 42.9957 45.536 42.9957C46.6199 42.9957 47.2394 42.8425 47.2394 42.38C47.2394 41.8416 46.3884 41.6096 45.227 41.6096C40.1225 41.6096 42.1321 38.6026 45.536 35.5212L57.2945 25.0411L68.0482 35.2076C71.9164 39.0608 73.2317 41.6039 68.5901 41.6812C67.5839 41.6812 66.5014 41.8344 66.5014 42.3743C66.5014 42.9141 67.43 42.99 68.2034 42.99C71.6849 42.99 74.3917 42.8368 79.8842 42.8368C83.9853 42.8368 88.2402 42.99 92.1846 42.99C93.3447 42.99 94.0418 42.8368 94.0418 42.3743C94.0418 41.8359 93.1132 41.6812 92.0294 41.6812C86.8473 41.6812 80.4262 35.5155 75.0098 30.0442L64.5652 19.7946L75.8651 9.55508C80.1185 5.78059 86.2306 1.31019 90.6408 1.31019C91.7232 1.31019 92.5742 1.15698 92.5742 0.770363C92.5742 0.230536 92.1099 0 90.9498 0Z" fill="white"></path></mask><g mask="url(#mask2_106_257)"><path d="M24.8149 -2.42062L23.2166 42.947L93.9595 45.4202L95.5579 0.0525354L24.8149 -2.42062Z" fill="url(#paint2_linear_106_257)"></path></g></g><defs><linearGradient id="paint0_linear_106_257" x1="65.9312" y1="38.7837" x2="65.9614" y2="37.9201" gradientUnits="userSpaceOnUse"><stop stop-color="#E9B062"></stop><stop offset="0.006" stop-color="#E9B062"></stop><stop offset="0.132" stop-color="#ECBC69"></stop><stop offset="0.185" stop-color="#EEC36D"></stop><stop offset="0.41" stop-color="#F1E0CC"></stop><stop offset="0.73" stop-color="#B46D1C"></stop><stop offset="0.927" stop-color="#E2A65E"></stop><stop offset="0.949" stop-color="#E8AD66"></stop><stop offset="1" stop-color="#E8AD66"></stop></linearGradient><linearGradient id="paint1_linear_106_257" x1="145.769" y1="122.5" x2="145.798" y2="121.65" gradientUnits="userSpaceOnUse"><stop stop-color="#E9B062"></stop><stop offset="0.006" stop-color="#E9B062"></stop><stop offset="0.132" stop-color="#ECBC69"></stop><stop offset="0.185" stop-color="#EEC36D"></stop><stop offset="0.41" stop-color="#F1E0CC"></stop><stop offset="0.73" stop-color="#B46D1C"></stop><stop offset="0.927" stop-color="#E2A65E"></stop><stop offset="0.949" stop-color="#E8AD66"></stop><stop offset="1" stop-color="#E8AD66"></stop></linearGradient><linearGradient id="paint2_linear_106_257" x1="104.632" y1="82.2683" x2="104.662" y2="81.4064" gradientUnits="userSpaceOnUse"><stop stop-color="#E9B062"></stop><stop offset="0.006" stop-color="#E9B062"></stop><stop offset="0.132" stop-color="#ECBC69"></stop><stop offset="0.185" stop-color="#EEC36D"></stop><stop offset="0.41" stop-color="#F1E0CC"></stop><stop offset="0.73" stop-color="#B46D1C"></stop><stop offset="0.927" stop-color="#E2A65E"></stop><stop offset="0.949" stop-color="#E8AD66"></stop><stop offset="1" stop-color="#E8AD66"></stop></linearGradient><clipPath id="clip0_106_257"><rect width="121" height="43" fill="white"></rect></clipPath></defs></svg> 