<svg width="131" height="28" viewBox="0 0 131 28" fill="none" xmlns="http://www.w3.org/2000/svg">
<path d="M106.927 4.11602C104.147 6.82927 102.778 10.1639 102.778 14.0277C102.778 21.8414 109.091 28 116.889 28C124.687 28 131 21.8721 131 14.0277C131 10.1947 129.594 6.9154 126.876 4.14678C124.126 1.37201 120.791 0.00615249 116.889 0.00615249C112.987 0.00615249 109.682 1.37816 106.933 4.12217M90.6027 14.9198H100.109V10.6623H90.6027V4.73127H100.953V0.449132H86.1456V27.5755H100.984V23.2933H90.6088V14.9198H90.6027ZM25.2445 27.5755H29.7016V0.449132H25.2445V27.5755ZM5.75167 27.5755C10.7451 27.5755 14.5857 26.4557 17.1687 24.1301C20.1154 21.4968 21.6011 18.1376 21.6011 14.0215C21.6011 9.90552 20.0846 6.294 17.0577 3.72226C14.4994 1.53812 10.7143 0.449132 5.80715 0.449132H0V27.5755H5.75167ZM49.7615 21.6383L52.2582 27.5755H57.1961L45.6065 0.362997H43.3625L31.4708 27.5755H36.3779L38.9856 21.5276C39.0411 21.3615 39.0719 21.2446 39.0966 21.1338C39.2075 21.1892 39.3801 21.2446 39.5712 21.3307C41.0323 21.8906 42.7707 22.1982 44.4784 22.1982C46.186 22.1982 47.8196 21.8598 48.7998 21.5276C49.3053 21.3615 49.4718 21.2753 49.6136 21.1892C49.6382 21.2999 49.7245 21.5522 49.7553 21.6383M78.5137 8.73654L81.9104 5.82641C78.9945 1.93188 75.0923 0 70.4934 0C62.6642 0 56.3577 6.24478 56.3577 14.0523C56.3577 21.8598 62.6396 27.9938 70.2961 27.9938C72.2319 27.9938 74.0813 27.5755 75.8752 26.7633C77.6136 25.982 79.1302 24.8868 80.3631 23.4595C81.5406 22.1428 82.2988 20.6293 82.7488 18.9804C83.1126 17.6084 83.3407 15.9288 83.2297 13.9108L83.1742 13.0987H70.9434V17.3808H78.4644C78.2671 19.0604 77.3979 20.5186 75.8814 21.7183C74.2292 23.0595 72.349 23.7056 70.2407 23.7056C67.7994 23.7056 65.611 22.6966 63.5951 20.7093C61.7704 18.8635 60.8456 16.6486 60.8456 14.0769C60.8456 11.3637 61.8012 9.00725 63.7616 7.05076C65.611 5.17425 67.8549 4.27598 70.4379 4.27598C73.7484 4.27598 76.356 5.7895 78.5137 8.73039M123.701 7.11228C125.606 8.95803 126.537 11.2837 126.537 13.9969C126.537 16.7102 125.581 18.9804 123.701 20.8816C121.821 22.7581 119.552 23.7117 116.883 23.7117C111.526 23.7117 107.26 19.3188 107.26 13.9969C107.26 11.3083 108.215 8.98264 110.095 7.08152C111.945 5.20501 114.244 4.28214 116.883 4.28214C119.521 4.28214 121.79 5.23577 123.701 7.11228ZM5.89346 4.73127C9.70941 4.73127 12.4034 5.51263 14.0864 7.00154C16.1084 8.7673 17.1132 11.0868 17.1132 14.0031C17.1132 16.9194 16.133 19.0666 14.1973 20.8631C12.5144 22.4628 9.76489 23.2995 5.89346 23.2995H4.66052V4.73127H5.89346ZM40.6994 17.3562C40.7857 17.1901 40.9213 16.9071 40.9768 16.7717L44.3982 8.48429L47.7641 16.8517C47.8196 16.9932 47.9306 17.2147 48.0169 17.4116L47.5977 17.4977C46.6422 17.7499 45.5757 17.9161 44.4845 17.9161C43.3934 17.9161 42.3824 17.7746 41.3159 17.4977C41.1186 17.4423 40.8412 17.3562 40.6994 17.3562Z" fill="black"/>
</svg>
