<svg xmlns="http://www.w3.org/2000/svg" xmlns:xlink="http://www.w3.org/1999/xlink" version="1.1" id="Layer_1" x="0px" y="0px" viewBox="0 0 760 181" style="enable-background:new 0 0 760 181;" xml:space="preserve" fill="#ffffff">
<style type="text/css">
	.st0{fill:none;stroke:#ffffff;stroke-width:6;stroke-miterlimit:10;}
</style>
<path d="M27.9,143.5v5.5H11.2v9.6h16.1v5.5H11.2v10.2h17.2v5.5H3.7v-36.2H27.9z" fill="#000000"/>
<path d="M56.5,145.7v6.7c-1.6-1.2-3.2-2.2-4.8-2.9c-1.6-0.7-3.3-1-5.1-1c-1.7,0-3,0.3-3.9,1c-0.9,0.7-1.3,1.6-1.3,2.7  c0,2.1,1.6,3.9,4.9,5.4c3.3,1.6,6,3.3,8.4,5c2.3,1.8,3.5,4.3,3.5,7.5c0,2.9-1.2,5.3-3.5,7.1c-2.3,1.9-5.3,2.8-8.9,2.8  c-2.1,0-4.1-0.3-6-0.8c-1.9-0.5-3.8-1.3-5.6-2.4v-7.3c3.4,3.3,7.1,4.9,10.9,4.9c1.7,0,3.1-0.4,4-1.2c1-0.8,1.4-1.8,1.4-2.9  c0-1.5-0.7-2.8-2-3.8c-1.4-1-3.4-2.2-6.2-3.6c-2.8-1.4-4.9-3-6.3-4.7c-1.4-1.7-2.1-3.6-2.1-5.9c0-2.8,1.1-5,3.4-6.8  c2.3-1.8,5.2-2.7,8.9-2.7c1.9,0,3.7,0.2,5.5,0.7C53.5,144.2,55.1,144.8,56.5,145.7z" fill="#000000"/>
<path d="M96.6,143.5v6H82.8v30.3h-7.6v-30.3H61.6v-6H96.6z" fill="#000000"/>
<path d="M671,143.8v35.7h-7.7v-35.7H671z" fill="#000000"/>
<path d="M685.2,179.9l8-13.4c-0.8,0.2-1.6,0.3-2.4,0.3c-2.6,0-4.8-1.1-6.7-3.3c-1.9-2.2-2.8-4.8-2.8-7.9c0-3.5,1.1-6.4,3.3-8.8  c2.2-2.4,5-3.6,8.2-3.6c3.3,0,6,1.2,8.2,3.6c2.2,2.4,3.3,5.3,3.3,8.9c0,4.2-1.5,8.9-4.6,14l-6.1,10.2H685.2z M692.8,160.8  c1.1,0,2-0.5,2.8-1.5c0.7-1,1.1-2.3,1.1-3.8c0-1.7-0.3-3-1-4c-0.7-1-1.6-1.5-2.8-1.5c-1.1,0-2.1,0.5-2.9,1.5c-0.8,1-1.1,2.3-1.1,3.9  c0,1.6,0.4,2.9,1.1,3.9C690.6,160.3,691.6,160.8,692.8,160.8z" fill="#000000"/>
<path d="M722.4,160.7c1.7,0.7,3,1.8,3.8,3.3c0.8,1.5,1.3,3.3,1.3,5.3c0,3.1-1.1,5.7-3.2,7.7c-2.2,2-4.8,3-8,3c-1.5,0-3-0.2-4.4-0.6  c-1.4-0.4-2.7-0.9-4-1.6v-6.3c1.2,0.9,2.5,1.6,3.8,2.1c1.3,0.5,2.6,0.7,3.9,0.7c1.6,0,2.9-0.4,3.9-1.3c1-0.9,1.5-2.1,1.5-3.8  c0-1.8-0.6-3.2-1.9-4.1c-1.2-0.9-3-1.4-5.3-1.4v-5.1c2.3,0,4.1-0.4,5.2-1.3c1.1-0.9,1.6-2.1,1.6-3.7c0-1.4-0.5-2.5-1.5-3.5  s-2.3-1.4-4.1-1.4c-1.1,0-2.1,0.2-3.2,0.5c-1,0.3-2.1,0.8-3.2,1.5v-5.5c1.4-0.7,2.7-1.1,3.9-1.4c1.3-0.2,2.5-0.4,3.6-0.4  c3.2,0,5.8,0.8,7.8,2.5c2,1.7,2.9,4,2.9,7c0,1.8-0.4,3.3-1.2,4.6C724.9,158.8,723.8,159.9,722.4,160.7z" fill="#000000"/>
<path d="M753.4,143.8v5.5h-11.4v8.1c0.3,0,0.7,0,1.1-0.1c3.6,0,6.5,1,8.7,3.1c2.2,2.1,3.2,4.7,3.2,8c0,3.4-1.1,6.1-3.3,8.3  c-2.2,2.1-5,3.2-8.5,3.2c-1.7,0-3.3-0.2-4.8-0.7c-1.5-0.4-3-1.1-4.5-1.9v-6.1c1.2,0.8,2.5,1.5,4,2c1.5,0.6,2.9,0.8,4.2,0.8  c1.8,0,3.4-0.5,4.6-1.6c1.2-1.1,1.8-2.5,1.8-4.1c0-1.8-0.7-3.3-2.2-4.4c-1.5-1.1-3.3-1.6-5.3-1.6c-0.7,0-1.6,0.1-2.4,0.2  c-0.9,0.1-1.5,0.3-2,0.5v-19.3H753.4z" fill="#000000"/>
<path d="M133.4,57.3c4.7,0,7.4-0.1,9.5-0.2c5.6-0.3,6.7-1.6,8.8-7.2c0.3-0.5,2.7-0.8,4.1-0.5c-0.3,2.7-0.8,8.2-0.8,11.9  c0.1,4.1,0.2,6,0.6,9.8c-0.4,0.1-1.4,0.3-2.4,0.3c-0.8,0.1-1.4-0.1-1.7-0.6c-0.3-1-1.2-3.5-1.7-4.7c-0.7-2.3-2.5-3.6-6.2-3.8  c-2.8-0.2-5.2-0.2-9.8-0.2c-3.2,0-4.2,0.1-4.9,0.2c-0.5,0.1-1.1,0.3-1.2,1.1c-0.3,0.7-0.7,6-0.7,14.4c0,6.6,0,8.4,0.8,9.5  c1.5,2.1,7.4,2.3,11.8,2.3c10.2,0,16.8-1.9,20.6-13.8c0.4-0.3,2.7-0.1,3.2,0c0.3,0,0.3,0,0.3,0.8c-0.2,6.3-2.1,14.1-3.6,16.9  c-0.3,0.6-0.6,0.8-1.2,0.8c-0.7,0-1.6,0-4.9-0.1c-3-0.1-10.1-0.2-19.3-0.2c-10.8,0-20.7,0.4-28.4,0.6c-0.5-0.2-0.4-2.1-0.2-3  c0.1-0.5,0.2-0.6,0.5-0.7c5.1-1.2,6.2-1.5,6.3-3.6c0.1-1.4,0.7-8.8,0.7-18.5V44.8c0-9.1-0.5-11.9-0.7-12.5c-0.1-0.8-0.2-1.8-1.3-2  c-1.1-0.2-2.7-0.6-6.2-1.4c-0.3-0.1-0.4-0.1-0.3-0.6l0.3-2.3c0-0.4,0-0.6,0.6-0.6h3.4c3.3,0,8.3,0.3,16.3,0.3h8.7  c9,0,15.1-0.6,21.6-0.6c1.4,0,2.1,0.1,2.5,0.5c0.3,0.4,0.8,1.1,0.5,2.9c-1.2,6-1.2,10.7-1.2,14c-3.5,0.1-3.7-0.2-3.9-1  c-3-8.5-5-11.3-10.3-11.3h-4.6c-6.3,0-9,0.2-10.3,0.3c-1.9,0.1-2,2.2-2,3.5c0,7.5,0,14.3,0.1,21.3c0,1.4,0.4,2.1,1.1,2.1H133.4z" fill="#000000"/>
<path d="M207.7,23.7c1.1,0,1.2,0.2,1.7,1.8c3.2,9.3,5.4,15.2,9.1,25c3.6,9.5,10.8,26.8,12.5,30.5c2.8,5.8,4.3,8.6,10.5,9.9  c0.1-0.2-0.6,3.4-1.5,3.5c-10.8-0.1-12.8-0.2-16.4-0.2c-3.4,0-8,0.3-9.1,0.3c-0.4,0-0.6-0.1-0.7-0.4c-0.2-0.5-1.2-2.8-1-3  c4.3-1.2,5-1.8,5-3.9c0-2.5-3.9-12.5-4.5-13.7c-0.8-2-1.7-2.7-2.3-2.7c-3.8,0-15.3-0.1-20.2,0.3c-1.8,0.1-2.3,1-3.1,2.9  c-1.1,2.8-3.6,8.6-3.6,11.8c0,2.7,1.6,3.7,6.6,4.8c0.8,0.2-0.3,3.4-0.8,3.5c-6.7-0.1-12.7-0.1-14.8-0.1c-1.9,0-3.5,0.1-3.9,0  c-0.5,0-0.6-0.1-0.7-0.4c-0.3-0.5-1.2-2.8-0.6-3c5.5-1.5,6.8-5.9,9.1-10.9c2.4-5.2,15.1-33.8,20.6-47.2c1-2.4,1.8-5,2.4-6.3  c0.2-0.7,0.5-1.3,1-1.5c1.2-0.5,3.2-1.1,4.8-1.1H207.7z M194.2,65.5c1.2,0,3.1,0.1,6.2,0.1c3.4,0,5.3,0,8-0.1c1.1,0,1.8-1,1.7-1.3  c-3.8-11.7-6-17.6-7.8-22.2c-0.3-0.6-1-0.7-1.2-0.3c-3.6,8-5,11.6-9.2,22.5c-0.2,0.5,0.8,1.3,2.3,1.3H194.2z" fill="#000000"/>
<path d="M304.7,29.6c-1,0.1-1.5,0.3-2.4,1.1c-1.3,1-3.3,5-6.4,11c-3.1,5.9-14.9,31.4-20.2,44.5c-0.5,1.3-1.1,2.3-1.9,3.8  c-0.8,1.4-1.7,3.4-2.8,5.1c-0.2,0.4-0.6,0.7-1.7,0.7c-1.8,0-2.8-0.3-3.1-1c-0.4-0.5-1.6-2.9-4.1-9.3C252.8,61.8,245,45.4,242,38.9  c-3.8-8.7-4.7-9.3-10.4-10.4l1.2-2.8c0.2-0.6,0.6-0.6,1.1-0.6c5.1,0.4,12.6,0.5,14.8,0.5c3.6,0,7.2-0.2,10.8-0.2  c0.5,0,0.8,0.2,0.6,2c-0.2,1.6-0.3,1.9-0.8,2c-4.5,0.5-5,1.2-4,4.5c0.7,2.5,1.8,5.2,6.6,16.7c4.5,10.8,7.8,18.7,11.3,26.1  c0.3,0.7,1.2,0.4,1.6-0.3c2-3.9,6.7-14.2,12.3-27.9c1.7-4,3.9-10.1,6.6-17.4c0.3-1-1-1.5-3.1-1.6l-4.5-0.2c-0.4,0-0.7-0.4-0.5-0.6  c1.1-2.8,1.2-3.3,1.9-3.3c2.5,0,8.2,0.3,10.9,0.3c2.1,0,5.5-0.3,7.8-0.3c2,0,2.2,1.6,2.2,3.4c0,0.6-0.1,0.8-0.8,0.7L304.7,29.6z" fill="#000000"/>
<path d="M342.7,57.3c4.7,0,7.4-0.1,9.5-0.2c5.6-0.3,6.7-1.6,8.8-7.2c0.3-0.5,2.7-0.8,4.1-0.5c-0.3,2.7-0.8,8.2-0.8,11.9  c0.1,4.1,0.2,6,0.6,9.8c-0.4,0.1-1.4,0.3-2.4,0.3c-0.8,0.1-1.4-0.1-1.7-0.6c-0.3-1-1.2-3.5-1.7-4.7c-0.7-2.3-2.5-3.6-6.2-3.8  c-2.8-0.2-5.2-0.2-9.8-0.2c-3.2,0-4.2,0.1-4.9,0.2c-0.5,0.1-1.1,0.3-1.2,1.1c-0.3,0.7-0.7,6-0.7,14.4c0,6.6,0,8.4,0.8,9.5  c1.5,2.1,7.4,2.3,11.8,2.3c10.2,0,16.8-1.9,20.6-13.8c0.4-0.3,2.7-0.1,3.2,0c0.3,0,0.3,0,0.3,0.8c-0.2,6.3-2.1,14.1-3.6,16.9  c-0.3,0.6-0.6,0.8-1.2,0.8c-0.7,0-1.6,0-4.9-0.1c-3-0.1-10.1-0.2-19.3-0.2c-10.8,0-20.7,0.4-28.4,0.6c-0.5-0.2-0.4-2.1-0.2-3  c0.1-0.5,0.2-0.6,0.5-0.7c5.1-1.2,6.2-1.5,6.3-3.6c0.1-1.4,0.7-8.8,0.7-18.5V44.8c0-9.1-0.5-11.9-0.7-12.5c-0.1-0.8-0.2-1.8-1.3-2  c-1.1-0.2-2.7-0.6-6.2-1.4c-0.3-0.1-0.4-0.1-0.3-0.6l0.3-2.3c0-0.4,0-0.6,0.6-0.6h3.4c3.3,0,8.3,0.3,16.3,0.3h8.7  c9,0,15.1-0.6,21.6-0.6c1.4,0,2.1,0.1,2.5,0.5c0.3,0.4,0.8,1.1,0.5,2.9c-1.2,6-1.2,10.7-1.2,14c-3.5,0.1-3.7-0.2-3.9-1  c-3-8.5-5-11.3-10.3-11.3h-4.6c-6.3,0-9,0.2-10.3,0.3c-1.9,0.1-2,2.2-2,3.5c0,7.5,0,14.3,0.1,21.3c0,1.4,0.4,2.1,1.1,2.1H342.7z" fill="#000000"/>
<path d="M379.4,25.2c4.9,0.2,6.9,0.4,17.8,0.4c1,0,1.7,0.1,2.1,0.4c0.5,0.4,0.8,1,0.8,1.5c0.2,1.8,5.1,7.5,6.4,8.8  c5.4,5.5,17.2,17.7,37.3,36.1c0.3-3.8,0.4-7.3,0.4-15.2c0-10.9-0.2-17.8-0.7-21.6c-0.2-2-0.4-4.7-2.4-5.2c-1.2-0.3-5.4-0.6-6-0.8  c-0.5-0.3-0.7-0.4-0.7-1.1l-0.2-2.9c4,0,8.1,0,12.1,0c3.9,0,9.2-0.5,11.6-0.5c0.5,0,1.3,0.1,1.4,0.4l0.6,2.8  c-3.7,1.2-4.8,1.4-6.3,2.2c-2.3,1.4-3.1,4.8-3.7,17.7c-0.4,10.5-0.5,17.3-0.5,26.7c0,9.8,0.3,15.8,0.3,17.3c0,1.8-0.5,2.5-3.7,4.2  c-0.5,0.3-1.1,0.2-1.7-0.7c-5.6-8.4-12.9-16.8-24.2-28.1C407.9,55.5,400.4,48,395.1,43c-0.1,3.8-0.4,10.1-0.5,16.2  c0,5.3-0.2,22.6,1,26.9c0.8,3,6.5,3.9,8.7,4.3l0.7,3c0.1,0.3-0.5,1-0.8,1c-3.7,0-9.2-0.4-13.5-0.4c-3.6,0-7.2,0.2-8.8,0.3  c-0.3-1.3-0.7-2.5-1.2-3.7c6.8-1.5,7-2.3,7.5-5.9c0.3-2.4,1.2-12,1.2-22.1V50.9c0-14.2-0.6-16.4-1.8-17.9c-1.9-2.4-3.7-3.1-7-3.8  c-0.8-0.3-1.2-0.5-1.2-1.3V25.2z" fill="#000000"/>
<path d="M627.8,29c-9,1.2-9.8,2-10.2,3.9c-0.4,1.9-0.7,5.9-0.7,16.8v16.7c0,8.2,0.3,16.3,1,20.3c0.3,1.8,0.8,2.7,2.2,2.9  c0.7,0.1,3.1,0.5,5.3,1c0.5,0,0.7,0.2,0.7,0.5c0,0.6-0.3,2.8-0.5,3.4c-7.7-0.2-12.2-0.3-16.7-0.3c-8.4,0-13.8,0.4-14.1,0.4  c-0.7,0-1.2-0.4-1.3-0.8c-0.1-0.7-0.5-2.3-0.4-3c5.9-0.5,8.2-1.1,9.1-4.1c0.4-1.6,1.2-5.1,1.2-19.2v-21c0-14.3-0.1-15.8-3.9-16.4  c-1.5-0.2-3.3-0.4-4.7-0.4c-0.6,0-0.8-0.2-0.8-0.8c0-0.3,0.1-1.1,0.5-2c0.4-0.6,0.5-0.8,0.8-0.8c0.8-0.1,1.8-0.1,3.3-0.1  c1.6,0,4.3,0.2,13.7,0.1c5.2,0,11.7-0.2,12.8-0.2c1.4,0,1.5,0.1,1.6,0.4L627.8,29z" fill="#000000"/>
<path d="M689.2,75.7c0.5,0,2.2,0.6,3,1c0.3,0.2,0.7,0.8,0.5,1.4c-1.7,5.5-2.7,10.1-3.5,14.3c-0.2,1.4-0.7,1.7-1.9,1.9  c-1,0.1-2.2,0.1-6.7,0.1c-4.2,0-9.3-0.3-28.3-0.3c-6.5,0-12,0.5-14.3,0.7c-0.7,0-1.3,0-1.5-0.2c-0.3-0.8-0.7-2.8-0.5-3.4  c4.6-0.8,7.8-2.1,8.4-5c0.3-2,0.6-5.1,0.6-15.1V50.2c0-8.9-0.4-14.5-1-17.9c-0.3-1.9-1.2-2.5-8.5-2.3c-0.2,0-0.6-0.6-0.3-1.7L636,26  c0.1-0.4,0.2-0.4,0.4-0.4c4,0.1,8.2,0.2,12.4,0.1c6.7-0.1,13.3-0.4,18.2-0.7c0.5,0.1,1,3.3,0.8,3.8c-3.8,0.7-8.7,1.2-9.3,4.8  c-0.5,2.9-0.7,7.2-0.6,18.3l0.1,13.3c0.1,15.3,0.2,18.7,0.4,20.7c0.1,2,0.5,2.7,2.2,3.2c1.7,0.5,3.2,0.7,8,0.7  c7.3,0,13.9-1,17.1-6.5c0.8-1.4,1.6-3.5,2.3-6.9c0.2-0.6,0.4-0.7,1.1-0.7H689.2z" fill="#000000"/>
<path d="M751.5,75.7c0.5,0,2.2,0.6,3,1c0.3,0.2,0.7,0.8,0.5,1.4c-1.7,5.5-2.7,10.1-3.5,14.3c-0.2,1.4-0.7,1.7-1.9,1.9  c-1,0.1-2.2,0.1-6.7,0.1c-4.2,0-9.3-0.3-28.3-0.3c-6.5,0-12,0.5-14.3,0.7c-0.7,0-1.3,0-1.5-0.2c-0.3-0.8-0.7-2.8-0.5-3.4  c4.6-0.8,7.8-2.1,8.4-5c0.3-2,0.6-5.1,0.6-15.1V50.2c0-8.9-0.4-14.5-1-17.9c-0.3-1.9-1.2-2.5-8.5-2.3c-0.2,0-0.6-0.6-0.3-1.7  l0.7-2.2c0.1-0.4,0.2-0.4,0.4-0.4c4,0.1,8.2,0.2,12.4,0.1c6.7-0.1,13.3-0.4,18.2-0.7c0.5,0.1,1,3.3,0.8,3.8  c-3.8,0.7-8.7,1.2-9.3,4.8c-0.5,2.9-0.7,7.2-0.6,18.3l0.1,13.3c0.1,15.3,0.2,18.7,0.4,20.7c0.1,2,0.5,2.7,2.2,3.2  c1.7,0.5,3.2,0.7,8,0.7c7.3,0,13.9-1,17.1-6.5c0.8-1.4,1.6-3.5,2.3-6.9c0.2-0.6,0.4-0.7,1.1-0.7H751.5z" fill="#000000"/>
<path d="M185.8,151.7c0,4.7-2.1,12.2-8.3,18c-6,5.7-10.2,7.2-14.7,8.5c-4.7,1.4-7.8,1.6-13.8,1.6c-4.6,0-13-0.3-14.6-0.3  c-3.1,0-6.1,0-8.5,0.1c0-0.8-0.2-2.4,0-2.8c3.5-1.4,4.5-1.9,4.6-3.5c0.4-6.5,0.3-21.1,0.3-31.6c0-8.7-0.1-10.7-0.2-11.7  c-0.1-1.3-0.8-2.2-4.8-2.9c-0.3-0.1-0.3-0.5-0.3-2.1l-0.1-1.1c3.2,0,7.8-0.2,12.7-0.3c5.6-0.1,8.6-0.3,12.9-0.3  c6.2,0,17.3,0.9,25.3,7.9C182.6,137,185.8,143.8,185.8,151.7L185.8,151.7z M149.3,126.7c-1.3,0-5.2,0.6-6.1,1.5  c-0.4,0.3-0.7,0.9-0.8,1.7c-0.3,3-0.5,11.2-0.5,18.3c0,12.5,0,21,1.3,26c0.2,0.8,0.4,1.1,1.2,1.4c1.9,0.7,3.7,1.1,5.7,1.1  c3.3,0,7.4-1,12.3-4.1c6.9-4.3,10.4-12.9,10.4-21.9c0-9.2-4.1-15.6-8.5-19C159,127.6,152.9,126.7,149.3,126.7L149.3,126.7z" fill="#000000"/>
<path d="M219.7,126.6c-7.3,0.9-7.9,1.6-8.3,3.2s-0.6,4.8-0.6,13.6V157c0,6.6,0.3,13.3,0.8,16.5c0.3,1.5,0.7,2.2,1.8,2.3  c0.6,0.1,2.5,0.4,4.3,0.8c0.4,0,0.6,0.2,0.6,0.4c0,0.5-0.3,2.2-0.4,2.8c-6.3-0.2-9.9-0.3-13.5-0.3c-6.8,0-11.2,0.3-11.5,0.3  c-0.6,0-0.9-0.3-1-0.7c-0.1-0.6-0.4-1.9-0.3-2.4c4.8-0.4,6.6-0.9,7.4-3.4c0.3-1.3,0.9-4.1,0.9-15.6v-17.1c0-11.6-0.1-12.9-3.2-13.4  c-1.2-0.2-2.7-0.3-3.8-0.3c-0.5,0-0.7-0.2-0.7-0.7c0-0.3,0.1-0.9,0.4-1.6c0.3-0.5,0.4-0.7,0.7-0.7c0.7-0.1,1.5-0.1,2.7-0.1  c1.3,0,3.5,0.2,11.1,0.1c4.2,0,9.5-0.2,10.4-0.2c1.1,0,1.2,0.1,1.3,0.3L219.7,126.6z" fill="#000000"/>
<path d="M227.4,181.6c-0.4,0-0.7-0.1-1.1-0.3c-0.2-0.2-0.4-0.9-0.5-3.3c-0.2-4.5-0.7-8.6-1.5-13.9c-0.1-0.6,0-0.7,0.4-0.8  c0.5-0.1,1.2-0.2,1.6-0.2c0.5,0,0.9,0.2,1.2,0.9c0.5,1.3,1,3,2.5,5c3.3,4.5,9.3,8.5,14.1,8.5c6.1,0,10.9-4.1,10.9-10.4  c0-2.7-1.6-5.6-4.3-7.2c-1.4-0.9-3.4-2.2-8.1-4.3c-6-2.6-10.1-4.9-13.2-8.6c-1.7-2-3.2-5.3-3.2-9.6c0-5.9,3.5-9.7,7.4-12  c2.2-1.2,7.2-2.8,13.4-2.8c2.4,0,6,0.3,7.5,0.5c0.9,0.2,1.7,0.2,2.8,0.3c0.9,0.1,1.6-0.3,2.1-1.7c1.1,0,2.7,0,2.9,0.1  c-0.3,4.5-0.1,8.9,0.9,14.1c0.2,0.8,0,1-0.3,1.3c-0.9,0.5-1.3,0.9-2.1,1.3c-0.2,0.1-0.6-0.1-0.8-0.7c-1.5-4-2.6-6.4-5.3-8.5  c-2.2-1.7-6.1-3.2-9.6-3.2c-4.5,0-8.1,4.1-8.1,8.2c0,2.5,0.8,4.6,2.4,6.1c2,1.9,3.9,3.4,8.6,5.3c5.9,2.5,10.4,4.7,13.1,7.3  c3.5,3.5,4.9,6.6,4.9,11.3c0,6.4-3.5,11-8.1,13.4c-4.5,2.4-12,3.4-15.1,3.4c-3.4,0-7.4-0.5-10.4-1.3c-0.7-0.2-1.1-0.2-1.6,0  c-0.5,0.3-0.9,0.7-1.5,1.3C228.6,181.5,228.1,181.6,227.4,181.6L227.4,181.6z" fill="#000000"/>
<path d="M285.3,176.8c1.5-0.2,3.8-0.4,5.1-0.9c1.8-0.4,3.2-1.2,3.5-3.4c0.1-0.9,0.9-7.1,0.9-18.2v-8.9c0-15.2,0-17.9-0.3-17.9h-4  c-7.5,0-13.1,1.3-14.2,2c-0.8,0.5-1.4,2.2-2.8,6.5c0,0.3-0.6,0.1-1.1-0.1c-0.9-0.5-1.7-1-2-1.9c0.9-2.7,2.8-7,5.2-14.4  c0.4-0.2,1-0.1,1.8,0.1c0.7,0.3,0.7,0.3,0.8,0.7c0.3,2.1,0.6,2.6,1.3,2.8c0.7,0.2,1.9,0.3,3.9,0.4c2.3,0.1,9.1,0.1,17.2,0.1  c9.7,0,15.6-0.2,19.5-0.4c2-0.1,3.2-0.2,4-0.4c0.8-0.2,1.8-1.3,2.3-2.4c0.3-0.4,0.4-0.5,0.7-0.5c0.7,0,1.2,0.3,2.1,0.6  c0.3,0.2,0.4,0.4,0.2,1.2c-1.6,4.8-1.7,6.8-2.2,13.2c0,0.4-0.2,0.7-1,0.7c-0.8,0-1.3-0.1-1.7-0.3c-0.4-0.1-0.7-0.4-0.7-0.7  c0-0.3,0.2-3.5,0.2-4.6c0-0.9-0.3-1.3-1.3-1.8c-0.8-0.4-5.7-0.8-11.5-0.8h-3.2c-0.9,0-1.7,0.7-1.7,1.6c0,1.6-0.2,6.2-0.2,17v8.9  c0,11.2,0.3,15.4,0.6,16.8c0.3,1.4,0.9,2.8,2.2,3.4c1.2,0.5,5,1.1,7.1,1.3c0.6,0,0.7,0.2,0.5,0.8l-0.3,1.8c-0.1,0.3-0.2,0.5-1.4,0.5  c-2.8,0-8.8-0.3-13.1-0.3c-6.3,0-14.1,0.3-14.7,0.3c-0.6,0-0.9-0.3-1-0.7L285.3,176.8z" fill="#000000"/>
<path d="M361.5,126.6c-7.3,0.9-7.9,1.6-8.3,3.2c-0.3,1.6-0.6,4.8-0.6,13.6V157c0,6.6,0.3,13.3,0.8,16.5c0.3,1.5,0.7,2.2,1.8,2.3  c0.6,0.1,2.5,0.4,4.3,0.8c0.4,0,0.6,0.2,0.6,0.4c0,0.5-0.3,2.2-0.4,2.8c-6.3-0.2-9.9-0.3-13.5-0.3c-6.8,0-11.2,0.3-11.5,0.3  c-0.6,0-0.9-0.3-1-0.7c-0.1-0.6-0.4-1.9-0.3-2.4c4.8-0.4,6.6-0.9,7.4-3.4c0.3-1.3,0.9-4.1,0.9-15.6v-17.1c0-11.6-0.1-12.9-3.2-13.4  c-1.2-0.2-2.7-0.3-3.8-0.3c-0.5,0-0.7-0.2-0.7-0.7c0-0.3,0.1-0.9,0.4-1.6c0.3-0.5,0.4-0.7,0.7-0.7c0.7-0.1,1.5-0.1,2.7-0.1  c1.3,0,3.5,0.2,11.1,0.1c4.2,0,9.5-0.2,10.4-0.2c1.1,0,1.2,0.1,1.3,0.3L361.5,126.6z" fill="#000000"/>
<path d="M414.9,164.6c0.4,0,1.8,0.5,2.4,0.8c0.3,0.2,0.6,0.7,0.4,1.1c-1.4,4.5-2.2,8.2-2.8,11.6c-0.2,1.1-0.6,1.4-1.6,1.6  c-0.8,0.1-1.8,0.1-5.4,0.1c-3.5,0-7.6-0.3-23-0.3c-5.3,0-9.7,0.4-11.6,0.6c-0.6,0-1,0-1.2-0.2c-0.3-0.7-0.6-2.2-0.4-2.8  c3.7-0.7,6.4-1.7,6.8-4.1c0.3-1.6,0.5-4.1,0.5-12.2v-17c0-7.2-0.3-11.8-0.8-14.6c-0.3-1.6-0.9-2.1-6.9-1.9c-0.2,0-0.5-0.5-0.3-1.4  l0.6-1.8c0.1-0.3,0.2-0.3,0.3-0.3c3.3,0.1,6.6,0.2,10.1,0.1c5.4-0.1,10.8-0.3,14.8-0.6c0.4,0.1,0.8,2.7,0.7,3.1  c-3.1,0.6-7.1,0.9-7.6,3.9c-0.4,2.3-0.6,5.9-0.5,14.9l0.1,10.8c0.1,12.4,0.2,15.2,0.3,16.8c0.1,1.6,0.4,2.2,1.8,2.6  c1.4,0.4,2.6,0.6,6.5,0.6c6,0,11.3-0.8,13.9-5.3c0.7-1.1,1.3-2.8,1.9-5.6C414.1,164.7,414.3,164.6,414.9,164.6L414.9,164.6z" fill="#000000"/>
<path d="M465.6,164.6c0.4,0,1.8,0.5,2.4,0.8c0.3,0.2,0.6,0.7,0.4,1.1c-1.4,4.5-2.2,8.2-2.8,11.6c-0.2,1.1-0.6,1.4-1.6,1.6  c-0.8,0.1-1.8,0.1-5.4,0.1c-3.5,0-7.6-0.3-23-0.3c-5.3,0-9.7,0.4-11.6,0.6c-0.6,0-1,0-1.2-0.2c-0.3-0.7-0.6-2.2-0.4-2.8  c3.7-0.7,6.4-1.7,6.8-4.1c0.3-1.6,0.5-4.1,0.5-12.2v-17c0-7.2-0.3-11.8-0.8-14.6c-0.3-1.6-0.9-2.1-6.9-1.9c-0.2,0-0.5-0.5-0.3-1.4  l0.6-1.8c0.1-0.3,0.2-0.3,0.3-0.3c3.3,0.1,6.6,0.2,10.1,0.1c5.4-0.1,10.8-0.3,14.8-0.6c0.4,0.1,0.8,2.7,0.7,3.1  c-3.1,0.6-7.1,0.9-7.6,3.9c-0.4,2.3-0.6,5.9-0.5,14.9l0.1,10.8c0.1,12.4,0.2,15.2,0.3,16.8c0.1,1.6,0.4,2.2,1.8,2.6  c1.4,0.4,2.6,0.6,6.5,0.6c6,0,11.3-0.8,13.9-5.3c0.7-1.1,1.3-2.8,1.9-5.6C464.8,164.7,465,164.6,465.6,164.6L465.6,164.6z" fill="#000000"/>
<path d="M493,149.6c3.8,0,6-0.1,7.8-0.2c4.6-0.3,5.4-1.3,7.2-5.9c0.3-0.4,2.2-0.7,3.4-0.4c-0.3,2.2-0.7,6.6-0.7,9.7  c0.1,3.4,0.2,4.9,0.5,7.9c-0.3,0.1-1.1,0.3-2,0.3c-0.7,0.1-1.1-0.1-1.4-0.5c-0.3-0.8-0.9-2.8-1.4-3.8c-0.6-1.9-2.1-2.9-5-3.1  c-2.2-0.2-4.2-0.2-7.9-0.2c-2.6,0-3.5,0.1-4,0.2c-0.4,0.1-0.9,0.3-0.9,0.9c-0.3,0.6-0.6,4.9-0.6,11.7c0,5.3,0,6.8,0.7,7.8  c1.2,1.7,6,1.9,9.6,1.9c8.3,0,13.6-1.6,16.7-11.2c0.3-0.3,2.2-0.1,2.6,0c0.3,0,0.3,0,0.3,0.7c-0.2,5.1-1.7,11.5-2.9,13.7  c-0.3,0.5-0.5,0.7-0.9,0.7c-0.6,0-1.3,0-4-0.1c-2.4-0.1-8.2-0.2-15.7-0.2c-8.8,0-16.8,0.3-23.1,0.5c-0.4-0.2-0.3-1.7-0.2-2.4  c0.1-0.4,0.2-0.5,0.4-0.6c4.1-0.9,5-1.2,5.1-2.9c0.1-1.1,0.6-7.2,0.6-15v-19.6c0-7.4-0.4-9.7-0.6-10.2c-0.1-0.7-0.2-1.5-1-1.6  c-0.9-0.2-2.2-0.5-5-1.1c-0.3-0.1-0.3-0.1-0.3-0.5l0.3-1.9c0-0.3,0-0.5,0.5-0.5h2.8c2.7,0,6.7,0.3,13.3,0.3h7.1  c7.3,0,12.2-0.5,17.6-0.5c1.1,0,1.7,0.1,2.1,0.4c0.3,0.3,0.7,0.9,0.4,2.3c-0.9,4.9-0.9,8.7-0.9,11.4c-2.8,0.1-3-0.2-3.2-0.8  c-2.4-6.9-4.1-9.2-8.4-9.2H498c-5.1,0-7.3,0.2-8.4,0.3c-1.6,0.1-1.6,1.8-1.6,2.8c0,6.1,0,11.6,0.1,17.3c0,1.1,0.3,1.7,0.9,1.7H493z" fill="#000000"/>
<path d="M524.2,124.5c-0.1-0.5,0.4-0.7,0.9-0.7c3.8-0.1,8-0.2,11.8-0.3c5.3-0.3,7.4-0.4,10.7-0.4c5.9,0,11,0.6,16.3,4.1  c3.5,2.3,6.1,6.8,6.1,10.5c0,7.6-5.8,10.8-8.8,12.7c-0.3,0.3-0.6,1.1-0.4,1.7c0.6,2.3,2.6,7.2,5.7,12.2c3.5,5.7,8.9,11.4,14,13.5  c1,0.4,1,1.1,0.8,2.4c-0.1,0.9-0.8,1-1.1,1c-8-0.4-14.3-2.4-19.8-8c-3.5-3.6-5.9-8.3-8-13.3c-1.4-3-2.7-4.8-6.9-4.8  c-1.4,0-2.2,0.1-3.2,0.3c-0.4,0.1-0.7,0.9-0.7,1.6c0,7.5,0.2,12,0.3,15.3c0.1,1.6,0.3,1.9,0.8,2.2c0.9,0.7,4.8,1.1,6.9,1.7  c0.3,0.4-0.1,2.6-0.4,2.9c-0.1,0.2-0.5,0.2-1.4,0.2c-0.9,0-9.9-0.1-14.3-0.1c-2.9,0-4.7,0.3-6.8,0.3c-0.9,0-1.2,0-1.3-0.3  c-0.3-0.7-0.6-2.2-0.4-2.8c1.8-0.4,4-1,4.7-1.8c1-1.3,1.3-6.9,1.3-17.9v-10.8c0-5.1-0.2-11.3-0.3-14.1c-0.1-3.3-0.3-3.3-5.9-4.8  L524.2,124.5z M557.7,138.9c0-7.4-5-12.3-10.2-12.3c-1.7,0-2.5,0.3-4,0.8c-0.9,0.3-1.4,0.9-1.6,1.8c-0.3,2.6-0.4,6.2-0.5,13.6  c-0.1,8.7-0.1,8.8,0.6,9c0.7,0.2,2.1,0.2,3.7,0.2c3.8,0,7.2-1.1,9.2-3.7C556.7,146,557.7,142.7,557.7,138.9L557.7,138.9z" fill="#000000"/>
<path d="M600.6,124.3c0,1-0.2,2.3-0.5,2.5c-1.1,0.2-2.1,0.4-3,0.6c-1,0.3-1.4,0.6-0.5,2.2c3.2,5.7,8.7,13.6,9.8,15.5  c0.5,0.9,1,1.5,1.6,2.1c0.3,0.3,1.1,0.4,1.5-0.1c5.3-8,7.4-11.6,8.5-13.6c0.8-1.4,1.8-3.6,1.8-4.6c0-1-2.2-1.3-5.6-1.8l-0.4-2  c-0.2-0.9,0.3-1.2,0.5-1.2c1,0,7.2,0.2,10.5,0.1c3.4-0.1,6.2-0.3,7.6-0.3c0.9,0,1,0,1.3,0.3c0.1,0.3,0.3,2.3-0.2,2.8  c-4.5,0.5-5.9,1.6-8.8,5.3c-4.7,6-9.5,13-12.8,18.3c-1.3,2.1-1.7,2.8-1.7,5v7.2c0,3,0.2,6.4,0.4,9.3c0.3,4.1,0.8,4,9,5  c0,0.8-0.3,1.9-0.7,2.7c-0.2,0.3-0.4,0.3-1.6,0.3c-2,0-7.8-0.4-14-0.4c-3.4,0-9.6,0.3-11,0.3c-0.6,0-0.8,0-0.9-0.3  c-0.2-0.3-0.6-1.8-0.6-2.2c0-0.3,0.3-0.3,0.7-0.4c4.1-0.4,5.6-1,6.4-2.1c0.9-0.9,1.2-3.2,1.2-9.4v-9.9c0-1.3-0.2-2.5-1.4-4.5  c-8.9-14.2-13.4-21.5-14.8-23c-0.6-0.5-1.6-0.7-4.1-0.6c-0.4,0-0.5-0.1-0.6-0.4c-0.1-0.6-0.1-2,0-2.5c0.1-0.4,0.2-0.6,0.4-0.6  c4.9,0,8.6,0.2,11,0.2c2.8,0,4.9-0.1,7.1-0.3c1.7-0.2,2.7-0.2,3.4-0.2C600.5,123.4,600.6,123.4,600.6,124.3L600.6,124.3z" fill="#000000"/>
<path d="M757.3,31c0,1.7-0.6,3.1-1.8,4.3c-1.2,1.2-2.6,1.8-4.3,1.8c-1.7,0-3.1-0.6-4.3-1.8c-1.2-1.2-1.8-2.6-1.8-4.3  c0-1.7,0.6-3.1,1.8-4.3c1.2-1.2,2.6-1.8,4.3-1.8c1.7,0,3.1,0.6,4.3,1.8C756.7,27.9,757.3,29.3,757.3,31z M756.1,31  c0-1.4-0.5-2.5-1.4-3.5c-1-1-2.1-1.4-3.5-1.4c-1.3,0-2.5,0.5-3.5,1.4c-1,1-1.4,2.1-1.4,3.5c0,1.4,0.5,2.5,1.4,3.5  c1,1,2.1,1.4,3.5,1.4c1.4,0,2.5-0.5,3.5-1.4C755.6,33.5,756.1,32.3,756.1,31z M754.2,34.4h-1.5l-1.4-2.4c-0.2-0.2-0.3-0.4-0.5-0.4  h-0.5v2.7h-1.3v-6.9h2.5c0.6,0,1.1,0.1,1.5,0.4c0.6,0.4,0.9,0.9,0.9,1.7c0,1-0.4,1.6-1.3,1.9l0,0.1L754.2,34.4z M752.4,29.6  c0-0.4-0.2-0.6-0.5-0.7c-0.1,0-0.3,0-0.5,0h-1.2v1.5h1.2c0.4,0,0.6,0,0.8-0.1C752.3,30.1,752.4,29.9,752.4,29.6z" fill="#000000"/>
<path d="M6.9,2c7.9,0,15.8-0.1,23.7-0.1C31.1,2,31.6,2,32.2,2.1c-0.1,1.2-0.2,2.4-0.3,3.7c-0.3,0-0.8,0-1.4,0  c-0.7,0.1-1.9,0.2-3.2,0.9c-1.1,0.7-1.8,1.6-2.2,2.2C25.1,21.1,25,33.3,25,45.5c16.7,0,33.4-0.1,50.1-0.1c0-12,0.1-24,0.1-35.9  c-0.3-0.6-0.9-1.7-2.2-2.5C72,6.2,71,6,70.3,5.8c-1.6-0.4-3.1-0.2-4,0c0-1.3-0.1-2.5-0.1-3.8c9.5,0,19-0.1,28.5-0.1  c0,1.2,0,2.4,0,3.7l0,0l0.3,0c-0.7-0.1-2.5-0.2-4.3,0.9c-1.2,0.7-1.9,1.6-2.3,2.2c0,25.8,0,51.6,0,77.5c0.2,0.4,0.4,0.8,0.6,1.1  c0.5,0.6,1.5,1.6,3,2.3c2,0.9,3.8,0.8,4.7,0.8c0,1.3-0.1,2.7-0.1,4c-9.9,0-19.7,0.1-29.6,0.1c0-1.4,0.1-2.8,0.1-4.2c0.5,0,1,0,1.5,0  c0.6,0.2,1.5,0.3,2.5,0c2-0.6,3.5-2.6,3.9-5.1c0-11.2-0.1-22.4-0.1-33.5c-16.5,0-33-0.1-49.5-0.1c0.2,12,0.3,24,0.5,35.9  c1.3,0.8,2.5,1.7,3.8,2.5c1.6,0.4,3.3,0.8,4.9,1.3c-0.1,1.1-0.2,2.3-0.3,3.4c-9.9-0.1-19.8-0.2-29.7-0.3c-0.1-1.1-0.2-2.1-0.3-3.2  c0.8,0,2.6-0.2,4.4-1.4c1.7-1.1,2.6-2.5,3-3.2c-0.1-25.6-0.2-51.1-0.3-76.7c-0.1-0.5-0.2-1.3-0.8-2.2c-1-1.5-2.7-2-3.4-2.2  C6.1,5.4,5,5.4,4.2,5.6c0-1.1,0-2.2,0-3.4l0,0L6.9,2z" fill="#000000"/>
<path d="M494.9,2c7.9,0,15.8-0.1,23.7-0.1c0.5,0.1,1.1,0.2,1.6,0.3c-0.1,1.2-0.2,2.4-0.3,3.7c-0.3,0-0.8,0-1.4,0  c-0.7,0.1-1.9,0.2-3.2,0.9c-1.1,0.7-1.8,1.6-2.2,2.2c-0.1,12.2-0.2,24.5-0.3,36.7c16.7,0,33.4-0.1,50.1-0.1c0-12,0.1-24,0.1-35.9  c-0.3-0.6-0.9-1.7-2.2-2.5c-1.1-0.7-2.1-1-2.8-1.1c-1.6-0.4-3.1-0.2-4,0c0-1.3-0.1-2.5-0.1-3.8c9.5,0,19-0.1,28.5-0.1  c0,1.2,0,2.4,0,3.7l0,0l0.3,0c-0.7-0.1-2.5-0.2-4.3,0.9c-1.2,0.7-1.9,1.6-2.3,2.2c0,25.8,0,51.6,0,77.5c0.2,0.4,0.4,0.8,0.6,1.1  c0.5,0.6,1.5,1.6,3,2.3c2,0.9,3.8,0.8,4.7,0.8c0,1.3-0.1,2.7-0.1,4c-9.9,0-19.7,0.1-29.6,0.1c0-1.4,0.1-2.8,0.1-4.2c0.5,0,1,0,1.5,0  c0.6,0.2,1.5,0.3,2.5,0c2-0.6,3.5-2.6,3.9-5.1c0-11.2-0.1-22.4-0.1-33.5c-16.5,0-33-0.1-49.5-0.1c0.2,12,0.3,24,0.5,35.9  c1.3,0.8,2.5,1.7,3.8,2.5c1.6,0.4,3.3,0.8,4.9,1.3c-0.1,1.1-0.2,2.3-0.3,3.4c-9.9-0.1-19.8-0.2-29.7-0.3c-0.1-1.1-0.2-2.1-0.3-3.2  c0.8,0,2.6-0.2,4.4-1.4c1.7-1.1,2.6-2.5,3-3.2c-0.1-25.6-0.2-51.1-0.3-76.7c-0.1-0.5-0.2-1.3-0.8-2.2c-1-1.5-2.7-2-3.4-2.2  c-1.2-0.3-2.4-0.2-3.2-0.1c0-1.1,0-2.2,0-3.4l0,0L494.9,2z" fill="#000000"/>
<line class="st0" x1="3.2" y1="126.4" x2="96.6" y2="126.4" fill="#000000"/>
<line class="st0" x1="663.8" y1="126.4" x2="754.2" y2="126.4" fill="#000000"/>
</svg>