<svg width="104" height="120" viewBox="0 0 104 120" fill="none" xmlns="http://www.w3.org/2000/svg">
<path d="M67.0999 18.2002V13.5002L70.4999 15.8002V13.3002L51.9999 1.2002L33.4999 13.3002V15.8002L36.8999 13.5002V18.2002L1.8999 39.7002V42.2002L6.79987 39.2002V70.5002H39.2999V46.0002H64.6999V70.5002H97.1999V39.2002L102.1 42.2002V39.7002L67.0999 18.2002Z" fill="#12110C"/>
<path d="M16.8 91.5V85.1H10.3V91.5H6.80005V75.5H10.3V81.8H16.8V75.5H20.3V91.5H16.8Z" fill="#12110C"/>
<path d="M27.8 75.5H24.3V91.5H27.8V75.5Z" fill="#12110C"/>
<path d="M42.9001 83.5C42.9001 82.8 42.8001 82.1 42.5001 81.6C42.3001 81 41.9001 80.5 41.5001 80.1C41.1001 79.7 40.6001 79.3 40.0001 79.1C39.4001 78.9 38.7001 78.7 38.0001 78.7H35.3V88.4H38.0001C38.7001 88.4 39.4001 88.3 40.0001 88.1C40.6001 87.9 41.1001 87.5 41.5001 87.1C41.9001 86.7 42.2001 86.2 42.5001 85.6C42.8001 84.9 42.9001 84.3 42.9001 83.5ZM46.0001 86.7C45.6001 87.7 45.0001 88.5 44.2001 89.2C43.4001 89.9 42.5001 90.5 41.5001 90.9C40.5001 91.3 39.3 91.5 38.1 91.5H31.8V75.5H38.1C39.4 75.5 40.5001 75.7 41.5001 76.1C42.5001 76.5 43.4001 77.1 44.2001 77.8C45.0001 78.5 45.5001 79.4 46.0001 80.3C46.4001 81.3 46.6 82.3 46.6 83.4C46.6 84.6 46.4001 85.7 46.0001 86.7Z" fill="#12110C"/>
<path d="M60.7999 83.5C60.7999 82.8 60.7 82.1 60.4 81.6C60.2 81 59.8 80.5 59.4 80.1C59 79.7 58.5 79.3 57.9 79.1C57.3 78.9 56.6 78.7 55.9 78.7H53.2V88.4H55.9C56.6 88.4 57.3 88.3 57.9 88.1C58.5 87.9 59 87.5 59.4 87.1C59.8 86.7 60.1 86.2 60.4 85.6C60.7 84.9 60.7999 84.3 60.7999 83.5ZM63.9 86.7C63.5 87.7 62.8999 88.5 62.0999 89.2C61.2999 89.9 60.4 90.5 59.4 90.9C58.4 91.3 57.1999 91.5 55.9999 91.5H49.7V75.5H55.9999C57.2999 75.5 58.4 75.7 59.4 76.1C60.4 76.5 61.2999 77.1 62.0999 77.8C62.8999 78.5 63.4 79.4 63.9 80.3C64.3 81.3 64.4999 82.3 64.4999 83.4C64.4999 84.6 64.3 85.7 63.9 86.7Z" fill="#12110C"/>
<path d="M67.7 91.5V75.5H79.7V78.6H71.0999V81.9H78.7V85H71.0999V88.4H79.7999V91.5H67.7Z" fill="#12110C"/>
<path d="M94.2 91.5L86.5 81.3V91.5H83V75.5H86.3L93.8 85.4V75.5H97.2V91.5H94.2Z" fill="#12110C"/>
<path d="M20.8 112C20.8 111.3 20.5001 110.7 19.9001 110.2C19.3001 109.8 18.4 109.6 17.1 109.6H11.5001V114.5H17.3C18.4 114.5 19.2 114.3 19.8 113.9C20.4 113.5 20.8 112.9 20.8 112ZM19.5001 103.2C19.5001 102.5 19.2001 101.9 18.7001 101.5C18.2001 101.1 17.4 100.9 16.3 100.9H11.5001V105.6H16.0001C17.1001 105.6 17.9 105.4 18.6 105C19.2 104.6 19.5001 104 19.5001 103.2ZM25.0001 115.4C24.6001 116.2 24.1 116.8 23.3 117.3C22.6 117.8 21.7001 118.2 20.7001 118.4C19.7001 118.7 18.5 118.8 17.3 118.8H6.80005V96.5996H17.1C19.4 96.5996 21.2001 97.0996 22.5001 98.1996C23.8001 99.1996 24.4001 100.6 24.4001 102.4V102.5C24.4001 103.1 24.3001 103.7 24.2001 104.2C24.0001 104.7 23.8 105.1 23.6 105.5C23.3 105.9 23.0001 106.2 22.7001 106.5C22.4001 106.8 22 107 21.6 107.3C22.9 107.8 23.9 108.4 24.6 109.3C25.3 110.1 25.7001 111.3 25.7001 112.8V112.9C25.6001 113.7 25.4001 114.6 25.0001 115.4Z" fill="#12110C"/>
<path d="M39.4 102.3L36.4999 109.5H42.4L39.4 102.3ZM46.0999 118.8L44.0999 113.8H34.7L32.7 118.8H27.7L37.2 96.5H41.7L51.2 118.8H46.0999Z" fill="#12110C"/>
<path d="M68.2001 104.2C68.2001 103.1 67.9001 102.4 67.2001 101.8C66.5001 101.3 65.6001 101 64.4001 101H59.5001V107.4H64.4001C65.6001 107.4 66.5001 107.1 67.2001 106.5C67.9001 105.9 68.2001 105.2 68.2001 104.2ZM68.1001 118.8L63.3001 111.7H59.5001V118.8H54.6001V96.5996H64.7001C67.3001 96.5996 69.4001 97.1996 70.9001 98.4996C72.4001 99.7996 73.1001 101.6 73.1001 103.9V104C73.1001 105.8 72.7001 107.3 71.8001 108.4C70.9001 109.5 69.8001 110.4 68.4001 110.9L73.8001 118.8H68.1001Z" fill="#12110C"/>
<path d="M93.1 118.8L82.4 104.7V118.8H77.5V96.5996H82L92.4 110.3V96.5996H97.2V118.8H93.1Z" fill="#12110C"/>
</svg>
