<?xml version="1.0" encoding="UTF-8"?>
<svg xmlns="http://www.w3.org/2000/svg" width="174" height="41" viewBox="0 0 174 41" fill="none">
  <path d="M128.434 40.5H44.2142C41.1404 40.5 38.6499 38.0094 38.6499 34.9357C38.6499 31.8619 41.1404 29.3714 44.2142 29.3714H128.434C131.508 29.3714 133.998 31.8619 133.998 34.9357C133.998 38.0094 131.508 40.5 128.434 40.5ZM46.4235 34.9357L44.9964 33.5086L43.5693 34.9357L44.9964 36.3628L46.4235 34.9357ZM129.075 34.9357L127.648 33.5086L126.221 34.9357L127.648 36.3628L129.075 34.9357ZM55.854 37.687C56.9586 37.687 57.5144 37.3199 57.5144 36.5823V35.8619C57.5144 35.2273 57.1748 34.8671 56.4989 34.7813C57.1473 34.7024 57.4698 34.3834 57.4698 33.8311V33.1415C57.4698 32.4142 57.0478 32.0506 56.2039 32.0506H51.3772V37.6835H55.854V37.687ZM56.2588 33.3748V33.91C56.2588 34.1775 56.0598 34.3148 55.6585 34.3148H52.667V32.97H55.6585C56.0598 32.97 56.2588 33.1038 56.2588 33.3748ZM56.1147 35.3165C56.2314 35.3885 56.2897 35.5326 56.2897 35.7419V36.1672C56.2897 36.3799 56.2314 36.5206 56.1147 36.5926C56.029 36.6441 55.8746 36.6681 55.655 36.6681H52.6636V35.2376H55.655C55.8746 35.2376 56.0255 35.2616 56.1147 35.313V35.3165ZM61.2365 36.3559C61.2365 36.8808 61.336 37.2341 61.5315 37.416C61.7271 37.5978 62.0941 37.6904 62.6327 37.6904H66.7802C67.3188 37.6904 67.6859 37.5978 67.8814 37.416C68.077 37.2341 68.1765 36.8808 68.1765 36.3559V33.3851C68.1765 32.8602 68.077 32.5069 67.8814 32.325C67.6859 32.1432 67.3188 32.0506 66.7802 32.0506H62.6327C62.0941 32.0506 61.7271 32.1432 61.5315 32.325C61.336 32.5069 61.2365 32.8602 61.2365 33.3851V36.3559ZM62.547 33.0557H66.8694V36.6269H62.547V33.0557ZM72.2519 32.054V36.3559C72.2519 36.8808 72.3514 37.2341 72.547 37.416C72.7425 37.5978 73.1096 37.6904 73.6482 37.6904H77.2091C77.7477 37.6904 78.1147 37.5978 78.3103 37.416C78.5058 37.2341 78.6053 36.8808 78.6053 36.3559V32.054H77.2948V36.6304H73.559V32.054H72.2485H72.2519ZM84.0873 37.687V35.5566H85.3326L87.6036 37.687H89.4801L86.8832 35.5566H87.6242C88.4681 35.5566 88.89 35.193 88.89 34.4657V33.1449C88.89 32.4177 88.4681 32.054 87.6242 32.054H82.7974V37.687H84.0873ZM87.4629 33.0798C87.5727 33.1449 87.6276 33.2753 87.6276 33.464V34.1467C87.6276 34.3388 87.5727 34.4657 87.4629 34.5309C87.384 34.5755 87.2399 34.5961 87.0375 34.5961H84.0907V33.0146H87.0375C87.2399 33.0146 87.384 33.0352 87.4629 33.0798ZM97.7785 37.687C98.8832 37.687 99.4389 37.3199 99.4389 36.5823V35.8619C99.4389 35.2273 99.0993 34.8671 98.4235 34.7813C99.0718 34.7024 99.3943 34.3834 99.3943 33.8311V33.1415C99.3943 32.4142 98.9724 32.0506 98.1284 32.0506H93.3017V37.6835H97.7785V37.687ZM98.1833 33.3748V33.91C98.1833 34.1775 97.9844 34.3148 97.583 34.3148H94.5916V32.97H97.583C97.9844 32.97 98.1833 33.1038 98.1833 33.3748ZM98.0427 35.3165C98.1593 35.3885 98.2176 35.5326 98.2176 35.7419V36.1672C98.2176 36.3799 98.1593 36.5206 98.0427 36.5926C97.9569 36.6441 97.8025 36.6681 97.583 36.6681H94.5916V35.2376H97.583C97.8025 35.2376 97.9535 35.2616 98.0427 35.313V35.3165ZM103.381 36.3559C103.381 36.8808 103.48 37.2341 103.676 37.416C103.871 37.5978 104.238 37.6904 104.78 37.6904H108.928C109.466 37.6904 109.833 37.5978 110.032 37.416C110.228 37.2341 110.327 36.8808 110.327 36.3559V33.3851C110.327 32.8602 110.228 32.5069 110.032 32.325C109.837 32.1432 109.47 32.0506 108.928 32.0506H104.78C104.242 32.0506 103.875 32.1432 103.676 32.325C103.48 32.5069 103.381 32.8602 103.381 33.3851V36.3559ZM104.691 33.0557H109.014V36.6269H104.691V33.0557ZM115.782 37.687V34.6407C115.782 34.4074 115.765 34.1089 115.727 33.7453C115.864 33.9065 116.022 34.0575 116.197 34.205L120.334 37.687H121.23V32.054H120.05V35.0112C120.05 35.1347 120.067 35.4605 120.104 35.982C119.96 35.8139 119.744 35.6115 119.46 35.3714L115.497 32.0506H114.602V37.6835H115.782V37.687Z" fill="#E8DDD9"></path>
  <path d="M44.9586 8.01286C44.9655 8.06432 44.9243 8.10892 44.8729 8.10892H44.5813C44.2314 8.10892 43.9157 7.90309 43.7785 7.58062C43.7785 7.58062 43.5384 6.82247 43.432 6.56518C42.9518 5.42281 42.1113 4.60978 40.4269 4.60978H37.384C36.7322 4.60978 36.2039 5.13808 36.2039 5.78988V12.6784C36.2039 12.7744 36.2828 12.8533 36.3789 12.8533H40.0049C41.5933 12.8533 42.1971 11.8791 42.3926 10.8533C42.4338 10.6441 42.6156 10.4897 42.8283 10.4966L43.113 10.5034C43.185 10.5034 43.2399 10.5618 43.2399 10.6338V16.4211C43.2399 16.4931 43.1816 16.5515 43.113 16.5515L42.8283 16.5583C42.6156 16.5652 42.4303 16.4108 42.3926 16.2015C42.1971 15.1758 41.5967 14.2015 40.0049 14.2015H36.3789C36.2828 14.2015 36.2039 14.2804 36.2039 14.3765V20.7676C36.2039 22.2496 37.1782 22.4794 38.2039 22.675C38.4132 22.7161 38.5641 22.8979 38.5607 23.1106L38.5504 23.7864H29.806L29.7957 23.1106C29.7957 22.8979 29.9432 22.7127 30.1525 22.675C31.1782 22.4794 32.1525 22.253 32.1525 20.7676V6.56175C32.1525 4.9048 31.1645 4.85678 30.1079 4.5789C29.8368 4.50686 29.6585 4.22213 29.7133 3.9271L29.8403 3.54974C29.8609 3.47084 29.9295 3.41595 30.0118 3.41595H43.655C44.0495 3.41595 44.3857 3.6801 44.4955 4.04717C44.5332 4.1295 44.5607 4.2187 44.571 4.31132L44.9689 8.01286H44.9586ZM60.9895 4.31475C60.9792 4.2187 60.9518 4.13293 60.914 4.0506C60.8077 3.68353 60.4681 3.41938 60.0736 3.41938H46.4303C46.3514 3.41938 46.2794 3.47427 46.2588 3.55317L46.1319 3.93053C46.077 4.22556 46.2554 4.51029 46.5264 4.58233C47.583 4.86021 48.571 4.90823 48.571 6.56518V20.7779C48.571 22.2599 47.5967 22.4897 46.571 22.6852C46.3617 22.7264 46.2108 22.9082 46.2142 23.1209L46.2245 23.7967H54.9689L54.9792 23.1209C54.9792 22.9082 54.8317 22.723 54.6224 22.6852C53.5967 22.4897 52.6224 22.2633 52.6224 20.7779V14.3868C52.6224 14.2907 52.7013 14.2118 52.7974 14.2118H56.4235C58.0118 14.2118 58.6156 15.1861 58.8111 16.2118C58.8523 16.4211 59.0341 16.5755 59.2468 16.5686L59.5315 16.5618C59.6036 16.5618 59.6585 16.5034 59.6585 16.4314V10.6441C59.6585 10.572 59.6001 10.5137 59.5315 10.5137L59.2468 10.5069C59.0341 10.5 58.8489 10.6544 58.8111 10.8636C58.6156 11.8894 58.0152 12.8636 56.4235 12.8636H52.7974C52.7013 12.8636 52.6224 12.7847 52.6224 12.6887V5.79331C52.6224 5.14151 53.1507 4.61321 53.8025 4.61321H56.8454C58.5298 4.61321 59.3703 5.42624 59.8506 6.56861C59.9569 6.82247 60.1971 7.58405 60.1971 7.58405C60.3343 7.90309 60.6499 8.11235 60.9998 8.11235H61.2914C61.3428 8.11235 61.384 8.06775 61.3772 8.0163L60.9792 4.31475H60.9895ZM28.6156 18.2393C28.6224 18.1878 28.5813 18.1432 28.5298 18.1432H28.2382C27.8883 18.1432 27.5727 18.3491 27.4355 18.6715C27.4355 18.6715 27.2296 19.1518 27.1576 19.3096C26.324 21.241 24.4063 22.5995 22.1696 22.5995H20.8832C20.0873 22.5995 19.4389 21.9545 19.4389 21.1552V14.3868C19.4389 14.2907 19.5178 14.2118 19.6139 14.2118H23.2399C24.8283 14.2118 25.432 15.1861 25.6276 16.2118C25.6687 16.4211 25.8506 16.5755 26.0633 16.5686L26.348 16.5618C26.42 16.5618 26.4749 16.5034 26.4749 16.4314V10.6441C26.4749 10.572 26.4166 10.5137 26.348 10.5137L26.0633 10.5069C25.8506 10.5 25.6653 10.6544 25.6276 10.8636C25.432 11.8894 24.8317 12.8636 23.2399 12.8636H19.6139C19.5178 12.8636 19.4389 12.7847 19.4389 12.6887V5.79331C19.4389 5.14151 19.9672 4.61321 20.619 4.61321H23.6242C25.3085 4.61321 26.149 5.42624 26.6293 6.56861C26.7356 6.82247 26.9758 7.58405 26.9758 7.58405C27.113 7.90309 27.4286 8.11235 27.7785 8.11235H28.0701C28.1216 8.11235 28.1627 8.06775 28.1559 8.0163L27.7442 4.20154C27.6962 3.75901 27.3223 3.42281 26.8763 3.42281H13.2331C13.1542 3.42281 13.0821 3.4777 13.0615 3.5566L12.9346 3.93396C12.8797 4.22899 13.0581 4.51372 13.3291 4.58576C14.3857 4.86364 15.3737 4.91166 15.3737 6.56861V20.7813C15.3737 22.2633 14.3995 22.4931 13.3737 22.6887C13.1645 22.7298 13.0135 22.9117 13.0169 23.1244L13.0272 23.8002H27.655L28.6053 18.2496L28.6156 18.2393ZM78.3754 18.2393C78.3823 18.1878 78.3411 18.1432 78.2897 18.1432H77.9981C77.6482 18.1432 77.3326 18.3491 77.1953 18.6715C77.1953 18.6715 76.9895 19.1518 76.9175 19.3096C76.0838 21.241 74.1662 22.5995 71.9295 22.5995H70.643C69.8471 22.5995 69.1988 21.9545 69.1988 21.1552V14.3868C69.1988 14.2907 69.2777 14.2118 69.3737 14.2118H72.9998C74.5881 14.2118 75.1919 15.1861 75.3874 16.2118C75.4286 16.4211 75.6104 16.5755 75.8231 16.5686L76.1079 16.5618C76.1799 16.5618 76.2348 16.5034 76.2348 16.4314V10.6441C76.2348 10.572 76.1765 10.5137 76.1079 10.5137L75.8231 10.5069C75.6104 10.5 75.4252 10.6544 75.3874 10.8636C75.1919 11.8894 74.5916 12.8636 72.9998 12.8636H69.3737C69.2777 12.8636 69.1988 12.7847 69.1988 12.6887V5.79331C69.1988 5.14151 69.7271 4.61321 70.3789 4.61321H73.384C75.0684 4.61321 75.9089 5.42624 76.3892 6.56861C76.4955 6.82247 76.7356 7.58405 76.7356 7.58405C76.8729 7.90309 77.1885 8.11235 77.5384 8.11235H77.83C77.8814 8.11235 77.9226 8.06775 77.9157 8.0163L77.5041 4.20154C77.4561 3.75901 77.0821 3.42281 76.6362 3.42281H62.9929C62.914 3.42281 62.842 3.4777 62.8214 3.5566L62.6945 3.93396C62.6396 4.22899 62.818 4.51372 63.089 4.58576C64.1456 4.86364 65.1336 4.91166 65.1336 6.56861V20.7813C65.1336 22.2633 64.1593 22.4931 63.1336 22.6887C62.9243 22.7298 62.7734 22.9117 62.7768 23.1244L62.7871 23.8002H77.4149L78.3652 18.2496L78.3754 18.2393ZM12.0187 1.03173L11.8814 0.647513C11.8609 0.56175 11.782 0.5 11.6962 0.5H2.51266C2.42347 0.5 2.34799 0.56175 2.32741 0.647513L2.19019 1.03173C2.13187 1.3542 2.32398 1.66638 2.62587 1.74528C3.78539 2.0506 4.866 2.10206 4.866 3.91681V20.3628C4.866 25.5189 4.45091 27.2444 1.69962 28.6098C1.40803 28.7539 0.543534 28.946 0.543534 28.946C0.111287 29.0695 -0.0293653 29.536 0.00494005 29.9443L0.0358148 30.2907C0.0392454 30.3388 0.0735507 30.3834 0.118148 30.3834C3.6859 30.3834 7.44919 28.8019 8.83513 24.5412C9.21935 23.3611 9.34628 21.9786 9.34628 20.3662V3.91681C9.34628 2.10206 10.4269 2.0506 11.5864 1.74528C11.8849 1.66638 12.0804 1.3542 12.0221 1.03173H12.0187ZM98.6842 23.289C98.6568 23.3336 98.5092 23.5943 98.5092 23.5943C98.2074 24.1569 96.5779 24.4177 95.0135 23.982C93.6859 23.6149 92.2554 22.7436 91.0273 21.1312C90.0667 19.8688 88.9964 18.1398 87.8883 16.4588C87.6688 16.1261 87.4389 15.9374 86.8043 15.9305C86.5881 15.9305 86.3686 15.9202 86.149 15.9099C86.0495 15.9065 85.9672 15.9854 85.9672 16.0849V20.7744C85.9672 22.2564 86.9415 22.4863 87.9672 22.6818C88.1765 22.723 88.3274 22.9048 88.324 23.1175L88.3137 23.7933H79.5693L79.559 23.1175C79.559 22.9048 79.7065 22.7196 79.9158 22.6818C80.9415 22.4863 81.9157 22.2599 81.9157 20.7744V6.56175C81.9157 4.9048 80.9278 4.85678 79.8712 4.5789C79.6001 4.50686 79.4218 4.22213 79.4766 3.9271L79.6036 3.54974C79.6242 3.47084 79.6928 3.41595 79.7751 3.41595C79.7751 3.41595 87.926 3.41595 88.4578 3.41595C93.7477 3.41595 96.7494 5.60806 96.7494 9.64923C96.7494 12.3388 94.8008 14.5309 91.5967 15.5669C92.8866 17.536 95.0375 21.6698 98.643 23.1655C98.7048 23.1895 98.7082 23.2547 98.6876 23.2856L98.6842 23.289ZM86.1319 14.7058C86.9346 14.7333 87.7785 14.7642 88.8797 14.4657C90.9621 13.9031 92.5195 11.9374 92.5195 9.5669C92.5195 6.45197 90.3514 4.62693 87.7099 4.62693C87.1404 4.62693 86.6636 4.70583 86.2931 4.79846C86.101 4.84648 85.9672 5.02144 85.9672 5.22041V14.5274C85.9672 14.6201 86.0427 14.699 86.1353 14.7024L86.1319 14.7058ZM99.4801 23.9957L108.787 3.65266C107.717 3.16209 106.53 2.98714 105.49 2.98714C102.159 2.98714 99.4046 5.45369 99.3394 8.5C99.3051 10.0266 99.9363 11.4331 101.034 12.4074C103.508 14.6098 106.159 15.6149 108.108 17.3062C108.815 17.9202 109.309 18.7333 109.309 19.7075C109.309 21.3954 108.087 22.6132 106.276 22.6132C102.156 22.6132 100.811 20.2256 100.345 18.7607C100.176 18.2393 99.854 18.1844 99.4183 18.2736L99.0444 18.3353C98.9929 18.3456 98.9758 18.3971 98.9792 18.4485C99.1679 20.3868 99.4149 23.2856 99.4698 23.9305C99.4766 24.0026 99.5384 24.0575 99.6139 24.054L100.242 24.0266C100.454 24.0094 100.602 23.8379 100.64 23.6321C100.729 23.1758 101.473 22.8156 102.152 23.1552C102.993 23.5772 104.245 24.3216 106.948 24.3216C110.441 24.3216 113.271 21.7007 113.271 18.4691C113.271 16.4931 112.293 14.7847 110.725 13.687C108.99 12.4726 105.652 11.0523 103.755 8.93225C103.353 8.48628 103.175 7.87907 103.188 7.24786C103.223 5.65952 104.674 4.37307 106.43 4.37307C108.008 4.37307 109.387 5.3988 110.204 6.47599C110.454 6.80532 110.708 7.29588 110.9 7.77616C111.072 8.20154 111.525 8.44168 111.974 8.35592L112.149 8.32161C112.197 8.31132 112.214 8.26329 112.211 8.21527C112.056 6.17067 111.854 3.16895 111.854 3.16895L111.144 3.19297C110.945 3.21012 110.873 3.33705 110.763 3.56003C110.574 3.95112 109.552 4.00943 108.78 3.65609L99.4801 23.9957ZM169.038 3.65266C167.967 3.16209 166.78 2.98714 165.741 2.98714C162.41 2.98714 159.655 5.45369 159.59 8.5C159.556 10.0266 160.187 11.4331 161.285 12.4074C163.758 14.6098 166.41 15.6149 168.358 17.3062C169.065 17.9202 169.559 18.7333 169.559 19.7075C169.559 21.3954 168.338 22.6132 166.526 22.6132C162.406 22.6132 161.062 20.2256 160.595 18.7607C160.427 18.2393 160.104 18.1844 159.669 18.2736L159.295 18.3353C159.243 18.3456 159.226 18.3971 159.23 18.4485C159.418 20.3868 159.665 23.2856 159.72 23.9305C159.727 24.0026 159.789 24.0575 159.864 24.054L160.492 24.0266C160.705 24.0094 160.852 23.8379 160.89 23.6321C160.979 23.1758 161.724 22.8156 162.403 23.1552C163.243 23.5772 164.496 24.3216 167.199 24.3216C170.691 24.3216 173.521 21.7007 173.521 18.4691C173.521 16.4931 172.544 14.7847 170.976 13.687C169.24 12.4726 165.902 11.0523 164.005 8.93225C163.604 8.48628 163.425 7.87907 163.439 7.24786C163.473 5.65952 164.924 4.37307 166.681 4.37307C168.259 4.37307 169.638 5.3988 170.454 6.47599C170.705 6.80532 170.959 7.29588 171.151 7.77616C171.322 8.20154 171.775 8.44168 172.225 8.35592L172.399 8.32161C172.447 8.31132 172.465 8.26329 172.461 8.21527C172.307 6.17067 172.104 3.16895 172.104 3.16895L171.394 3.19297C171.195 3.21012 171.123 3.33705 171.014 3.56003C170.825 3.95112 169.803 4.00943 169.031 3.65609L169.038 3.65266ZM123.943 24.3765C129.741 24.3696 133.61 19.5463 133.429 13.6012C133.226 6.98027 129.089 2.83619 123.813 2.83619C118.084 2.83619 114.317 7.65609 114.317 13.6012C114.317 20.1501 118.811 24.3834 123.943 24.3765ZM118.619 13.5326C118.396 8.3422 120.259 4.24957 123.466 4.13293C126.691 4.01286 128.9 8.3422 129.123 13.5326C129.346 18.723 127.538 22.9322 124.276 22.9322C121.014 22.9322 118.842 18.723 118.619 13.5326ZM154.056 3.41938H147.302L147.291 3.95798C147.291 4.17067 147.439 4.35592 147.648 4.39365C148.674 4.58919 149.823 4.81561 149.823 6.30103V17.1861L140.773 4.54803C140.283 3.84134 139.477 3.41938 138.619 3.41938H133.648C133.569 3.41938 133.497 3.47427 133.477 3.55317L133.35 4.06775C133.295 4.36278 133.473 4.51029 133.744 4.58233C134.681 4.82933 135.696 4.89451 135.919 6.05746V20.7779C135.919 22.2599 134.77 22.4897 133.744 22.6852C133.535 22.7264 133.384 22.9082 133.387 23.1209L133.398 23.7967H140.152L140.163 23.1209C140.163 22.9082 140.015 22.723 139.806 22.6852C138.78 22.4897 137.631 22.2633 137.631 20.7779H137.593L137.422 7.34391L149.315 23.7967H151.535V6.2976C151.535 4.81561 152.684 4.58576 153.71 4.39022C153.919 4.34906 154.07 4.16724 154.067 3.95455L154.056 3.41595V3.41938ZM156.516 1.94082C155.936 2.21527 155.576 2.88422 155.641 3.51544C155.724 4.30789 156.327 4.71612 156.736 4.83619C157.291 5.00429 157.398 5.28559 157.336 5.57719C157.195 6.2187 156.3 6.83619 155.957 7.04889C155.881 7.09691 155.854 7.18954 155.892 7.27187L156.101 7.7247C156.142 7.81046 156.245 7.85163 156.331 7.81389C158.578 6.8259 159.333 4.72985 159.113 3.45026C158.832 1.79674 157.422 1.51544 156.516 1.94082Z" fill="#E8DDD9"></path>
</svg>
