<?xml version="1.0" encoding="UTF-8"?>
<svg width="1024" height="377" version="1.1" viewBox="0 0 1024 377" xmlns="http://www.w3.org/2000/svg" xmlns:xlink="http://www.w3.org/1999/xlink">
 <use transform="translate(518.4 1e-4)" xlink:href="#a"/>
 <use transform="translate(706.5,2e-4)" xlink:href="#b"/>
 <use transform="matrix(-1 0 0 1 1021.1 9e-4)" xlink:href="#c"/>
 <g id="c" stroke-width="2">
  <g fill="#76a0cd">
   <path d="m430.2 111.19c19.601 7.3811 32.834 20.188 32.834 20.188 0.4572-6.4035 1.9595-12.807 3.9189-17.728 0 0-6.4009-12.308-24.996-25.109-20.085-13.784-43.109-17.721-43.109-17.721-4.9053 10.333-8.3344 21.166-9.8039 32.49 0 0 16.662-1.4762 41.156 7.8797z"/>
   <path d="m444.4 70.39c19.079 18.705 25.937 37.417 25.937 37.417 3.4618-5.9114 7.8379-10.832 13.716-14.775 0 0-7.3154-22.15-18.615-38.401-11.234-16.737-29.863-30.03-29.863-30.03-9.3075 6.8891-17.145 15.261-24.004 24.125 0 0 18.615 8.3651 32.828 21.664z"/>
   <path d="m477.7 47.19c8.8177 22.15 10.777 43.322 10.777 43.322 5.8784-2.9525 13.194-5.4128 19.595-5.9049 0 0 0.4572-21.172-4.4415-43.328-5.3559-25.601-11.234-40.862-11.234-40.862-11.3 0.9841-22.077 4.4286-32.332 8.8638 0 0 11.757 22.642 17.635 37.909z"/>
  </g>
  <path d="m446.4 186.09c23.978-11.324 48.014-8.8638 48.014-8.8638-8.8177-3.4446-16.198-8.8573-21.554-15.753 0 0-21.097-2.4603-37.243 0.492-24.983 5.4127-35.761 13.784-35.761 13.784 4.8987 10.34 11.267 20.188 19.105 28.56 0 0 9.7974-9.848 27.439-18.22z" fill="#123f75"/>
  <path d="m428.2 150.09c24.017-0.9841 40.672 5.4194 40.672 5.4194-2.9392-5.4193-4.8987-11.816-5.4213-18.22 0 0-19.569-10.832-37.211-13.292-24.493-3.4445-38.706 1.4762-38.706 1.4762 0.49 11.324 1.9595 22.648 5.3886 33.48 0 0 15.682-7.8797 35.277-8.8638z" fill="#123f75"/>
 </g>
 <g fill="#123f75" stroke-width="2">
  <path d="m510.5 204.79c34.814 0 50.032 30.029 50.032 30.029 10.777-4.9206 20.575-10.832 29.849-18.712 0 0-29.392-36.925-79.882-36.925-49.967 0-79.339 36.925-79.339 36.925 8.8177 7.8797 19.112 13.791 29.895 18.712 0 0 15.153-30.03 49.444-30.029z"/>
  <path d="m24.5 281.59v44.313h18.125c19.601 1e-4 28.419-7.8797 28.419-22.156-1e-4 -14.277-8.3279-22.156-28.419-22.156zm0 83.206h12.737v10.34h-37.237v-10.34h12.737l-1e-4 -83.698h-12.737v-9.848l42.625 1e-4c23.52 0 39.686 10.34 39.686 32.496 1e-4 22.156-16.166 32.49-39.686 32.49h-18.125z"/>
  <path d="m150.9 333.75c0-13.784-10.287-24.617-24.493-24.617-14.206-1e-4 -24.5 10.832-24.5 24.617zm8.8243 20.188c-3.4291 12.8-15.193 22.648-33.318 22.648-22.051 0-35.767-13.785-35.767-38.9 0-23.626 14.206-38.893 35.767-38.893 23.514 0 38.216 18.22 35.277 44.805l-59.777-1e-4c0.98 11.324 8.8242 23.14 24.5 23.141 10.287 0 17.635-4.4352 21.554-12.8z"/>
  <path id="b" d="m199.9 365.26h11.763v9.848l-34.787-1e-4v-9.848h11.757v-55.145h-11.757v-9.3559h22.044v10.34c4.4088-7.8731 15.193-15.261 29.889-10.34v10.832c-17.635-4.9208-28.909 4.4351-28.909 21.664z" fill="#123f75" stroke-width="2"/>
  <path d="m315 365.26h11.757l1e-4 9.848h-34.298v-9.848h11.763l-1e-4 -31.512c0-17.229-10.294-24.617-22.051-24.617-11.267 0-21.064 7.8796-21.064 25.601v30.528h11.757v9.848h-34.298v-9.848h11.757v-55.145h-11.757v-9.3559l22.051 1e-4v10.34c3.919-5.9048 12.247-11.816 24.004-11.816 16.172 0 30.379 9.3559 30.379 34.465z"/>
  <path d="m372.9 366.74c14.696 0 24.99-10.34 24.99-29.052 0-18.705-10.294-28.553-24.99-28.553-14.206 0-24.983 9.8479-24.983 28.553 1e-4 18.712 10.777 29.052 24.984 29.052zm-1e-4 -67.945c23.03 0 36.257 16.744 36.257 38.893 0 22.648-13.227 38.9-36.257 38.9-22.534 0-35.767-16.251-35.767-38.9 0-22.15 13.233-38.893 35.767-38.893z"/>
  <path id="a" d="m433.1 337.68c0 19.204 11.274 29.052 24.996 29.052 13.716 0 24.951-9.848 24.951-29.052 0-18.705-11.234-28.553-24.951-28.553-13.723 0-24.996 9.8479-24.996 28.553zm60.267 27.576h11.757v9.848h-22.077v-10.832c-4.3762 6.889-14.174 12.308-25.93 12.308-21.077 0-34.794-16.743-34.794-38.9 0-22.15 13.716-38.893 34.794-38.893 11.234 1e-4 20.575 4.9273 25.473 12.308v-30.521l-11.757-1e-4v-9.8479h22.534z" fill="#123f75" stroke-width="2"/>
  <path d="m579.1 281.59v38.401h23.971c15.676 0 22.077-7.3876 22.077-19.204 0-11.318-6.4009-19.197-22.077-19.197zm-24.494-10.832h48.465c19.595 0 33.834 10.832 33.834 30.029 0 16.744-10.32 26.592-25.473 29.544l16.656 34.465h13.716v10.34h-21.554l-21.554-44.313h-19.595v33.973h11.234v10.34l-35.728-1e-4v-10.34h12.737l-1e-4 -83.698h-12.737z"/>
  <path d="m665.8 284.99h12.279v-14.277h-12.279zm12.279 80.253h11.757v9.848h-34.814v-9.848h11.757v-55.145h-11.757v-9.3558h23.057z"/>
  <path d="m771.7 348.02c-3.9189 16.744-15.219 28.56-35.793 28.56-22.534 0-35.793-16.251-35.793-38.9-1e-4 -22.15 13.259-38.893 35.793-38.893 10.777 0 20.575 5.4194 25.016 12.308v-10.34h10.255v27.084h-11.757c-3.3964-10.34-10.32-18.712-23.514-18.712-14.239 0-25.016 9.8479-25.016 28.553 0 18.712 10.777 29.052 25.016 29.052 12.737 0 21.097-7.8797 24.494-18.712z"/>
  <path d="m796.2 337.68c0 19.204 10.777 29.052 24.493 29.052s24.951-9.848 24.951-29.052c0-18.705-11.234-28.553-24.951-28.553-13.716 0-24.493 9.8479-24.493 28.553zm48.987-36.925 22.534 1e-4v9.3558h-11.757v55.145h11.757v9.848h-22.534v-10.832c-4.4415 7.381-14.239 12.308-25.473 12.308-21.097 0-34.814-16.743-34.814-38.9 0-22.15 13.716-38.893 34.813-38.893 11.234 0 21.032 4.9272 25.473 12.308z"/>
 </g>
</svg>
