<svg viewBox="0 0 1375.13 1375.1" xmlns="http://www.w3.org/2000/svg" id="Layer_2"><defs><style>.cls-1{fill:#f6f2d8;stroke-width:0px;}</style></defs><g id="Layer_1-2"><g id="RH"><path d="M707.35,534.3c0,22.7,0,45.39.01,68.09,0,1.92.11,3.84.25,5.75.19,2.52,1.57,4.23,3.76,5.43,2.96,1.61,6.17,2.18,9.45,2.21,12.26.12,22.48-4.36,30.45-13.74,4.29-5.05,7.4-10.75,9.24-17.13,1.61-5.59,2.17-11.32,2.15-17.11-.03-8.07-.24-16.15-.26-24.22-.03-14.23.04-28.46.06-42.7,0-7.89.09-15.77-.03-23.66-.09-6.59-1.18-12.99-4.18-18.98-2.21-4.42-5.65-7.11-10.4-8.4-6.16-1.67-12.21-1.3-18.14.84-5.6,2.02-11.21,4.06-16.65,6.47-6.89,3.05-5.7,3.06-5.71,9.06-.04,22.7-.02,45.39-.02,68.09Z" class="cls-1"></path><path d="M1049.4,724.43c-2.71-5.24-7.16-8.64-12.86-9.85-5.67-1.21-11.47-1.34-17.12.46-14.85,4.72-23.08,15.3-26.15,30.17-1.69,8.15-1.11,16.48-.99,24.74.05,3.61.22,7.22.34,10.89.91.06,1.54.29,2.01.11,18.79-7.24,37.59-14.45,55.99-21.83.27-.84.48-1.21.48-1.57.05-9.04.19-18.08.04-27.11-.03-2.02-.79-4.17-1.74-5.99Z" class="cls-1"></path><path d="M577.7,580.11c-2.06.57-3.53.86-4.91,1.37-13.14,4.84-26.28,9.69-39.4,14.59-2.33.87-4.6,1.91-6.87,2.96-7.18,3.32-10.76,8.94-10.74,16.88.03,11.72.03,23.44,0,35.16-.01,5.37,2.19,9.62,6.25,13.03,4.25,3.57,9.14,5.51,14.63,6.14,8.28.96,16.18-.13,23.15-4.89,6.63-4.53,11.69-10.51,14.81-18,2.32-5.57,3.38-11.39,3.37-17.42-.02-15.18-.02-30.36-.05-45.54,0-1.14-.13-2.28-.24-4.29Z" class="cls-1"></path><path d="M885.83,575.79c.16,5.36,1.44,7.23,6.45,8.87,1.8.59,3.75.94,5.65,1.03,10.44.5,19.83-2.42,27.58-9.52,9.02-8.25,14.31-18.56,14.92-30.85.41-8.24.12-16.52.13-24.78.02-15.77.03-31.53.03-47.3,0-9.04-.01-18.07,0-27.11.01-6.26-1.3-12.2-4.02-17.84-2.14-4.43-5.62-7.14-10.36-8.44-5.95-1.63-11.85-1.42-17.59.61-6.15,2.18-12.18,4.68-18.23,7.13-1.4.57-2.66,1.48-4.58,2.57v7.19c0,44.8,0,89.61,0,134.41,0,1.35-.03,2.69.01,4.04Z" class="cls-1"></path><path d="M741.28,957.71c2.17.68,4.49,1.2,6.75,1.25,8.97.22,17.03-2.55,24.06-8.09,8.63-6.81,13.93-15.7,16.24-26.44,1.06-4.93,1.1-9.92,1.11-14.91.03-17.48.01-34.97.01-52.45h-.25c0-20.17-.12-40.34.09-60.51.05-4.49-1.89-7.24-5.32-9.43-2.64-1.68-5.5-2.58-8.66-2.77-11.66-.7-21.51,3.27-29.63,11.51-8.31,8.43-12.84,18.67-13.06,30.5-.27,14.4-.09,28.81-.1,43.21-.02,19.41.08,38.81-.1,58.22-.06,6.93.31,13.8,1.3,20.65.66,4.56,3.1,7.86,7.57,9.26Z" class="cls-1"></path><path d="M1159.8,668.96c-15.79-.66-28.48,12.36-28.46,27.57.03,16.77,13.06,28.34,27.67,28.55,16.28.23,28.55-12.42,28.76-28.03.23-16.74-13.75-28.55-27.97-28.08ZM1169.77,707.35c.46,1.46.96,2.91,1.28,4.39.1.45-.21,1.19-.58,1.49-1.95,1.58-5.91.7-6.9-1.6-.99-2.29-1.67-4.71-2.63-7-.68-1.64-.67-4.44-3.26-3.92-2.13.42-1.3,2.87-1.4,4.48-.14,2.47-.1,4.96-.14,7.66-2.69,1.31-4.63,1.5-6.48-.02-.78-5.21-.72-27.66.14-32.44.96-.19,2.03-.57,3.11-.6,3.07-.08,6.14-.06,9.22,0,4.26.08,7.34,2.13,9.06,5.97,1.69,3.77,1.44,7.49-1.09,10.89-.79,1.06-1.77,1.98-2.73,3.05.21,2.78,1.62,5.13,2.42,7.66Z" class="cls-1"></path><path d="M1332.61,925.03c9.28-25.23,17.08-51,23.38-77.31,5.78-24.12,10.19-48.47,13.43-73.05,1.06-7.99,1.84-16.02,2.55-24.06.63-7.27.69-14.6,1.55-21.84.68-5.76.79-11.49.85-17.26.03-3.07.25-6.15.33-9.22.17-6.14.48-12.29.42-18.44-.07-6.72-.48-13.44-.77-20.16-.36-8.44-.51-16.9-1.16-25.32-.84-10.72-2.05-21.41-3.18-32.1-2.19-20.64-5.72-41.08-10.04-61.37-10.01-46.95-24.66-92.41-44.19-136.29-14.57-32.74-31.5-64.18-50.96-94.26-17.57-27.16-36.98-52.94-58.13-77.42-14.22-16.46-29.45-31.95-44.95-47.19-1.18-1.16-2.59-2.09-3.92-3.13-.7.65-1.23.97-1.51,1.43-5.4,8.84-8.97,18.23-8.91,28.79.16,29.43.25,58.85.36,88.28,0,.96-.04,1.93.07,2.88.08.73.37,1.43.64,2.44,17.45-2.02,34.63-4.94,52.17-6.95.2,1.51.48,2.62.48,3.73.03,13.27.03,26.54,0,39.82,0,1.1-.34,2.2-.56,3.53-8.92,1.22-17.68,2.31-26.41,3.64-8.66,1.32-17.45,1.93-26.29,3.98-.04,2.82-.1,5.29-.1,7.77,0,73.48,0,146.96,0,220.44,0,1.15.02,2.31,0,3.46-.09,5.34,2.53,9.1,6.98,11.7,3.56,2.09,7.51,2.87,11.59,3.11,6.23.37,12.22-.98,18.18-2.58,1.05-.28,2.13-.45,3.52-.74-.9,2.68-2.61,4.29-4.1,6-5.86,6.73-12.78,12.18-20.34,16.88-9.53,5.92-19.84,10.17-30.43,13.65-11.38,3.74-23.09-.5-29.95-10.36-4.21-6.05-5.84-12.78-5.84-20.13,0-50.2-.12-100.41-.16-150.61-.03-37.12.04-74.25-.02-111.37-.05-27.31-.36-54.61-.31-81.92.01-6.83-.88-13.43-2.83-19.89-3.78-12.55-10.44-23.06-22.05-29.88-.74-.43-1.33-1.13-2.3-1.97,5.01-1.86,9.54-3.43,13.99-5.22,18.8-7.55,35.46-18.36,49.5-33.05,1.56-1.63,3.47-3.05,4.22-5.78-.97-.84-1.98-1.72-3-2.59-15.41-13.06-31.26-25.55-47.72-37.27-58.7-41.79-122.39-73.6-191.03-95.48-39.06-12.45-78.95-21.19-119.57-26.55-11.98-1.58-24.05-2.47-36.08-3.6-4.02-.38-8.05-.57-12.08-.76-10.74-.51-21.49-1.19-32.24-1.4-16.53-.33-33.03.66-49.54,1.42-12.29.56-24.51,1.71-36.7,3.16-12.38,1.47-24.7,3.46-37.03,5.38-21.07,3.27-41.83,8.01-62.43,13.5-37.58,10.02-74,23.2-109.34,39.42-61.05,28.03-116.74,64.31-167.2,108.63-6.36,5.58-12.54,11.36-18.82,17.03-2.24,2.02-3.8,4.31-3.55,7.5.46,5.77,1.3,11.47,3.8,16.77,4.09,8.67,11,13,20.54,13.37,4.29.16,8.45-.58,12.5-1.79,9.93-2.97,19.86-5.97,29.71-9.2,21.53-7.07,43.03-14.25,65.04-19.7,18.29-4.54,36.73-8.2,55.7-8.65,5.25-.13,10.37.11,15.41,1.37,9.3,2.32,17.69,6.4,24.46,13.38,5.57,5.74,8.8,12.54,9.07,20.62.09,2.69.18,5.38.18,8.07.01,39.24.08,78.48-.03,117.72-.04,14.6.64,29.2-.71,43.79-.49,5.35-.02,10.8-.66,16.13-1.88,15.77-6.03,30.91-13.39,45.08-8.16,15.72-19.09,28.81-35.06,37.14-.88.46-1.68.96-1.09,2.33.85.12,1.8.22,2.74.38,7.48,1.29,14.4,3.82,20.67,8.27,9.48,6.74,14.27,15.85,14.63,27.38.08,2.5.02,5,.02,7.5,0,51.74-.02,103.49,0,155.23,0,13.15,4.78,24.35,14.21,33.55,3.74,3.65,7.88,6.75,12.41,9.34,8.27,4.71,17.09,7.82,26.5,9.27,1.14.17,2.29.36,3.39.66,1,.28,2.33-.19,3.1,1.58-1.24,1.66-2.52,3.55-3.97,5.29-5.84,7.02-12.84,12.69-20.56,17.5-10.84,6.75-22.48,11.67-34.7,15.29-6.66,1.97-13.26,1.87-19.84-.2-7.18-2.26-12.98-6.58-17.88-12.19-7.24-8.31-11.62-18.06-14.09-28.7-1.53-6.58-1.97-13.24-1.94-20.02.08-19.03-.29-38.07-.35-57.11-.1-31.74-.05-63.48-.18-95.21-.02-4.01-.36-8.09-1.14-12.02-2.44-12.31-8.2-22.84-18.4-30.38-13.63-10.07-28.25-11.4-43.31-3.33-6.79,3.63-6.44,2.15-6.44,10.51,0,44.63,0,89.25,0,133.88,0,24.43-.01,48.86,0,73.29,0,13.92,1.59,27.63,5.7,40.98,3.54,11.49,8.6,22.23,16.17,31.65,6.87,8.56,15.09,15.31,25.73,18.74,1.07.35,2.06.93,3.07,1.4,0,.78.15,1.39-.03,1.9-.56,1.63-1.14,3.27-1.89,4.82-9.55,19.61-24.9,32.35-45.74,38.56-1.81.54-3.81.62-5.33,2.25-.34,1.99-.78,4.05-1.05,6.14-.96,7.26-2.61,14.37-4.85,21.34-3.9,12.18-9.35,23.58-17.45,33.58-5.39,6.66-11.73,12.18-19.44,16.01-2.02,1-4.02,2.26-6.86,2.16-.69-2.36-.46-4.84-.46-7.28-.01-64.44.03-128.88-.02-193.32-.07-85.02-.22-170.03-.34-255.05,0-1.15-.09-2.31,0-3.46.18-2.41-.93-3.92-2.98-5.09-5.19-2.97-9.99-6.51-14.44-10.5-6.95-6.23-12.71-13.37-16.63-21.9-5.09-11.07-6.18-22.53-3.06-34.32,2.52-9.5,7.53-17.62,14.12-24.82,6.82-7.46,14.86-13.35,23.71-18.16,13.3-7.23,27.54-11.66,42.46-14,3.73-.58,7.44-1.49,11.27-.76-.05.3-.01.58-.11.64-1.14.7-2.27,1.4-3.45,2.02-10.88,5.73-20.13,13.4-27.51,23.26-6,8.01-9.77,16.93-10.66,26.98-1.15,12.92,5.33,25.01,16.09,30.91,8.9,4.87,18.44,6.48,28.41,5.59,9.85-.88,19.24-3.65,28.01-8.23,13.02-6.8,24.09-15.92,31.55-28.75,5.22-8.98,9.51-18.44,12.3-28.51,3.68-13.27,4.73-26.87,4.79-40.54.13-27.12.04-54.24.03-81.36,0-2.31.02-4.63-.2-6.92-.71-7.49-4.49-12.96-11.2-16.34-3.67-1.84-7.62-2.8-11.71-2.48-5.54.43-11.08.68-16.55,2.06-13.25,3.36-26.25,7.38-38.61,13.31-1.86.89-4.03,1.42-5.12,3.37-.06.47-.16.85-.16,1.23.06,26.16.13,52.32.17,78.47,0,1.28-.36,2.55-.55,3.78-5.87.71-11.42,1.25-16.92,2.09-5.5.84-10.98,1.9-16.43,3-5.4,1.09-10.55,3.24-16.43,4.23-.08-2.26-.19-4.14-.19-6.02-.01-15.39,0-30.78,0-46.17,0-8.66.02-17.31-.03-25.97,0-1.47-.34-2.93-.51-4.29-.96-.27-1.49-.52-2.04-.57-4.4-.4-8.82-.67-13.21-1.15-5.75-.63-11.36-1.85-16.67-4.27-18.47-8.39-30.45-22.35-35.92-41.86-.93-3.32-1.37-6.78-2.13-10.15-.23-1.03-.77-1.99-1.35-3.43-1.21,1.18-2.07,1.91-2.81,2.74-7.29,8.18-14.71,16.26-21.8,24.61-25.32,29.83-47.76,61.72-67.55,95.46-25.38,43.27-45.72,88.82-61.17,136.54-15.19,46.95-25.09,95.03-29.96,144.11-1.44,14.52-2.71,29.08-2.65,43.71.01,2.88-.27,5.76-.36,8.64-.2,6.53-.51,13.06-.5,19.59,0,4.8.48,9.59.7,14.39.46,10.17.64,20.36,1.39,30.51,1.21,16.47,3.07,32.88,5.42,49.24,3.78,26.27,9.1,52.21,15.94,77.83,15.9,59.58,39.31,116.03,70.39,169.31,27.45,47.05,59.97,90.25,97.69,129.56,19.86,20.7,40.91,40.11,63.17,58.19,23.76,19.3,48.74,36.88,74.87,52.84,27.43,16.76,55.91,31.49,85.41,44.25,17.82,7.7,35.91,14.69,54.35,20.74.99.33,2.12.24,3.55.38.08-3.62.2-6.87.21-10.12.01-153.69.03-307.38,0-461.07,0-11.81-3.27-22.77-9.46-32.81-4-6.49-9.19-11.82-15.95-15.51-.76-.42-1.46-.96-2.84-1.87,2.65-.94,4.6-1.67,6.57-2.34,10.78-3.64,21.06-8.37,30.78-14.3,14.93-9.13,27.82-20.52,38.31-34.58.69-.92,1.05-2.68,2.92-1.94.06.24.11.42.14.61.03.19.06.38.07.57.02.38.03.77.03,1.15,0,77.9,0,155.81,0,233.71,0,.58,0,1.15,0,1.73,0,.19,0,.38,0,.58,0,.19,0,.38,0,.58.02.38.03.77.06,1.15.01.19.05.38.1.57.04.18.09.37.17.54.08.17.2.33.33.53,1.41.94,2.84.52,4.34.07,8.08-2.46,16.22-4.75,24.26-7.33,5.47-1.75,10.9-3.68,16.21-5.88,9.35-3.87,17.63-9.41,24.44-16.97,8.69-9.66,13.29-20.81,13.23-34.03-.17-40.39-.06-80.79-.06-121.18,0-10.96.13-21.93-.04-32.89-.17-10.9-2.07-21.42-7.96-30.88-.28-.45-.32-1.06-.55-1.85.84-.14,1.54-.35,2.25-.36,4.05-.08,7.94-.87,11.87-1.84,11.49-2.84,21.38-8.45,29.93-16.54,4.92-4.65,9.06-9.94,12.69-15.64.55-.87.79-2.22,2.31-2.13,0,8.25,0,16.48,0,24.71.08,67.13.2,134.26.25,201.39.04,62.32,0,124.65,0,186.97,0,1.92-.04,3.85.01,5.77.22,8.47.72,16.92,3.5,25.03,2.28,6.65,5.54,12.67,11.1,17.22.51.42.79,1.12,1.29,1.83-9.35,7.47-19.96,9.18-30.8,8.47-3.07,5.17-5.65,10.11-8.8,14.65-3.06,4.42-6.88,8.28-11.28,11.46-4.49,3.25-9.23,6.01-15.42,7.4.25-15.85.01-31.18,0-46.51-.02-15.58-.09-31.16-.15-46.74-.06-15.39-.17-30.77-.2-46.16-.04-15.56,0-31.13-.01-47.52-2.1.65-3.2.9-4.24,1.32-16.02,6.49-32.12,12.81-48.01,19.61-5.61,2.4-10.97,5.59-15.99,9.09-10.15,7.07-15.14,16.94-15.08,29.49.13,29.04.08,58.08.02,87.13-.02,10.26,1.19,20.34,3.74,30.25,3.34,12.99,8.65,25.07,17.12,35.59,7.01,8.72,15.45,15.49,26.3,18.89,1.22.38,2.32,1.15,3.77,1.89-.61,1.65-1.06,3.08-1.67,4.44-4.47,10.02-11.03,18.43-19.47,25.42-8.25,6.83-17.51,11.82-27.75,14.9-2.58.78-3.81,2.11-4.07,4.8-.98,10.41-3.53,20.43-7.72,30.03-.22.51-.21,1.11-.32,1.72.53.3,1,.64,1.52.84.9.34,1.82.63,2.75.87,32.62,8.13,65.59,14.36,99.09,17.49,12.23,1.14,24.47,2.36,36.73,3.12,9.78.61,19.6.79,29.4.79,14.98,0,29.95-.5,44.93-1.36,14.58-.84,29.11-2.08,43.59-3.86,18.28-2.24,36.45-5.25,54.51-8.96,17.88-3.68,35.56-8.05,53.05-13.11.93-.27,1.86-.54,2.79-.81.06-.02.12-.04.18-.05,208.35-62.01,375.52-219.6,450.7-421.92ZM1065.48,407.34c0,48.46-.02,96.92.02,145.39.01,13.65.23,27.3.32,40.95.01,1.89-.14,3.78-.24,6.15-5.44.44-10.21.93-15,1.2-4.46.25-8.71,1.24-12.86,2.88-8.93,3.53-17.91,6.94-26.87,10.38-1.58.61-3.19,1.16-4.78,1.73-.98-1.29.08-1.94.51-2.57,4.89-7.19,7.17-15.21,7.9-23.79,1.56-18.4,2.03-36.85,2.6-55.3,1.05-34.23.75-68.45.43-102.68-.07-6.92-.45-13.84-.64-20.76-.06-2.08.06-4.16.09-6.1,7.57-2.01,42.82-6.75,47.84-6.43.21,1.01.56,2.08.62,3.18.11,1.92.06,3.84.06,5.77ZM997.97,331.37c12.53-1.79,25.08-3.43,37.59-5.37,4.33-.67,8.43-.08,12.48,1.1,3.2.93,5.84,2.99,7.73,5.74,1.73,2.52,3.46,5.12,4.63,7.92,3.68,8.79,5.08,17.99,4.32,27.81-8.22,1.71-16.42,2.34-24.53,3.44-7.94,1.08-15.89,2.14-24.02,3.03-.69-2.66-1.07-4.92-1.88-7.02-.81-2.13-2-4.14-3.1-6.15-1.1-2.02-2.2-4.05-3.48-5.96-1.39-2.07-2.89-4.08-4.51-5.97-1.49-1.75-3.12-3.39-4.84-4.92-1.72-1.53-3.55-2.95-5.46-4.23-1.91-1.27-3.97-2.32-5.98-3.45-1.91-1.08-4.27-1.35-6.55-3.35,6.35-.95,11.96-1.82,17.59-2.62ZM805.52,228.24c10.58-10.69,22.97-18.6,37.1-23.7,4.68-1.69,9.5-3.13,14.36-4.2,7.74-1.69,17.07.97,21.98,9.04,4.53,7.43,6.48,15.55,7.01,24.1.11,1.72.04,3.46.04,5.19,0,35.39.01,70.77,0,106.16,0,8.84-.15,17.69-.16,26.53,0,1.87-.42,3.82.83,5.93,1.76-.5,3.58-.95,5.37-1.54,7.29-2.41,14.6-4.76,21.85-7.31,24.64-8.69,48.91,2.03,60.98,22.96,4.88,8.46,7.62,17.45,7.59,27.42-.15,46.35-.07,92.7-.03,139.04,0,4.08-.51,8.03-1.69,11.93-6.73,22.13-19.81,39.22-39.9,50.9-10.42,6.06-21.6,9.99-33.32,12.42-12.45,2.59-25.04,3.77-37.78,3.85-14.07.09-25.89-8.88-30.31-21.62-2.52-7.27-4.1-14.69-4.04-22.55.21-31.92.11-63.85.08-95.77-.06-81.92-.15-163.85-.22-245.77,0-.38-.04-.78,0-1.15.75-5.61-2.19-9.13-6.72-11.62-6.06-3.33-12.58-4.65-19.46-3.79-2.47.31-4.89.96-7.35,1.4-.67.12-1.39.02-2.59.02,1.89-3.22,4.13-5.57,6.4-7.87ZM864.5,716.18c-.01-7.75-1.05-15.29-3.54-22.65-1.49-4.43-3.51-8.56-6.52-12.1-2.98-3.5-5.5-7.42-9.24-10.24-.21-.16-.2-.63-.42-1.44,4.22,2,8.35,3.43,12.75,3.59,3.26.12,6.52.06,9.78,0,10.59-.16,21.09-1.07,31.41-3.63,4.49-1.11,8.86-2.5,12.99-4.6.81-.41,1.7-.67,2.78-1.08.81,2.6.52,4.89.52,7.13.03,25.76.03,51.52.04,77.28,0,11.53-.03,23.07,0,34.6.12,39.6.29,79.19.38,118.79.03,11.15-.12,22.3-.21,33.45-.02,1.9-.16,3.8-.26,5.98-19.85,7.88-39.68,15.36-60.11,23.3.57-1.28.71-1.81,1.02-2.23,5.95-8.25,8.53-17.57,8.58-27.61.18-33.06.35-66.13.35-99.19-.01-39.79-.24-79.58-.31-119.37ZM611.17,716.48c-7.63-3.41-10.63-6.82-17.56-19.75-1.11.74-2.24,1.4-3.27,2.21-9.98,7.86-21.25,13.31-33.55,16.02-24.23,5.33-47.45,2.68-68.46-11.4-8.3-5.57-14.43-13.09-16.67-23.31-1.11-5.1-1.92-10.15-1.88-15.39.12-14.42.07-28.85.02-43.27-.02-5-.21-9.99-.33-14.99-.37-14.9,4.21-27.99,14.35-39.01,4.89-5.32,10.81-9.19,17.51-11.88,22.45-9.03,44.89-18.07,67.34-27.11,3.02-1.22,6.03-2.45,9.19-3.73.92-7.93.02-15.4-2.96-22.69-2.79-6.84-8.02-10.03-15.09-10.69-7.53-.71-14.95.14-22.35,1.45-9.29,1.65-18.36,4.18-27.06,7.74-6.72,2.75-13.06,6.42-19.57,9.66-1.83.91-3.34,2.51-5.88,2.96-.49-19.22-7.24-33.91-27.33-39.4,2.17-2.8,4.99-4.07,7.67-5.5,18.39-9.84,37.81-17,58.1-21.77,8.59-2.02,17.26-3.75,25.96-5.23,5.66-.96,11.44-1.57,17.18-1.76,30.27-.98,53.88,22.54,56.47,50.64.33,3.62.14,7.29.11,10.93-.07,8.07-.26,16.15-.27,24.22-.04,39.04-.07,78.08-.03,117.12,0,7.67,2.11,14.84,6.46,21.19,1.5,2.18,3.45,4.14,5.5,5.83,2.72,2.24,5.94,3.5,9.58,3.35,1.14-.04,2.28,0,4.31,0-7.2,20.07-18.59,35.2-37.49,43.55ZM661.28,645.66c-2.83-7.35-4.29-15.02-4.25-23.08.2-33.85.12-67.71.08-101.56-.1-90.98-.24-181.95-.36-272.93,0-.77-.06-1.54,0-2.31.47-5.51-2.34-9.18-6.82-11.73-6.56-3.73-13.68-4.89-21.15-3.98-2.38.29-4.75.75-7.56,1.2.97-2.53,2.57-3.96,3.97-5.48,11.87-12.85,26.28-21.74,42.85-27.19,2.91-.96,5.95-1.55,8.86-2.52,4.42-1.48,8.78-.87,13.07.27,4.25,1.12,7.48,3.82,9.97,7.43,4.02,5.83,6.2,12.35,7.09,19.3.46,3.61.67,7.28.67,10.93.05,35.58.07,71.17.01,106.75-.04,20-.26,39.99-.36,59.99,0,2.06-.38,4.19.5,6.17,2.18.61,3.89-.54,5.66-1.11,8.05-2.57,16.07-5.24,24.08-7.92,6.29-2.11,12.71-2.81,19.31-2.25,13.75,1.16,24.93,7.3,33.87,17.61,6.69,7.72,10.8,16.77,12.85,26.74.38,1.86.4,3.82.4,5.74.02,47.89.04,95.79-.02,143.68,0,2.66-.35,5.38-1.01,7.96-4.92,19.09-15.15,34.76-30.75,46.83-10.45,8.09-21.97,14.03-34.87,17.28-15.56,3.92-31.29,6.21-47.36,5.41-14.2-.7-23.74-8.19-28.75-21.23ZM690.35,996.93c-1.7-4.12-2.48-8.4-2.46-12.92.09-26.73.04-53.45.04-80.18,0-25.19.13-50.38-.07-75.56-.07-8.6,1.34-16.83,4.17-24.86,9.95-28.2,28.73-48.18,56.19-59.97,6-2.57,12.25-4.45,18.6-6,10.62-2.59,21.24-5.21,31.89-7.72,7.61-1.8,14.88-.97,21.61,3.26,5.22,3.28,8.96,7.84,11.23,13.53,1.63,4.11,2.83,8.35,2.68,12.87-.08,2.5.06,5,.06,7.5,0,48.26-.12,96.52.09,144.78.05,12.38-2.48,24.05-7.33,35.26-8.91,20.62-23.15,36.57-42.77,47.57-3.16,1.77-6.57,3.22-10.02,4.31-13.91,4.39-27.84,8.72-41.84,12.79-4.58,1.33-9.37,2.19-14.13,2.63-12.07,1.12-23.23-5.9-27.92-17.27ZM1065.12,953.77c-21.77,5.13-42.62,12.93-63.08,21.82-31.59,13.73-62.06,29.64-91.65,47.26-11.06,6.59-22.12,13.2-33.33,19.53-15.95,9.02-32.74,16.07-50.47,20.83-15.5,4.16-31.26,6.47-47.29,6.22-22.57-.34-44.26-4.84-64.59-14.97-2.01-1-4.24-1.77-6.08-4,1.56-.45,2.74-.94,3.96-1.11,36.73-4.99,72.24-14.62,106.69-28.21,16.1-6.36,31.65-13.9,46.76-22.38,24.35-13.66,49.6-25.33,76.05-34.36,18.22-6.22,36.79-11.07,55.78-14.14,19.81-3.2,39.75-4.26,59.77-2.47,5.16.46,10.26,1.49,15.38,2.32.69.11,1.31.59,2.72,1.26-4.08.92-7.36,1.62-10.63,2.39ZM1093.25,795.94c-33.48,13.54-67.11,27.14-100.74,40.75-.98,7.74.5,14.75,3.67,21.5,2.8,5.96,7.67,8.92,13.97,9.78,6.37.86,12.65.48,18.73-1.83,10.06-3.81,20.13-7.56,30.18-11.38,9.69-3.69,19.36-7.44,29.04-11.15,1.04-.4,2.11-.73,3.09-1.06,1.03,1.04.13,1.57-.22,2.04-5.28,7.07-7.1,15.23-7.58,23.81-.31,5.61.4,11.13,1.66,16.58.6,2.6,1.17,5.21,1.81,8.08-1.11.62-2.01,1.27-3.02,1.67-13.39,5.31-26.76,10.65-40.2,15.83-6.62,2.55-13.37,4.8-20.06,7.16-1.08.38-2.19.78-3.32.91-11.26,1.35-22.51,2.79-33.81.32-.75-.16-1.51-.3-2.28-.33-6.69-.3-12.12-3.37-16.95-7.72-3.9-3.51-6.88-7.75-9.42-12.31-5.13-9.21-7.64-19.2-9.22-29.54-1.02-6.7-.99-13.39-.99-20.11,0-32.88.1-65.77-.06-98.65-.06-11.8,2.58-22.89,7.5-33.45,10.63-22.85,28.17-38.06,51.97-46.06,11.88-3.99,24.12-6.43,36.64-7.22,7.28-.46,14.59-.61,21.88-.91,4.39-.18,8.37,1.13,12.03,3.4,10.02,6.22,15.5,15.3,16.18,27.05.36,6.33.2,12.69.2,19.03.02,25.58.02,51.15-.01,76.73,0,2.28.39,4.62-.66,7.07ZM1159.72,734.43c-27.12.14-43.91-25.87-35.82-50.09,4.51-13.5,17.29-23.27,31.49-24.28,5.79-.41,11.52-.16,17.08,1.75,16.81,5.78,26.65,22.18,24.44,39.89-1.55,12.44-10.13,27.15-28.08,31.54-2.96.72-6.08.81-9.12,1.19Z" class="cls-1"></path><path d="M1161.01,686.16c-1.5-.26-3.03-.47-4.63,1.12-.02,2.05-.5,4.44.55,7.21,1.48.04,2.97.31,4.37.07,2.24-.38,3.46-2.29,3.28-4.61-.16-2.09-1.34-3.39-3.57-3.78Z" class="cls-1"></path></g></g></svg>